<mxfile host="Electron" modified="2025-06-02T13:01:23.352Z" agent="Mozilla/5.0 (Windows NT 10.0; Win64; x64) AppleWebKit/537.36 (KHTML, like Gecko) draw.io/22.1.2 Chrome/114.0.5735.289 Electron/25.9.4 Safari/537.36" etag="BmrL3VMVJvgAnJqrtvBf" version="22.1.2" type="device">
  <diagram name="Page-1" id="1yJhr-iKHEzhHgPPEC-S">
    <mxGraphModel dx="6415" dy="2935" grid="1" gridSize="10" guides="1" tooltips="1" connect="1" arrows="1" fold="1" page="1" pageScale="1" pageWidth="850" pageHeight="1100" math="0" shadow="0">
      <root>
        <mxCell id="0" />
        <mxCell id="1" parent="0" />
        <mxCell id="T0kzh4fNjWvfRmBSbcOW-32" value="" style="points=[[0.145,0.145,0],[0.5,0,0],[0.855,0.145,0],[1,0.5,0],[0.855,0.855,0],[0.5,1,0],[0.145,0.855,0],[0,0.5,0]];shape=mxgraph.bpmn.event;html=1;verticalLabelPosition=bottom;labelBackgroundColor=#ffffff;verticalAlign=top;align=center;perimeter=ellipsePerimeter;outlineConnect=0;aspect=fixed;outline=standard;symbol=general;" parent="1" vertex="1">
          <mxGeometry x="-10" y="55" width="50" height="50" as="geometry" />
        </mxCell>
        <mxCell id="T0kzh4fNjWvfRmBSbcOW-43" style="edgeStyle=orthogonalEdgeStyle;rounded=0;orthogonalLoop=1;jettySize=auto;html=1;exitX=1;exitY=0.5;exitDx=0;exitDy=0;exitPerimeter=0;entryX=0;entryY=0.5;entryDx=0;entryDy=0;entryPerimeter=0;" parent="1" source="T0kzh4fNjWvfRmBSbcOW-32" target="T0kzh4fNjWvfRmBSbcOW-33" edge="1">
          <mxGeometry relative="1" as="geometry" />
        </mxCell>
        <mxCell id="T0kzh4fNjWvfRmBSbcOW-98" value="" style="points=[[0.145,0.145,0],[0.5,0,0],[0.855,0.145,0],[1,0.5,0],[0.855,0.855,0],[0.5,1,0],[0.145,0.855,0],[0,0.5,0]];shape=mxgraph.bpmn.event;html=1;verticalLabelPosition=bottom;labelBackgroundColor=#ffffff;verticalAlign=top;align=center;perimeter=ellipsePerimeter;outlineConnect=0;aspect=fixed;outline=standard;symbol=general;" parent="1" vertex="1">
          <mxGeometry x="-4535" y="240" width="50" height="50" as="geometry" />
        </mxCell>
        <mxCell id="T0kzh4fNjWvfRmBSbcOW-99" value="" style="points=[[0.145,0.145,0],[0.5,0,0],[0.855,0.145,0],[1,0.5,0],[0.855,0.855,0],[0.5,1,0],[0.145,0.855,0],[0,0.5,0]];shape=mxgraph.bpmn.event;html=1;verticalLabelPosition=bottom;labelBackgroundColor=#ffffff;verticalAlign=top;align=center;perimeter=ellipsePerimeter;outlineConnect=0;aspect=fixed;outline=standard;symbol=general;" parent="1" vertex="1">
          <mxGeometry x="-4535" y="435" width="50" height="50" as="geometry" />
        </mxCell>
        <mxCell id="TTTKtCmcZpUqFRQQ_doG-3" value="" style="points=[[0.145,0.145,0],[0.5,0,0],[0.855,0.145,0],[1,0.5,0],[0.855,0.855,0],[0.5,1,0],[0.145,0.855,0],[0,0.5,0]];shape=mxgraph.bpmn.event;html=1;verticalLabelPosition=bottom;labelBackgroundColor=#ffffff;verticalAlign=top;align=center;perimeter=ellipsePerimeter;outlineConnect=0;aspect=fixed;outline=standard;symbol=timer;" parent="1" vertex="1">
          <mxGeometry x="-4370" y="240" width="50" height="50" as="geometry" />
        </mxCell>
        <mxCell id="TTTKtCmcZpUqFRQQ_doG-4" value="" style="points=[[0.145,0.145,0],[0.5,0,0],[0.855,0.145,0],[1,0.5,0],[0.855,0.855,0],[0.5,1,0],[0.145,0.855,0],[0,0.5,0]];shape=mxgraph.bpmn.event;html=1;verticalLabelPosition=bottom;labelBackgroundColor=#ffffff;verticalAlign=top;align=center;perimeter=ellipsePerimeter;outlineConnect=0;aspect=fixed;outline=catching;symbol=message;" parent="1" vertex="1">
          <mxGeometry x="-3840" y="240" width="50" height="50" as="geometry" />
        </mxCell>
        <mxCell id="TTTKtCmcZpUqFRQQ_doG-5" value="Put data into responsebody" style="points=[[0.25,0,0],[0.5,0,0],[0.75,0,0],[1,0.25,0],[1,0.5,0],[1,0.75,0],[0.75,1,0],[0.5,1,0],[0.25,1,0],[0,0.75,0],[0,0.5,0],[0,0.25,0]];shape=mxgraph.bpmn.task;whiteSpace=wrap;rectStyle=rounded;size=10;html=1;container=1;expand=0;collapsible=0;taskMarker=abstract;" parent="1" vertex="1">
          <mxGeometry x="-3690" y="225" width="120" height="80" as="geometry" />
        </mxCell>
        <mxCell id="TTTKtCmcZpUqFRQQ_doG-6" style="edgeStyle=orthogonalEdgeStyle;rounded=0;orthogonalLoop=1;jettySize=auto;html=1;exitX=1;exitY=0.5;exitDx=0;exitDy=0;exitPerimeter=0;entryX=0;entryY=0.5;entryDx=0;entryDy=0;entryPerimeter=0;" parent="1" source="T0kzh4fNjWvfRmBSbcOW-98" target="TTTKtCmcZpUqFRQQ_doG-3" edge="1">
          <mxGeometry relative="1" as="geometry" />
        </mxCell>
        <mxCell id="TTTKtCmcZpUqFRQQ_doG-7" style="edgeStyle=orthogonalEdgeStyle;rounded=0;orthogonalLoop=1;jettySize=auto;html=1;exitX=1;exitY=0.5;exitDx=0;exitDy=0;exitPerimeter=0;entryX=0;entryY=0.5;entryDx=0;entryDy=0;entryPerimeter=0;" parent="1" source="TTTKtCmcZpUqFRQQ_doG-3" target="TTTKtCmcZpUqFRQQ_doG-4" edge="1">
          <mxGeometry relative="1" as="geometry" />
        </mxCell>
        <mxCell id="TTTKtCmcZpUqFRQQ_doG-8" style="edgeStyle=orthogonalEdgeStyle;rounded=0;orthogonalLoop=1;jettySize=auto;html=1;exitX=1;exitY=0.5;exitDx=0;exitDy=0;exitPerimeter=0;entryX=0;entryY=0.5;entryDx=0;entryDy=0;entryPerimeter=0;" parent="1" source="TTTKtCmcZpUqFRQQ_doG-4" target="TTTKtCmcZpUqFRQQ_doG-5" edge="1">
          <mxGeometry relative="1" as="geometry" />
        </mxCell>
        <mxCell id="TTTKtCmcZpUqFRQQ_doG-9" value="" style="points=[[0.145,0.145,0],[0.5,0,0],[0.855,0.145,0],[1,0.5,0],[0.855,0.855,0],[0.5,1,0],[0.145,0.855,0],[0,0.5,0]];shape=mxgraph.bpmn.event;html=1;verticalLabelPosition=bottom;labelBackgroundColor=#ffffff;verticalAlign=top;align=center;perimeter=ellipsePerimeter;outlineConnect=0;aspect=fixed;outline=throwing;symbol=message;" parent="1" vertex="1">
          <mxGeometry x="-3420" y="240" width="50" height="50" as="geometry" />
        </mxCell>
        <mxCell id="TTTKtCmcZpUqFRQQ_doG-11" style="edgeStyle=orthogonalEdgeStyle;rounded=0;orthogonalLoop=1;jettySize=auto;html=1;exitX=1;exitY=0.5;exitDx=0;exitDy=0;exitPerimeter=0;entryX=0;entryY=0.5;entryDx=0;entryDy=0;entryPerimeter=0;" parent="1" source="TTTKtCmcZpUqFRQQ_doG-5" target="TTTKtCmcZpUqFRQQ_doG-9" edge="1">
          <mxGeometry relative="1" as="geometry" />
        </mxCell>
        <mxCell id="TTTKtCmcZpUqFRQQ_doG-12" value="Send responsebody" style="text;html=1;align=center;verticalAlign=middle;resizable=0;points=[];autosize=1;strokeColor=none;fillColor=none;" parent="1" vertex="1">
          <mxGeometry x="-3475" y="198" width="130" height="30" as="geometry" />
        </mxCell>
        <mxCell id="TTTKtCmcZpUqFRQQ_doG-13" value="Wait for API-call" style="text;html=1;align=center;verticalAlign=middle;resizable=0;points=[];autosize=1;strokeColor=none;fillColor=none;" parent="1" vertex="1">
          <mxGeometry x="-4400" y="210" width="110" height="30" as="geometry" />
        </mxCell>
        <mxCell id="TTTKtCmcZpUqFRQQ_doG-14" value="Receive request for data" style="text;html=1;align=center;verticalAlign=middle;resizable=0;points=[];autosize=1;strokeColor=none;fillColor=none;" parent="1" vertex="1">
          <mxGeometry x="-3890" y="210" width="150" height="30" as="geometry" />
        </mxCell>
        <mxCell id="TTTKtCmcZpUqFRQQ_doG-18" value="" style="points=[[0.145,0.145,0],[0.5,0,0],[0.855,0.145,0],[1,0.5,0],[0.855,0.855,0],[0.5,1,0],[0.145,0.855,0],[0,0.5,0]];shape=mxgraph.bpmn.event;html=1;verticalLabelPosition=bottom;labelBackgroundColor=#ffffff;verticalAlign=top;align=center;perimeter=ellipsePerimeter;outlineConnect=0;aspect=fixed;outline=standard;symbol=timer;" parent="1" vertex="1">
          <mxGeometry x="-4370" y="435" width="50" height="50" as="geometry" />
        </mxCell>
        <mxCell id="TTTKtCmcZpUqFRQQ_doG-19" style="edgeStyle=orthogonalEdgeStyle;rounded=0;orthogonalLoop=1;jettySize=auto;html=1;exitX=1;exitY=0.5;exitDx=0;exitDy=0;exitPerimeter=0;entryX=0;entryY=0.5;entryDx=0;entryDy=0;entryPerimeter=0;" parent="1" source="T0kzh4fNjWvfRmBSbcOW-99" target="TTTKtCmcZpUqFRQQ_doG-18" edge="1">
          <mxGeometry relative="1" as="geometry" />
        </mxCell>
        <mxCell id="TTTKtCmcZpUqFRQQ_doG-20" value="Wait for data request" style="text;html=1;align=center;verticalAlign=middle;resizable=0;points=[];autosize=1;strokeColor=none;fillColor=none;" parent="1" vertex="1">
          <mxGeometry x="-4410" y="405" width="130" height="30" as="geometry" />
        </mxCell>
        <mxCell id="TTTKtCmcZpUqFRQQ_doG-21" value="" style="points=[[0.145,0.145,0],[0.5,0,0],[0.855,0.145,0],[1,0.5,0],[0.855,0.855,0],[0.5,1,0],[0.145,0.855,0],[0,0.5,0]];shape=mxgraph.bpmn.event;html=1;verticalLabelPosition=bottom;labelBackgroundColor=#ffffff;verticalAlign=top;align=center;perimeter=ellipsePerimeter;outlineConnect=0;aspect=fixed;outline=catching;symbol=message;" parent="1" vertex="1">
          <mxGeometry x="-4210" y="435" width="50" height="50" as="geometry" />
        </mxCell>
        <mxCell id="TTTKtCmcZpUqFRQQ_doG-22" style="edgeStyle=orthogonalEdgeStyle;rounded=0;orthogonalLoop=1;jettySize=auto;html=1;exitX=1;exitY=0.5;exitDx=0;exitDy=0;exitPerimeter=0;entryX=0;entryY=0.5;entryDx=0;entryDy=0;entryPerimeter=0;" parent="1" source="TTTKtCmcZpUqFRQQ_doG-18" target="TTTKtCmcZpUqFRQQ_doG-21" edge="1">
          <mxGeometry relative="1" as="geometry" />
        </mxCell>
        <mxCell id="TTTKtCmcZpUqFRQQ_doG-23" value="Receive request for data" style="text;html=1;align=center;verticalAlign=middle;resizable=0;points=[];autosize=1;strokeColor=none;fillColor=none;" parent="1" vertex="1">
          <mxGeometry x="-4260" y="405" width="150" height="30" as="geometry" />
        </mxCell>
        <mxCell id="TTTKtCmcZpUqFRQQ_doG-24" value="Request database for data" style="points=[[0.25,0,0],[0.5,0,0],[0.75,0,0],[1,0.25,0],[1,0.5,0],[1,0.75,0],[0.75,1,0],[0.5,1,0],[0.25,1,0],[0,0.75,0],[0,0.5,0],[0,0.25,0]];shape=mxgraph.bpmn.task;whiteSpace=wrap;rectStyle=rounded;size=10;html=1;container=1;expand=0;collapsible=0;taskMarker=abstract;" parent="1" vertex="1">
          <mxGeometry x="-4050" y="420" width="120" height="80" as="geometry" />
        </mxCell>
        <mxCell id="TTTKtCmcZpUqFRQQ_doG-25" value="" style="points=[[0.145,0.145,0],[0.5,0,0],[0.855,0.145,0],[1,0.5,0],[0.855,0.855,0],[0.5,1,0],[0.145,0.855,0],[0,0.5,0]];shape=mxgraph.bpmn.event;html=1;verticalLabelPosition=bottom;labelBackgroundColor=#ffffff;verticalAlign=top;align=center;perimeter=ellipsePerimeter;outlineConnect=0;aspect=fixed;outline=standard;symbol=general;" parent="1" vertex="1">
          <mxGeometry x="-4535" y="610" width="50" height="50" as="geometry" />
        </mxCell>
        <mxCell id="TTTKtCmcZpUqFRQQ_doG-26" value="Request data" style="points=[[0.25,0,0],[0.5,0,0],[0.75,0,0],[1,0.25,0],[1,0.5,0],[1,0.75,0],[0.75,1,0],[0.5,1,0],[0.25,1,0],[0,0.75,0],[0,0.5,0],[0,0.25,0]];shape=mxgraph.bpmn.task;whiteSpace=wrap;rectStyle=rounded;size=10;html=1;container=1;expand=0;collapsible=0;taskMarker=abstract;" parent="1" vertex="1">
          <mxGeometry x="-4410" y="595" width="120" height="80" as="geometry" />
        </mxCell>
        <mxCell id="TTTKtCmcZpUqFRQQ_doG-27" style="edgeStyle=orthogonalEdgeStyle;rounded=0;orthogonalLoop=1;jettySize=auto;html=1;exitX=1;exitY=0.5;exitDx=0;exitDy=0;exitPerimeter=0;entryX=0;entryY=0.5;entryDx=0;entryDy=0;entryPerimeter=0;" parent="1" source="TTTKtCmcZpUqFRQQ_doG-25" target="TTTKtCmcZpUqFRQQ_doG-26" edge="1">
          <mxGeometry relative="1" as="geometry" />
        </mxCell>
        <mxCell id="TTTKtCmcZpUqFRQQ_doG-28" value="" style="points=[[0.145,0.145,0],[0.5,0,0],[0.855,0.145,0],[1,0.5,0],[0.855,0.855,0],[0.5,1,0],[0.145,0.855,0],[0,0.5,0]];shape=mxgraph.bpmn.event;html=1;verticalLabelPosition=bottom;labelBackgroundColor=#ffffff;verticalAlign=top;align=center;perimeter=ellipsePerimeter;outlineConnect=0;aspect=fixed;outline=throwing;symbol=message;" parent="1" vertex="1">
          <mxGeometry x="-4210" y="610" width="50" height="50" as="geometry" />
        </mxCell>
        <mxCell id="TTTKtCmcZpUqFRQQ_doG-29" style="edgeStyle=orthogonalEdgeStyle;rounded=0;orthogonalLoop=1;jettySize=auto;html=1;exitX=1;exitY=0.5;exitDx=0;exitDy=0;exitPerimeter=0;entryX=0;entryY=0.5;entryDx=0;entryDy=0;entryPerimeter=0;" parent="1" source="TTTKtCmcZpUqFRQQ_doG-26" target="TTTKtCmcZpUqFRQQ_doG-28" edge="1">
          <mxGeometry relative="1" as="geometry" />
        </mxCell>
        <mxCell id="TTTKtCmcZpUqFRQQ_doG-30" value="Send request for data" style="text;html=1;align=center;verticalAlign=middle;resizable=0;points=[];autosize=1;strokeColor=none;fillColor=none;" parent="1" vertex="1">
          <mxGeometry x="-4255" y="675" width="140" height="30" as="geometry" />
        </mxCell>
        <mxCell id="TTTKtCmcZpUqFRQQ_doG-31" value="" style="dashed=1;dashPattern=8 4;endArrow=blockThin;endFill=1;startArrow=oval;startFill=0;endSize=6;startSize=4;html=1;rounded=0;exitX=0.5;exitY=0;exitDx=0;exitDy=0;exitPerimeter=0;entryX=0.5;entryY=1;entryDx=0;entryDy=0;entryPerimeter=0;" parent="1" source="TTTKtCmcZpUqFRQQ_doG-28" target="TTTKtCmcZpUqFRQQ_doG-21" edge="1">
          <mxGeometry width="160" relative="1" as="geometry">
            <mxPoint x="-4190" y="540" as="sourcePoint" />
            <mxPoint x="-4030" y="540" as="targetPoint" />
          </mxGeometry>
        </mxCell>
        <mxCell id="TTTKtCmcZpUqFRQQ_doG-32" style="edgeStyle=orthogonalEdgeStyle;rounded=0;orthogonalLoop=1;jettySize=auto;html=1;exitX=1;exitY=0.5;exitDx=0;exitDy=0;exitPerimeter=0;entryX=0;entryY=0.5;entryDx=0;entryDy=0;entryPerimeter=0;" parent="1" source="TTTKtCmcZpUqFRQQ_doG-21" target="TTTKtCmcZpUqFRQQ_doG-24" edge="1">
          <mxGeometry relative="1" as="geometry" />
        </mxCell>
        <mxCell id="TTTKtCmcZpUqFRQQ_doG-33" value="" style="points=[[0.145,0.145,0],[0.5,0,0],[0.855,0.145,0],[1,0.5,0],[0.855,0.855,0],[0.5,1,0],[0.145,0.855,0],[0,0.5,0]];shape=mxgraph.bpmn.event;html=1;verticalLabelPosition=bottom;labelBackgroundColor=#ffffff;verticalAlign=top;align=center;perimeter=ellipsePerimeter;outlineConnect=0;aspect=fixed;outline=throwing;symbol=message;" parent="1" vertex="1">
          <mxGeometry x="-3840" y="435" width="50" height="50" as="geometry" />
        </mxCell>
        <mxCell id="TTTKtCmcZpUqFRQQ_doG-34" style="edgeStyle=orthogonalEdgeStyle;rounded=0;orthogonalLoop=1;jettySize=auto;html=1;exitX=1;exitY=0.5;exitDx=0;exitDy=0;exitPerimeter=0;entryX=0;entryY=0.5;entryDx=0;entryDy=0;entryPerimeter=0;" parent="1" source="TTTKtCmcZpUqFRQQ_doG-24" target="TTTKtCmcZpUqFRQQ_doG-33" edge="1">
          <mxGeometry relative="1" as="geometry" />
        </mxCell>
        <mxCell id="TTTKtCmcZpUqFRQQ_doG-35" value="" style="dashed=1;dashPattern=8 4;endArrow=blockThin;endFill=1;startArrow=oval;startFill=0;endSize=6;startSize=4;html=1;rounded=0;entryX=0.5;entryY=1;entryDx=0;entryDy=0;entryPerimeter=0;exitX=0.5;exitY=0;exitDx=0;exitDy=0;exitPerimeter=0;" parent="1" source="TTTKtCmcZpUqFRQQ_doG-33" target="TTTKtCmcZpUqFRQQ_doG-4" edge="1">
          <mxGeometry width="160" relative="1" as="geometry">
            <mxPoint x="-4000" y="420" as="sourcePoint" />
            <mxPoint x="-3840" y="420" as="targetPoint" />
          </mxGeometry>
        </mxCell>
        <mxCell id="TTTKtCmcZpUqFRQQ_doG-36" value="" style="points=[[0.145,0.145,0],[0.5,0,0],[0.855,0.145,0],[1,0.5,0],[0.855,0.855,0],[0.5,1,0],[0.145,0.855,0],[0,0.5,0]];shape=mxgraph.bpmn.event;html=1;verticalLabelPosition=bottom;labelBackgroundColor=#ffffff;verticalAlign=top;align=center;perimeter=ellipsePerimeter;outlineConnect=0;aspect=fixed;outline=standard;symbol=timer;" parent="1" vertex="1">
          <mxGeometry x="-3660" y="435" width="50" height="50" as="geometry" />
        </mxCell>
        <mxCell id="TTTKtCmcZpUqFRQQ_doG-37" style="edgeStyle=orthogonalEdgeStyle;rounded=0;orthogonalLoop=1;jettySize=auto;html=1;exitX=1;exitY=0.5;exitDx=0;exitDy=0;exitPerimeter=0;entryX=0;entryY=0.5;entryDx=0;entryDy=0;entryPerimeter=0;" parent="1" source="TTTKtCmcZpUqFRQQ_doG-33" target="TTTKtCmcZpUqFRQQ_doG-36" edge="1">
          <mxGeometry relative="1" as="geometry" />
        </mxCell>
        <mxCell id="TTTKtCmcZpUqFRQQ_doG-38" value="Wait for responsebody" style="text;html=1;align=center;verticalAlign=middle;resizable=0;points=[];autosize=1;strokeColor=none;fillColor=none;" parent="1" vertex="1">
          <mxGeometry x="-3705" y="405" width="140" height="30" as="geometry" />
        </mxCell>
        <mxCell id="TTTKtCmcZpUqFRQQ_doG-39" value="" style="points=[[0.145,0.145,0],[0.5,0,0],[0.855,0.145,0],[1,0.5,0],[0.855,0.855,0],[0.5,1,0],[0.145,0.855,0],[0,0.5,0]];shape=mxgraph.bpmn.event;html=1;verticalLabelPosition=bottom;labelBackgroundColor=#ffffff;verticalAlign=top;align=center;perimeter=ellipsePerimeter;outlineConnect=0;aspect=fixed;outline=catching;symbol=message;" parent="1" vertex="1">
          <mxGeometry x="-3420" y="435" width="50" height="50" as="geometry" />
        </mxCell>
        <mxCell id="TTTKtCmcZpUqFRQQ_doG-40" style="edgeStyle=orthogonalEdgeStyle;rounded=0;orthogonalLoop=1;jettySize=auto;html=1;exitX=1;exitY=0.5;exitDx=0;exitDy=0;exitPerimeter=0;entryX=0;entryY=0.5;entryDx=0;entryDy=0;entryPerimeter=0;" parent="1" source="TTTKtCmcZpUqFRQQ_doG-36" target="TTTKtCmcZpUqFRQQ_doG-39" edge="1">
          <mxGeometry relative="1" as="geometry" />
        </mxCell>
        <mxCell id="TTTKtCmcZpUqFRQQ_doG-41" value="" style="dashed=1;dashPattern=8 4;endArrow=blockThin;endFill=1;startArrow=oval;startFill=0;endSize=6;startSize=4;html=1;rounded=0;exitX=0.5;exitY=1;exitDx=0;exitDy=0;exitPerimeter=0;entryX=0.5;entryY=0;entryDx=0;entryDy=0;entryPerimeter=0;" parent="1" source="TTTKtCmcZpUqFRQQ_doG-9" target="TTTKtCmcZpUqFRQQ_doG-39" edge="1">
          <mxGeometry width="160" relative="1" as="geometry">
            <mxPoint x="-3480" y="400" as="sourcePoint" />
            <mxPoint x="-3320" y="400" as="targetPoint" />
          </mxGeometry>
        </mxCell>
        <mxCell id="TTTKtCmcZpUqFRQQ_doG-43" value="Show data on website" style="points=[[0.25,0,0],[0.5,0,0],[0.75,0,0],[1,0.25,0],[1,0.5,0],[1,0.75,0],[0.75,1,0],[0.5,1,0],[0.25,1,0],[0,0.75,0],[0,0.5,0],[0,0.25,0]];shape=mxgraph.bpmn.task;whiteSpace=wrap;rectStyle=rounded;size=10;html=1;container=1;expand=0;collapsible=0;taskMarker=abstract;" parent="1" vertex="1">
          <mxGeometry x="-3215" y="420" width="120" height="80" as="geometry" />
        </mxCell>
        <mxCell id="TTTKtCmcZpUqFRQQ_doG-44" style="edgeStyle=orthogonalEdgeStyle;rounded=0;orthogonalLoop=1;jettySize=auto;html=1;exitX=1;exitY=0.5;exitDx=0;exitDy=0;exitPerimeter=0;entryX=0;entryY=0.5;entryDx=0;entryDy=0;entryPerimeter=0;" parent="1" source="TTTKtCmcZpUqFRQQ_doG-39" target="TTTKtCmcZpUqFRQQ_doG-43" edge="1">
          <mxGeometry relative="1" as="geometry" />
        </mxCell>
        <mxCell id="TTTKtCmcZpUqFRQQ_doG-45" value="" style="points=[[0.145,0.145,0],[0.5,0,0],[0.855,0.145,0],[1,0.5,0],[0.855,0.855,0],[0.5,1,0],[0.145,0.855,0],[0,0.5,0]];shape=mxgraph.bpmn.event;html=1;verticalLabelPosition=bottom;labelBackgroundColor=#ffffff;verticalAlign=top;align=center;perimeter=ellipsePerimeter;outlineConnect=0;aspect=fixed;outline=standard;symbol=timer;" parent="1" vertex="1">
          <mxGeometry x="-3860" y="610" width="50" height="50" as="geometry" />
        </mxCell>
        <mxCell id="TTTKtCmcZpUqFRQQ_doG-46" style="edgeStyle=orthogonalEdgeStyle;rounded=0;orthogonalLoop=1;jettySize=auto;html=1;exitX=1;exitY=0.5;exitDx=0;exitDy=0;exitPerimeter=0;entryX=0;entryY=0.5;entryDx=0;entryDy=0;entryPerimeter=0;" parent="1" source="TTTKtCmcZpUqFRQQ_doG-28" target="TTTKtCmcZpUqFRQQ_doG-45" edge="1">
          <mxGeometry relative="1" as="geometry" />
        </mxCell>
        <mxCell id="TTTKtCmcZpUqFRQQ_doG-47" value="Wait for data" style="text;html=1;align=center;verticalAlign=middle;resizable=0;points=[];autosize=1;strokeColor=none;fillColor=none;" parent="1" vertex="1">
          <mxGeometry x="-3880" y="668" width="90" height="30" as="geometry" />
        </mxCell>
        <mxCell id="TTTKtCmcZpUqFRQQ_doG-48" value="" style="points=[[0.145,0.145,0],[0.5,0,0],[0.855,0.145,0],[1,0.5,0],[0.855,0.855,0],[0.5,1,0],[0.145,0.855,0],[0,0.5,0]];shape=mxgraph.bpmn.event;html=1;verticalLabelPosition=bottom;labelBackgroundColor=#ffffff;verticalAlign=top;align=center;perimeter=ellipsePerimeter;outlineConnect=0;aspect=fixed;outline=throwing;symbol=message;" parent="1" vertex="1">
          <mxGeometry x="-2990" y="435" width="50" height="50" as="geometry" />
        </mxCell>
        <mxCell id="TTTKtCmcZpUqFRQQ_doG-49" style="edgeStyle=orthogonalEdgeStyle;rounded=0;orthogonalLoop=1;jettySize=auto;html=1;exitX=1;exitY=0.5;exitDx=0;exitDy=0;exitPerimeter=0;entryX=0;entryY=0.5;entryDx=0;entryDy=0;entryPerimeter=0;" parent="1" source="TTTKtCmcZpUqFRQQ_doG-43" target="TTTKtCmcZpUqFRQQ_doG-48" edge="1">
          <mxGeometry relative="1" as="geometry" />
        </mxCell>
        <mxCell id="TTTKtCmcZpUqFRQQ_doG-50" value="Send data" style="text;html=1;align=center;verticalAlign=middle;resizable=0;points=[];autosize=1;strokeColor=none;fillColor=none;" parent="1" vertex="1">
          <mxGeometry x="-3005" y="405" width="80" height="30" as="geometry" />
        </mxCell>
        <mxCell id="TTTKtCmcZpUqFRQQ_doG-51" value="" style="points=[[0.145,0.145,0],[0.5,0,0],[0.855,0.145,0],[1,0.5,0],[0.855,0.855,0],[0.5,1,0],[0.145,0.855,0],[0,0.5,0]];shape=mxgraph.bpmn.event;html=1;verticalLabelPosition=bottom;labelBackgroundColor=#ffffff;verticalAlign=top;align=center;perimeter=ellipsePerimeter;outlineConnect=0;aspect=fixed;outline=catching;symbol=message;" parent="1" vertex="1">
          <mxGeometry x="-2990" y="610" width="50" height="50" as="geometry" />
        </mxCell>
        <mxCell id="TTTKtCmcZpUqFRQQ_doG-52" style="edgeStyle=orthogonalEdgeStyle;rounded=0;orthogonalLoop=1;jettySize=auto;html=1;exitX=1;exitY=0.5;exitDx=0;exitDy=0;exitPerimeter=0;entryX=0;entryY=0.5;entryDx=0;entryDy=0;entryPerimeter=0;" parent="1" source="TTTKtCmcZpUqFRQQ_doG-45" target="TTTKtCmcZpUqFRQQ_doG-51" edge="1">
          <mxGeometry relative="1" as="geometry" />
        </mxCell>
        <mxCell id="TTTKtCmcZpUqFRQQ_doG-53" value="Receive data" style="text;html=1;align=center;verticalAlign=middle;resizable=0;points=[];autosize=1;strokeColor=none;fillColor=none;" parent="1" vertex="1">
          <mxGeometry x="-3010" y="668" width="90" height="30" as="geometry" />
        </mxCell>
        <mxCell id="TTTKtCmcZpUqFRQQ_doG-54" value="" style="dashed=1;dashPattern=8 4;endArrow=blockThin;endFill=1;startArrow=oval;startFill=0;endSize=6;startSize=4;html=1;rounded=0;exitX=0.5;exitY=1;exitDx=0;exitDy=0;exitPerimeter=0;entryX=0.5;entryY=0;entryDx=0;entryDy=0;entryPerimeter=0;" parent="1" source="TTTKtCmcZpUqFRQQ_doG-48" target="TTTKtCmcZpUqFRQQ_doG-51" edge="1">
          <mxGeometry width="160" relative="1" as="geometry">
            <mxPoint x="-3230" y="560" as="sourcePoint" />
            <mxPoint x="-3070" y="560" as="targetPoint" />
          </mxGeometry>
        </mxCell>
        <mxCell id="TTTKtCmcZpUqFRQQ_doG-55" value="Edit data" style="points=[[0.25,0,0],[0.5,0,0],[0.75,0,0],[1,0.25,0],[1,0.5,0],[1,0.75,0],[0.75,1,0],[0.5,1,0],[0.25,1,0],[0,0.75,0],[0,0.5,0],[0,0.25,0]];shape=mxgraph.bpmn.task;whiteSpace=wrap;rectStyle=rounded;size=10;html=1;container=1;expand=0;collapsible=0;taskMarker=abstract;" parent="1" vertex="1">
          <mxGeometry x="-2810" y="595" width="120" height="80" as="geometry" />
        </mxCell>
        <mxCell id="TTTKtCmcZpUqFRQQ_doG-56" style="edgeStyle=orthogonalEdgeStyle;rounded=0;orthogonalLoop=1;jettySize=auto;html=1;exitX=1;exitY=0.5;exitDx=0;exitDy=0;exitPerimeter=0;entryX=0;entryY=0.5;entryDx=0;entryDy=0;entryPerimeter=0;" parent="1" source="TTTKtCmcZpUqFRQQ_doG-51" target="TTTKtCmcZpUqFRQQ_doG-55" edge="1">
          <mxGeometry relative="1" as="geometry" />
        </mxCell>
        <mxCell id="TTTKtCmcZpUqFRQQ_doG-58" value="" style="points=[[0.145,0.145,0],[0.5,0,0],[0.855,0.145,0],[1,0.5,0],[0.855,0.855,0],[0.5,1,0],[0.145,0.855,0],[0,0.5,0]];shape=mxgraph.bpmn.event;html=1;verticalLabelPosition=bottom;labelBackgroundColor=#ffffff;verticalAlign=top;align=center;perimeter=ellipsePerimeter;outlineConnect=0;aspect=fixed;outline=standard;symbol=timer;" parent="1" vertex="1">
          <mxGeometry x="-2775" y="435" width="50" height="50" as="geometry" />
        </mxCell>
        <mxCell id="TTTKtCmcZpUqFRQQ_doG-59" style="edgeStyle=orthogonalEdgeStyle;rounded=0;orthogonalLoop=1;jettySize=auto;html=1;exitX=1;exitY=0.5;exitDx=0;exitDy=0;exitPerimeter=0;entryX=0;entryY=0.5;entryDx=0;entryDy=0;entryPerimeter=0;" parent="1" source="TTTKtCmcZpUqFRQQ_doG-48" target="TTTKtCmcZpUqFRQQ_doG-58" edge="1">
          <mxGeometry relative="1" as="geometry" />
        </mxCell>
        <mxCell id="TTTKtCmcZpUqFRQQ_doG-60" value="Wait for edited data" style="text;html=1;align=center;verticalAlign=middle;resizable=0;points=[];autosize=1;strokeColor=none;fillColor=none;" parent="1" vertex="1">
          <mxGeometry x="-2815" y="405" width="130" height="30" as="geometry" />
        </mxCell>
        <mxCell id="TTTKtCmcZpUqFRQQ_doG-61" value="" style="points=[[0.145,0.145,0],[0.5,0,0],[0.855,0.145,0],[1,0.5,0],[0.855,0.855,0],[0.5,1,0],[0.145,0.855,0],[0,0.5,0]];shape=mxgraph.bpmn.event;html=1;verticalLabelPosition=bottom;labelBackgroundColor=#ffffff;verticalAlign=top;align=center;perimeter=ellipsePerimeter;outlineConnect=0;aspect=fixed;outline=throwing;symbol=message;" parent="1" vertex="1">
          <mxGeometry x="-2590" y="610" width="50" height="50" as="geometry" />
        </mxCell>
        <mxCell id="TTTKtCmcZpUqFRQQ_doG-62" value="" style="points=[[0.145,0.145,0],[0.5,0,0],[0.855,0.145,0],[1,0.5,0],[0.855,0.855,0],[0.5,1,0],[0.145,0.855,0],[0,0.5,0]];shape=mxgraph.bpmn.event;html=1;verticalLabelPosition=bottom;labelBackgroundColor=#ffffff;verticalAlign=top;align=center;perimeter=ellipsePerimeter;outlineConnect=0;aspect=fixed;outline=catching;symbol=message;" parent="1" vertex="1">
          <mxGeometry x="-2590" y="435" width="50" height="50" as="geometry" />
        </mxCell>
        <mxCell id="TTTKtCmcZpUqFRQQ_doG-63" style="edgeStyle=orthogonalEdgeStyle;rounded=0;orthogonalLoop=1;jettySize=auto;html=1;exitX=1;exitY=0.5;exitDx=0;exitDy=0;exitPerimeter=0;entryX=0;entryY=0.5;entryDx=0;entryDy=0;entryPerimeter=0;" parent="1" source="TTTKtCmcZpUqFRQQ_doG-58" target="TTTKtCmcZpUqFRQQ_doG-62" edge="1">
          <mxGeometry relative="1" as="geometry" />
        </mxCell>
        <mxCell id="TTTKtCmcZpUqFRQQ_doG-64" style="edgeStyle=orthogonalEdgeStyle;rounded=0;orthogonalLoop=1;jettySize=auto;html=1;exitX=1;exitY=0.5;exitDx=0;exitDy=0;exitPerimeter=0;entryX=0;entryY=0.5;entryDx=0;entryDy=0;entryPerimeter=0;" parent="1" source="TTTKtCmcZpUqFRQQ_doG-55" target="TTTKtCmcZpUqFRQQ_doG-61" edge="1">
          <mxGeometry relative="1" as="geometry" />
        </mxCell>
        <mxCell id="TTTKtCmcZpUqFRQQ_doG-65" value="" style="dashed=1;dashPattern=8 4;endArrow=blockThin;endFill=1;startArrow=oval;startFill=0;endSize=6;startSize=4;html=1;rounded=0;exitX=0.5;exitY=0;exitDx=0;exitDy=0;exitPerimeter=0;entryX=0.5;entryY=1;entryDx=0;entryDy=0;entryPerimeter=0;" parent="1" source="TTTKtCmcZpUqFRQQ_doG-61" target="TTTKtCmcZpUqFRQQ_doG-62" edge="1">
          <mxGeometry width="160" relative="1" as="geometry">
            <mxPoint x="-2530" y="560" as="sourcePoint" />
            <mxPoint x="-2370" y="560" as="targetPoint" />
          </mxGeometry>
        </mxCell>
        <mxCell id="TTTKtCmcZpUqFRQQ_doG-66" value="Send edited data" style="text;html=1;align=center;verticalAlign=middle;resizable=0;points=[];autosize=1;strokeColor=none;fillColor=none;" parent="1" vertex="1">
          <mxGeometry x="-2620" y="660" width="110" height="30" as="geometry" />
        </mxCell>
        <mxCell id="TTTKtCmcZpUqFRQQ_doG-67" value="Receive edited data" style="text;html=1;align=center;verticalAlign=middle;resizable=0;points=[];autosize=1;strokeColor=none;fillColor=none;" parent="1" vertex="1">
          <mxGeometry x="-2630" y="405" width="130" height="30" as="geometry" />
        </mxCell>
        <mxCell id="TTTKtCmcZpUqFRQQ_doG-68" value="Edit data in database" style="points=[[0.25,0,0],[0.5,0,0],[0.75,0,0],[1,0.25,0],[1,0.5,0],[1,0.75,0],[0.75,1,0],[0.5,1,0],[0.25,1,0],[0,0.75,0],[0,0.5,0],[0,0.25,0]];shape=mxgraph.bpmn.task;whiteSpace=wrap;rectStyle=rounded;size=10;html=1;container=1;expand=0;collapsible=0;taskMarker=abstract;" parent="1" vertex="1">
          <mxGeometry x="-2420" y="420" width="120" height="80" as="geometry" />
        </mxCell>
        <mxCell id="TTTKtCmcZpUqFRQQ_doG-69" style="edgeStyle=orthogonalEdgeStyle;rounded=0;orthogonalLoop=1;jettySize=auto;html=1;exitX=1;exitY=0.5;exitDx=0;exitDy=0;exitPerimeter=0;entryX=0;entryY=0.5;entryDx=0;entryDy=0;entryPerimeter=0;" parent="1" source="TTTKtCmcZpUqFRQQ_doG-62" target="TTTKtCmcZpUqFRQQ_doG-68" edge="1">
          <mxGeometry relative="1" as="geometry" />
        </mxCell>
        <mxCell id="TTTKtCmcZpUqFRQQ_doG-70" value="" style="points=[[0.145,0.145,0],[0.5,0,0],[0.855,0.145,0],[1,0.5,0],[0.855,0.855,0],[0.5,1,0],[0.145,0.855,0],[0,0.5,0]];shape=mxgraph.bpmn.event;html=1;verticalLabelPosition=bottom;labelBackgroundColor=#ffffff;verticalAlign=top;align=center;perimeter=ellipsePerimeter;outlineConnect=0;aspect=fixed;outline=end;symbol=terminate2;" parent="1" vertex="1">
          <mxGeometry x="-2200" y="435" width="50" height="50" as="geometry" />
        </mxCell>
        <mxCell id="TTTKtCmcZpUqFRQQ_doG-71" value="" style="points=[[0.145,0.145,0],[0.5,0,0],[0.855,0.145,0],[1,0.5,0],[0.855,0.855,0],[0.5,1,0],[0.145,0.855,0],[0,0.5,0]];shape=mxgraph.bpmn.event;html=1;verticalLabelPosition=bottom;labelBackgroundColor=#ffffff;verticalAlign=top;align=center;perimeter=ellipsePerimeter;outlineConnect=0;aspect=fixed;outline=end;symbol=terminate2;" parent="1" vertex="1">
          <mxGeometry x="-2200" y="610" width="50" height="50" as="geometry" />
        </mxCell>
        <mxCell id="TTTKtCmcZpUqFRQQ_doG-72" style="edgeStyle=orthogonalEdgeStyle;rounded=0;orthogonalLoop=1;jettySize=auto;html=1;exitX=1;exitY=0.5;exitDx=0;exitDy=0;exitPerimeter=0;entryX=0;entryY=0.5;entryDx=0;entryDy=0;entryPerimeter=0;" parent="1" source="TTTKtCmcZpUqFRQQ_doG-61" target="TTTKtCmcZpUqFRQQ_doG-71" edge="1">
          <mxGeometry relative="1" as="geometry" />
        </mxCell>
        <mxCell id="TTTKtCmcZpUqFRQQ_doG-73" style="edgeStyle=orthogonalEdgeStyle;rounded=0;orthogonalLoop=1;jettySize=auto;html=1;exitX=1;exitY=0.5;exitDx=0;exitDy=0;exitPerimeter=0;entryX=0;entryY=0.5;entryDx=0;entryDy=0;entryPerimeter=0;" parent="1" source="TTTKtCmcZpUqFRQQ_doG-68" target="TTTKtCmcZpUqFRQQ_doG-70" edge="1">
          <mxGeometry relative="1" as="geometry" />
        </mxCell>
        <mxCell id="TTTKtCmcZpUqFRQQ_doG-74" value="" style="points=[[0.145,0.145,0],[0.5,0,0],[0.855,0.145,0],[1,0.5,0],[0.855,0.855,0],[0.5,1,0],[0.145,0.855,0],[0,0.5,0]];shape=mxgraph.bpmn.event;html=1;verticalLabelPosition=bottom;labelBackgroundColor=#ffffff;verticalAlign=top;align=center;perimeter=ellipsePerimeter;outlineConnect=0;aspect=fixed;outline=end;symbol=terminate2;" parent="1" vertex="1">
          <mxGeometry x="-2200" y="240" width="50" height="50" as="geometry" />
        </mxCell>
        <mxCell id="TTTKtCmcZpUqFRQQ_doG-75" style="edgeStyle=orthogonalEdgeStyle;rounded=0;orthogonalLoop=1;jettySize=auto;html=1;exitX=1;exitY=0.5;exitDx=0;exitDy=0;exitPerimeter=0;entryX=0;entryY=0.5;entryDx=0;entryDy=0;entryPerimeter=0;" parent="1" source="TTTKtCmcZpUqFRQQ_doG-9" target="TTTKtCmcZpUqFRQQ_doG-74" edge="1">
          <mxGeometry relative="1" as="geometry" />
        </mxCell>
        <mxCell id="TTTKtCmcZpUqFRQQ_doG-80" value="" style="points=[[0.145,0.145,0],[0.5,0,0],[0.855,0.145,0],[1,0.5,0],[0.855,0.855,0],[0.5,1,0],[0.145,0.855,0],[0,0.5,0]];shape=mxgraph.bpmn.event;html=1;verticalLabelPosition=bottom;labelBackgroundColor=#ffffff;verticalAlign=top;align=center;perimeter=ellipsePerimeter;outlineConnect=0;aspect=fixed;outline=standard;symbol=general;" parent="1" vertex="1">
          <mxGeometry x="-4535" y="1080" width="50" height="50" as="geometry" />
        </mxCell>
        <mxCell id="TTTKtCmcZpUqFRQQ_doG-81" value="" style="points=[[0.145,0.145,0],[0.5,0,0],[0.855,0.145,0],[1,0.5,0],[0.855,0.855,0],[0.5,1,0],[0.145,0.855,0],[0,0.5,0]];shape=mxgraph.bpmn.event;html=1;verticalLabelPosition=bottom;labelBackgroundColor=#ffffff;verticalAlign=top;align=center;perimeter=ellipsePerimeter;outlineConnect=0;aspect=fixed;outline=standard;symbol=general;" parent="1" vertex="1">
          <mxGeometry x="-4530" y="1410" width="50" height="50" as="geometry" />
        </mxCell>
        <mxCell id="TTTKtCmcZpUqFRQQ_doG-82" value="Delete/make/edit user" style="points=[[0.25,0,0],[0.5,0,0],[0.75,0,0],[1,0.25,0],[1,0.5,0],[1,0.75,0],[0.75,1,0],[0.5,1,0],[0.25,1,0],[0,0.75,0],[0,0.5,0],[0,0.25,0]];shape=mxgraph.bpmn.task;whiteSpace=wrap;rectStyle=rounded;size=10;html=1;container=1;expand=0;collapsible=0;taskMarker=abstract;" parent="1" vertex="1">
          <mxGeometry x="-4390" y="1065" width="120" height="80" as="geometry" />
        </mxCell>
        <mxCell id="TTTKtCmcZpUqFRQQ_doG-83" style="edgeStyle=orthogonalEdgeStyle;rounded=0;orthogonalLoop=1;jettySize=auto;html=1;exitX=1;exitY=0.5;exitDx=0;exitDy=0;exitPerimeter=0;entryX=0;entryY=0.5;entryDx=0;entryDy=0;entryPerimeter=0;" parent="1" source="TTTKtCmcZpUqFRQQ_doG-80" target="TTTKtCmcZpUqFRQQ_doG-82" edge="1">
          <mxGeometry relative="1" as="geometry" />
        </mxCell>
        <mxCell id="TTTKtCmcZpUqFRQQ_doG-84" value="" style="points=[[0.25,0.25,0],[0.5,0,0],[0.75,0.25,0],[1,0.5,0],[0.75,0.75,0],[0.5,1,0],[0.25,0.75,0],[0,0.5,0]];shape=mxgraph.bpmn.gateway2;html=1;verticalLabelPosition=bottom;labelBackgroundColor=#ffffff;verticalAlign=top;align=center;perimeter=rhombusPerimeter;outlineConnect=0;outline=none;symbol=none;gwType=exclusive;" parent="1" vertex="1">
          <mxGeometry x="-4145" y="1080" width="50" height="50" as="geometry" />
        </mxCell>
        <mxCell id="TTTKtCmcZpUqFRQQ_doG-85" style="edgeStyle=orthogonalEdgeStyle;rounded=0;orthogonalLoop=1;jettySize=auto;html=1;exitX=1;exitY=0.5;exitDx=0;exitDy=0;exitPerimeter=0;entryX=0;entryY=0.5;entryDx=0;entryDy=0;entryPerimeter=0;" parent="1" source="TTTKtCmcZpUqFRQQ_doG-82" target="TTTKtCmcZpUqFRQQ_doG-84" edge="1">
          <mxGeometry relative="1" as="geometry" />
        </mxCell>
        <mxCell id="TTTKtCmcZpUqFRQQ_doG-86" value="Enter user to delete" style="points=[[0.25,0,0],[0.5,0,0],[0.75,0,0],[1,0.25,0],[1,0.5,0],[1,0.75,0],[0.75,1,0],[0.5,1,0],[0.25,1,0],[0,0.75,0],[0,0.5,0],[0,0.25,0]];shape=mxgraph.bpmn.task;whiteSpace=wrap;rectStyle=rounded;size=10;html=1;container=1;expand=0;collapsible=0;taskMarker=abstract;" parent="1" vertex="1">
          <mxGeometry x="-4090" y="970" width="120" height="80" as="geometry" />
        </mxCell>
        <mxCell id="TTTKtCmcZpUqFRQQ_doG-87" style="edgeStyle=orthogonalEdgeStyle;rounded=0;orthogonalLoop=1;jettySize=auto;html=1;exitX=0.5;exitY=0;exitDx=0;exitDy=0;exitPerimeter=0;entryX=0;entryY=0.5;entryDx=0;entryDy=0;entryPerimeter=0;" parent="1" source="TTTKtCmcZpUqFRQQ_doG-84" target="TTTKtCmcZpUqFRQQ_doG-86" edge="1">
          <mxGeometry relative="1" as="geometry" />
        </mxCell>
        <mxCell id="TTTKtCmcZpUqFRQQ_doG-88" value="Delete" style="edgeLabel;html=1;align=center;verticalAlign=middle;resizable=0;points=[];" parent="TTTKtCmcZpUqFRQQ_doG-87" vertex="1" connectable="0">
          <mxGeometry x="-0.6151" y="2" relative="1" as="geometry">
            <mxPoint as="offset" />
          </mxGeometry>
        </mxCell>
        <mxCell id="TTTKtCmcZpUqFRQQ_doG-89" value="" style="points=[[0.145,0.145,0],[0.5,0,0],[0.855,0.145,0],[1,0.5,0],[0.855,0.855,0],[0.5,1,0],[0.145,0.855,0],[0,0.5,0]];shape=mxgraph.bpmn.event;html=1;verticalLabelPosition=bottom;labelBackgroundColor=#ffffff;verticalAlign=top;align=center;perimeter=ellipsePerimeter;outlineConnect=0;aspect=fixed;outline=standard;symbol=timer;" parent="1" vertex="1">
          <mxGeometry x="-4350" y="1410" width="50" height="50" as="geometry" />
        </mxCell>
        <mxCell id="TTTKtCmcZpUqFRQQ_doG-90" style="edgeStyle=orthogonalEdgeStyle;rounded=0;orthogonalLoop=1;jettySize=auto;html=1;exitX=1;exitY=0.5;exitDx=0;exitDy=0;exitPerimeter=0;entryX=0;entryY=0.5;entryDx=0;entryDy=0;entryPerimeter=0;" parent="1" source="TTTKtCmcZpUqFRQQ_doG-81" target="TTTKtCmcZpUqFRQQ_doG-89" edge="1">
          <mxGeometry relative="1" as="geometry" />
        </mxCell>
        <mxCell id="TTTKtCmcZpUqFRQQ_doG-91" value="Wait for requests" style="text;html=1;align=center;verticalAlign=middle;resizable=0;points=[];autosize=1;strokeColor=none;fillColor=none;" parent="1" vertex="1">
          <mxGeometry x="-4380" y="1468" width="110" height="30" as="geometry" />
        </mxCell>
        <mxCell id="TTTKtCmcZpUqFRQQ_doG-92" value="Confirm deletion of user?" style="points=[[0.25,0,0],[0.5,0,0],[0.75,0,0],[1,0.25,0],[1,0.5,0],[1,0.75,0],[0.75,1,0],[0.5,1,0],[0.25,1,0],[0,0.75,0],[0,0.5,0],[0,0.25,0]];shape=mxgraph.bpmn.task;whiteSpace=wrap;rectStyle=rounded;size=10;html=1;container=1;expand=0;collapsible=0;taskMarker=abstract;" parent="1" vertex="1">
          <mxGeometry x="-3910" y="970" width="120" height="80" as="geometry" />
        </mxCell>
        <mxCell id="TTTKtCmcZpUqFRQQ_doG-93" style="edgeStyle=orthogonalEdgeStyle;rounded=0;orthogonalLoop=1;jettySize=auto;html=1;exitX=1;exitY=0.5;exitDx=0;exitDy=0;exitPerimeter=0;entryX=0;entryY=0.5;entryDx=0;entryDy=0;entryPerimeter=0;" parent="1" source="TTTKtCmcZpUqFRQQ_doG-86" target="TTTKtCmcZpUqFRQQ_doG-92" edge="1">
          <mxGeometry relative="1" as="geometry" />
        </mxCell>
        <mxCell id="TTTKtCmcZpUqFRQQ_doG-94" value="" style="points=[[0.25,0.25,0],[0.5,0,0],[0.75,0.25,0],[1,0.5,0],[0.75,0.75,0],[0.5,1,0],[0.25,0.75,0],[0,0.5,0]];shape=mxgraph.bpmn.gateway2;html=1;verticalLabelPosition=bottom;labelBackgroundColor=#ffffff;verticalAlign=top;align=center;perimeter=rhombusPerimeter;outlineConnect=0;outline=none;symbol=none;gwType=exclusive;" parent="1" vertex="1">
          <mxGeometry x="-3755" y="985" width="50" height="50" as="geometry" />
        </mxCell>
        <mxCell id="TTTKtCmcZpUqFRQQ_doG-95" style="edgeStyle=orthogonalEdgeStyle;rounded=0;orthogonalLoop=1;jettySize=auto;html=1;exitX=1;exitY=0.5;exitDx=0;exitDy=0;exitPerimeter=0;entryX=0;entryY=0.5;entryDx=0;entryDy=0;entryPerimeter=0;" parent="1" source="TTTKtCmcZpUqFRQQ_doG-92" target="TTTKtCmcZpUqFRQQ_doG-94" edge="1">
          <mxGeometry relative="1" as="geometry" />
        </mxCell>
        <mxCell id="TTTKtCmcZpUqFRQQ_doG-99" value="" style="points=[[0.145,0.145,0],[0.5,0,0],[0.855,0.145,0],[1,0.5,0],[0.855,0.855,0],[0.5,1,0],[0.145,0.855,0],[0,0.5,0]];shape=mxgraph.bpmn.event;html=1;verticalLabelPosition=bottom;labelBackgroundColor=#ffffff;verticalAlign=top;align=center;perimeter=ellipsePerimeter;outlineConnect=0;aspect=fixed;outline=throwing;symbol=message;" parent="1" vertex="1">
          <mxGeometry x="-3630" y="985" width="50" height="50" as="geometry" />
        </mxCell>
        <mxCell id="TTTKtCmcZpUqFRQQ_doG-100" style="edgeStyle=orthogonalEdgeStyle;rounded=0;orthogonalLoop=1;jettySize=auto;html=1;exitX=1;exitY=0.5;exitDx=0;exitDy=0;exitPerimeter=0;entryX=0;entryY=0.5;entryDx=0;entryDy=0;entryPerimeter=0;" parent="1" source="TTTKtCmcZpUqFRQQ_doG-94" target="TTTKtCmcZpUqFRQQ_doG-99" edge="1">
          <mxGeometry relative="1" as="geometry" />
        </mxCell>
        <mxCell id="TTTKtCmcZpUqFRQQ_doG-101" value="Yes" style="edgeLabel;html=1;align=center;verticalAlign=middle;resizable=0;points=[];" parent="TTTKtCmcZpUqFRQQ_doG-100" vertex="1" connectable="0">
          <mxGeometry x="-0.1983" y="-1" relative="1" as="geometry">
            <mxPoint as="offset" />
          </mxGeometry>
        </mxCell>
        <mxCell id="TTTKtCmcZpUqFRQQ_doG-102" value="Send data" style="text;html=1;align=center;verticalAlign=middle;resizable=0;points=[];autosize=1;strokeColor=none;fillColor=none;" parent="1" vertex="1">
          <mxGeometry x="-3647.75" y="955" width="80" height="30" as="geometry" />
        </mxCell>
        <mxCell id="TTTKtCmcZpUqFRQQ_doG-103" style="edgeStyle=orthogonalEdgeStyle;rounded=0;orthogonalLoop=1;jettySize=auto;html=1;exitX=0.5;exitY=0;exitDx=0;exitDy=0;exitPerimeter=0;entryX=0.5;entryY=0;entryDx=0;entryDy=0;entryPerimeter=0;" parent="1" source="TTTKtCmcZpUqFRQQ_doG-94" target="TTTKtCmcZpUqFRQQ_doG-82" edge="1">
          <mxGeometry relative="1" as="geometry">
            <Array as="points">
              <mxPoint x="-3730" y="940" />
              <mxPoint x="-4330" y="940" />
            </Array>
          </mxGeometry>
        </mxCell>
        <mxCell id="TTTKtCmcZpUqFRQQ_doG-104" value="No" style="edgeLabel;html=1;align=center;verticalAlign=middle;resizable=0;points=[];" parent="TTTKtCmcZpUqFRQQ_doG-103" vertex="1" connectable="0">
          <mxGeometry x="-0.9499" y="1" relative="1" as="geometry">
            <mxPoint as="offset" />
          </mxGeometry>
        </mxCell>
        <mxCell id="TTTKtCmcZpUqFRQQ_doG-110" style="edgeStyle=orthogonalEdgeStyle;rounded=0;orthogonalLoop=1;jettySize=auto;html=1;exitX=1;exitY=0.5;exitDx=0;exitDy=0;exitPerimeter=0;entryX=0;entryY=0.5;entryDx=0;entryDy=0;entryPerimeter=0;" parent="1" source="TTTKtCmcZpUqFRQQ_doG-105" target="TTTKtCmcZpUqFRQQ_doG-111" edge="1">
          <mxGeometry relative="1" as="geometry">
            <mxPoint x="-3780" y="1230.04347826087" as="targetPoint" />
          </mxGeometry>
        </mxCell>
        <mxCell id="TTTKtCmcZpUqFRQQ_doG-105" value="Enter userdata" style="points=[[0.25,0,0],[0.5,0,0],[0.75,0,0],[1,0.25,0],[1,0.5,0],[1,0.75,0],[0.75,1,0],[0.5,1,0],[0.25,1,0],[0,0.75,0],[0,0.5,0],[0,0.25,0]];shape=mxgraph.bpmn.task;whiteSpace=wrap;rectStyle=rounded;size=10;html=1;container=1;expand=0;collapsible=0;taskMarker=abstract;" parent="1" vertex="1">
          <mxGeometry x="-4095" y="1190" width="120" height="80" as="geometry" />
        </mxCell>
        <mxCell id="TTTKtCmcZpUqFRQQ_doG-106" style="edgeStyle=orthogonalEdgeStyle;rounded=0;orthogonalLoop=1;jettySize=auto;html=1;exitX=0.5;exitY=1;exitDx=0;exitDy=0;exitPerimeter=0;entryX=0;entryY=0.5;entryDx=0;entryDy=0;entryPerimeter=0;" parent="1" source="TTTKtCmcZpUqFRQQ_doG-84" target="TTTKtCmcZpUqFRQQ_doG-105" edge="1">
          <mxGeometry relative="1" as="geometry" />
        </mxCell>
        <mxCell id="TTTKtCmcZpUqFRQQ_doG-107" value="Add/edit" style="edgeLabel;html=1;align=center;verticalAlign=middle;resizable=0;points=[];" parent="TTTKtCmcZpUqFRQQ_doG-106" vertex="1" connectable="0">
          <mxGeometry x="-0.705" y="-2" relative="1" as="geometry">
            <mxPoint as="offset" />
          </mxGeometry>
        </mxCell>
        <mxCell id="TTTKtCmcZpUqFRQQ_doG-112" value="" style="points=[[0.145,0.145,0],[0.5,0,0],[0.855,0.145,0],[1,0.5,0],[0.855,0.855,0],[0.5,1,0],[0.145,0.855,0],[0,0.5,0]];shape=mxgraph.bpmn.event;html=1;verticalLabelPosition=bottom;labelBackgroundColor=#ffffff;verticalAlign=top;align=center;perimeter=ellipsePerimeter;outlineConnect=0;aspect=fixed;outline=catching;symbol=message;" parent="1" vertex="1">
          <mxGeometry x="-3910" y="1410" width="50" height="50" as="geometry" />
        </mxCell>
        <mxCell id="TTTKtCmcZpUqFRQQ_doG-113" style="edgeStyle=orthogonalEdgeStyle;rounded=0;orthogonalLoop=1;jettySize=auto;html=1;exitX=1;exitY=0.5;exitDx=0;exitDy=0;exitPerimeter=0;entryX=0;entryY=0.5;entryDx=0;entryDy=0;entryPerimeter=0;" parent="1" source="TTTKtCmcZpUqFRQQ_doG-89" target="TTTKtCmcZpUqFRQQ_doG-112" edge="1">
          <mxGeometry relative="1" as="geometry" />
        </mxCell>
        <mxCell id="TTTKtCmcZpUqFRQQ_doG-115" value="Receive data" style="text;html=1;align=center;verticalAlign=middle;resizable=0;points=[];autosize=1;strokeColor=none;fillColor=none;" parent="1" vertex="1">
          <mxGeometry x="-3930" y="1468" width="90" height="30" as="geometry" />
        </mxCell>
        <mxCell id="TTTKtCmcZpUqFRQQ_doG-116" value="" style="dashed=1;dashPattern=8 4;endArrow=blockThin;endFill=1;startArrow=oval;startFill=0;endSize=6;startSize=4;html=1;rounded=0;exitX=0.5;exitY=1;exitDx=0;exitDy=0;exitPerimeter=0;entryX=0.5;entryY=0;entryDx=0;entryDy=0;entryPerimeter=0;edgeStyle=orthogonalEdgeStyle;" parent="1" source="TTTKtCmcZpUqFRQQ_doG-111" target="TTTKtCmcZpUqFRQQ_doG-112" edge="1">
          <mxGeometry width="160" relative="1" as="geometry">
            <mxPoint x="-3660" y="1260" as="sourcePoint" />
            <mxPoint x="-3500" y="1260" as="targetPoint" />
          </mxGeometry>
        </mxCell>
        <mxCell id="TTTKtCmcZpUqFRQQ_doG-117" value="Data valid?" style="points=[[0.25,0,0],[0.5,0,0],[0.75,0,0],[1,0.25,0],[1,0.5,0],[1,0.75,0],[0.75,1,0],[0.5,1,0],[0.25,1,0],[0,0.75,0],[0,0.5,0],[0,0.25,0]];shape=mxgraph.bpmn.task;whiteSpace=wrap;rectStyle=rounded;size=10;html=1;container=1;expand=0;collapsible=0;taskMarker=abstract;" parent="1" vertex="1">
          <mxGeometry x="-3412.75" y="1395" width="120" height="80" as="geometry" />
        </mxCell>
        <mxCell id="TTTKtCmcZpUqFRQQ_doG-154" value="" style="points=[[0.25,0.25,0],[0.5,0,0],[0.75,0.25,0],[1,0.5,0],[0.75,0.75,0],[0.5,1,0],[0.25,0.75,0],[0,0.5,0]];shape=mxgraph.bpmn.gateway2;html=1;verticalLabelPosition=bottom;labelBackgroundColor=#ffffff;verticalAlign=top;align=center;perimeter=rhombusPerimeter;outlineConnect=0;outline=none;symbol=none;gwType=exclusive;" parent="1" vertex="1">
          <mxGeometry x="-3243.25" y="1410" width="50" height="50" as="geometry" />
        </mxCell>
        <mxCell id="TTTKtCmcZpUqFRQQ_doG-155" style="edgeStyle=orthogonalEdgeStyle;rounded=0;orthogonalLoop=1;jettySize=auto;html=1;exitX=1;exitY=0.5;exitDx=0;exitDy=0;exitPerimeter=0;entryX=0;entryY=0.5;entryDx=0;entryDy=0;entryPerimeter=0;" parent="1" source="TTTKtCmcZpUqFRQQ_doG-117" target="TTTKtCmcZpUqFRQQ_doG-154" edge="1">
          <mxGeometry relative="1" as="geometry" />
        </mxCell>
        <mxCell id="TTTKtCmcZpUqFRQQ_doG-157" value="Add user to user list" style="points=[[0.25,0,0],[0.5,0,0],[0.75,0,0],[1,0.25,0],[1,0.5,0],[1,0.75,0],[0.75,1,0],[0.5,1,0],[0.25,1,0],[0,0.75,0],[0,0.5,0],[0,0.25,0]];shape=mxgraph.bpmn.task;whiteSpace=wrap;rectStyle=rounded;size=10;html=1;container=1;expand=0;collapsible=0;taskMarker=abstract;" parent="1" vertex="1">
          <mxGeometry x="-3123.25" y="1395" width="120" height="80" as="geometry" />
        </mxCell>
        <mxCell id="TTTKtCmcZpUqFRQQ_doG-158" style="edgeStyle=orthogonalEdgeStyle;rounded=0;orthogonalLoop=1;jettySize=auto;html=1;exitX=1;exitY=0.5;exitDx=0;exitDy=0;exitPerimeter=0;entryX=0;entryY=0.5;entryDx=0;entryDy=0;entryPerimeter=0;" parent="1" source="TTTKtCmcZpUqFRQQ_doG-154" target="TTTKtCmcZpUqFRQQ_doG-157" edge="1">
          <mxGeometry relative="1" as="geometry" />
        </mxCell>
        <mxCell id="TTTKtCmcZpUqFRQQ_doG-159" value="Yes" style="edgeLabel;html=1;align=center;verticalAlign=middle;resizable=0;points=[];" parent="TTTKtCmcZpUqFRQQ_doG-158" vertex="1" connectable="0">
          <mxGeometry x="-0.164" y="-1" relative="1" as="geometry">
            <mxPoint as="offset" />
          </mxGeometry>
        </mxCell>
        <mxCell id="TTTKtCmcZpUqFRQQ_doG-160" value="" style="points=[[0.145,0.145,0],[0.5,0,0],[0.855,0.145,0],[1,0.5,0],[0.855,0.855,0],[0.5,1,0],[0.145,0.855,0],[0,0.5,0]];shape=mxgraph.bpmn.event;html=1;verticalLabelPosition=bottom;labelBackgroundColor=#ffffff;verticalAlign=top;align=center;perimeter=ellipsePerimeter;outlineConnect=0;aspect=fixed;outline=throwing;symbol=message;" parent="1" vertex="1">
          <mxGeometry x="-3243.25" y="1320" width="50" height="50" as="geometry" />
        </mxCell>
        <mxCell id="TTTKtCmcZpUqFRQQ_doG-161" style="edgeStyle=orthogonalEdgeStyle;rounded=0;orthogonalLoop=1;jettySize=auto;html=1;exitX=0.5;exitY=0;exitDx=0;exitDy=0;exitPerimeter=0;entryX=0.5;entryY=1;entryDx=0;entryDy=0;entryPerimeter=0;" parent="1" source="TTTKtCmcZpUqFRQQ_doG-154" target="TTTKtCmcZpUqFRQQ_doG-160" edge="1">
          <mxGeometry relative="1" as="geometry" />
        </mxCell>
        <mxCell id="TTTKtCmcZpUqFRQQ_doG-162" value="No" style="edgeLabel;html=1;align=center;verticalAlign=middle;resizable=0;points=[];" parent="TTTKtCmcZpUqFRQQ_doG-161" vertex="1" connectable="0">
          <mxGeometry x="-0.0746" relative="1" as="geometry">
            <mxPoint as="offset" />
          </mxGeometry>
        </mxCell>
        <mxCell id="TTTKtCmcZpUqFRQQ_doG-163" value="" style="points=[[0.145,0.145,0],[0.5,0,0],[0.855,0.145,0],[1,0.5,0],[0.855,0.855,0],[0.5,1,0],[0.145,0.855,0],[0,0.5,0]];shape=mxgraph.bpmn.event;html=1;verticalLabelPosition=bottom;labelBackgroundColor=#ffffff;verticalAlign=top;align=center;perimeter=ellipsePerimeter;outlineConnect=0;aspect=fixed;outline=catching;symbol=message;" parent="1" vertex="1">
          <mxGeometry x="-3243.25" y="1205" width="50" height="50" as="geometry" />
        </mxCell>
        <mxCell id="TTTKtCmcZpUqFRQQ_doG-165" value="" style="dashed=1;dashPattern=8 4;endArrow=blockThin;endFill=1;startArrow=oval;startFill=0;endSize=6;startSize=4;html=1;rounded=0;exitX=0.5;exitY=0;exitDx=0;exitDy=0;exitPerimeter=0;entryX=0.5;entryY=1;entryDx=0;entryDy=0;entryPerimeter=0;" parent="1" source="TTTKtCmcZpUqFRQQ_doG-160" target="TTTKtCmcZpUqFRQQ_doG-163" edge="1">
          <mxGeometry width="160" relative="1" as="geometry">
            <mxPoint x="-2955.5" y="1290" as="sourcePoint" />
            <mxPoint x="-2795.5" y="1290" as="targetPoint" />
          </mxGeometry>
        </mxCell>
        <mxCell id="TTTKtCmcZpUqFRQQ_doG-166" value="Receive data message" style="text;html=1;align=center;verticalAlign=middle;resizable=0;points=[];autosize=1;strokeColor=none;fillColor=none;" parent="1" vertex="1">
          <mxGeometry x="-3382.75" y="1175" width="150" height="30" as="geometry" />
        </mxCell>
        <mxCell id="TTTKtCmcZpUqFRQQ_doG-171" value="Delete user" style="points=[[0.25,0,0],[0.5,0,0],[0.75,0,0],[1,0.25,0],[1,0.5,0],[1,0.75,0],[0.75,1,0],[0.5,1,0],[0.25,1,0],[0,0.75,0],[0,0.5,0],[0,0.25,0]];shape=mxgraph.bpmn.task;whiteSpace=wrap;rectStyle=rounded;size=10;html=1;container=1;expand=0;collapsible=0;taskMarker=abstract;" parent="1" vertex="1">
          <mxGeometry x="-3278.25" y="1510" width="120" height="80" as="geometry" />
        </mxCell>
        <mxCell id="TTTKtCmcZpUqFRQQ_doG-177" value="" style="points=[[0.145,0.145,0],[0.5,0,0],[0.855,0.145,0],[1,0.5,0],[0.855,0.855,0],[0.5,1,0],[0.145,0.855,0],[0,0.5,0]];shape=mxgraph.bpmn.event;html=1;verticalLabelPosition=bottom;labelBackgroundColor=#ffffff;verticalAlign=top;align=center;perimeter=ellipsePerimeter;outlineConnect=0;aspect=fixed;outline=end;symbol=terminate2;" parent="1" vertex="1">
          <mxGeometry x="-2890" y="1410" width="50" height="50" as="geometry" />
        </mxCell>
        <mxCell id="TTTKtCmcZpUqFRQQ_doG-179" style="edgeStyle=orthogonalEdgeStyle;rounded=0;orthogonalLoop=1;jettySize=auto;html=1;exitX=1;exitY=0.5;exitDx=0;exitDy=0;exitPerimeter=0;entryX=0;entryY=0.5;entryDx=0;entryDy=0;entryPerimeter=0;" parent="1" source="TTTKtCmcZpUqFRQQ_doG-99" target="TTTKtCmcZpUqFRQQ_doG-176" edge="1">
          <mxGeometry relative="1" as="geometry" />
        </mxCell>
        <mxCell id="TTTKtCmcZpUqFRQQ_doG-188" value="Burger gebruikt filters op filterpagina" style="swimlane;html=1;childLayout=stackLayout;resizeParent=1;resizeParentMax=0;horizontal=0;startSize=20;horizontalStack=0;whiteSpace=wrap;" parent="1" vertex="1">
          <mxGeometry x="-80" y="-30" width="910" height="300" as="geometry" />
        </mxCell>
        <mxCell id="TTTKtCmcZpUqFRQQ_doG-190" value="Burger" style="swimlane;html=1;startSize=20;horizontal=0;" parent="TTTKtCmcZpUqFRQQ_doG-188" vertex="1">
          <mxGeometry x="20" width="890" height="170" as="geometry" />
        </mxCell>
        <mxCell id="FNvptqnKysk0QU5ZLWr6-52" value="Collapsed process: vrije plaatsen aanvragen" style="points=[[0.25,0,0],[0.5,0,0],[0.75,0,0],[1,0.25,0],[1,0.5,0],[1,0.75,0],[0.75,1,0],[0.5,1,0],[0.25,1,0],[0,0.75,0],[0,0.5,0],[0,0.25,0]];shape=mxgraph.bpmn.task;whiteSpace=wrap;rectStyle=rounded;size=10;html=1;container=1;expand=0;collapsible=0;taskMarker=abstract;isLoopSub=1;" parent="TTTKtCmcZpUqFRQQ_doG-190" vertex="1">
          <mxGeometry x="540" y="70" width="120" height="80" as="geometry" />
        </mxCell>
        <mxCell id="TTTKtCmcZpUqFRQQ_doG-15" value="Burger voert gegevens in filter in" style="points=[[0.25,0,0],[0.5,0,0],[0.75,0,0],[1,0.25,0],[1,0.5,0],[1,0.75,0],[0.75,1,0],[0.5,1,0],[0.25,1,0],[0,0.75,0],[0,0.5,0],[0,0.25,0]];shape=mxgraph.bpmn.task;whiteSpace=wrap;rectStyle=rounded;size=10;html=1;container=1;expand=0;collapsible=0;taskMarker=abstract;" parent="TTTKtCmcZpUqFRQQ_doG-190" vertex="1">
          <mxGeometry x="350" y="70" width="120" height="80" as="geometry" />
        </mxCell>
        <mxCell id="TTTKtCmcZpUqFRQQ_doG-17" style="edgeStyle=orthogonalEdgeStyle;rounded=0;orthogonalLoop=1;jettySize=auto;html=1;exitX=1;exitY=0.5;exitDx=0;exitDy=0;exitPerimeter=0;entryX=0;entryY=0.5;entryDx=0;entryDy=0;entryPerimeter=0;" parent="TTTKtCmcZpUqFRQQ_doG-190" source="TTTKtCmcZpUqFRQQ_doG-15" target="FNvptqnKysk0QU5ZLWr6-52" edge="1">
          <mxGeometry relative="1" as="geometry">
            <mxPoint x="790" y="110" as="targetPoint" />
          </mxGeometry>
        </mxCell>
        <mxCell id="T0kzh4fNjWvfRmBSbcOW-33" value="Burger zoekt organisatie met vrije plekken" style="points=[[0.25,0,0],[0.5,0,0],[0.75,0,0],[1,0.25,0],[1,0.5,0],[1,0.75,0],[0.75,1,0],[0.5,1,0],[0.25,1,0],[0,0.75,0],[0,0.5,0],[0,0.25,0]];shape=mxgraph.bpmn.task;whiteSpace=wrap;rectStyle=rounded;size=10;html=1;container=1;expand=0;collapsible=0;taskMarker=abstract;" parent="TTTKtCmcZpUqFRQQ_doG-190" vertex="1">
          <mxGeometry x="170" y="70" width="120" height="80" as="geometry" />
        </mxCell>
        <mxCell id="T0kzh4fNjWvfRmBSbcOW-48" style="edgeStyle=orthogonalEdgeStyle;rounded=0;orthogonalLoop=1;jettySize=auto;html=1;exitX=1;exitY=0.5;exitDx=0;exitDy=0;exitPerimeter=0;entryX=0;entryY=0.5;entryDx=0;entryDy=0;entryPerimeter=0;" parent="TTTKtCmcZpUqFRQQ_doG-190" source="T0kzh4fNjWvfRmBSbcOW-33" target="TTTKtCmcZpUqFRQQ_doG-15" edge="1">
          <mxGeometry relative="1" as="geometry">
            <mxPoint x="360" y="110" as="targetPoint" />
          </mxGeometry>
        </mxCell>
        <mxCell id="FNvptqnKysk0QU5ZLWr6-55" value="" style="points=[[0.145,0.145,0],[0.5,0,0],[0.855,0.145,0],[1,0.5,0],[0.855,0.855,0],[0.5,1,0],[0.145,0.855,0],[0,0.5,0]];shape=mxgraph.bpmn.event;html=1;verticalLabelPosition=bottom;labelBackgroundColor=#ffffff;verticalAlign=top;align=center;perimeter=ellipsePerimeter;outlineConnect=0;aspect=fixed;outline=end;symbol=terminate2;" parent="TTTKtCmcZpUqFRQQ_doG-190" vertex="1">
          <mxGeometry x="790" y="85" width="50" height="50" as="geometry" />
        </mxCell>
        <mxCell id="FNvptqnKysk0QU5ZLWr6-56" style="edgeStyle=orthogonalEdgeStyle;rounded=0;orthogonalLoop=1;jettySize=auto;html=1;exitX=1;exitY=0.5;exitDx=0;exitDy=0;exitPerimeter=0;entryX=0;entryY=0.5;entryDx=0;entryDy=0;entryPerimeter=0;" parent="TTTKtCmcZpUqFRQQ_doG-190" source="FNvptqnKysk0QU5ZLWr6-52" target="FNvptqnKysk0QU5ZLWr6-55" edge="1">
          <mxGeometry relative="1" as="geometry" />
        </mxCell>
        <mxCell id="TTTKtCmcZpUqFRQQ_doG-189" value="Systeem" style="swimlane;html=1;startSize=20;horizontal=0;" parent="TTTKtCmcZpUqFRQQ_doG-188" vertex="1">
          <mxGeometry x="20" y="170" width="890" height="130" as="geometry" />
        </mxCell>
        <mxCell id="T0kzh4fNjWvfRmBSbcOW-30" value="" style="points=[[0.145,0.145,0],[0.5,0,0],[0.855,0.145,0],[1,0.5,0],[0.855,0.855,0],[0.5,1,0],[0.145,0.855,0],[0,0.5,0]];shape=mxgraph.bpmn.event;html=1;verticalLabelPosition=bottom;labelBackgroundColor=#ffffff;verticalAlign=top;align=center;perimeter=ellipsePerimeter;outlineConnect=0;aspect=fixed;outline=standard;symbol=general;" parent="TTTKtCmcZpUqFRQQ_doG-189" vertex="1">
          <mxGeometry x="50" y="40" width="50" height="50" as="geometry" />
        </mxCell>
        <mxCell id="T0kzh4fNjWvfRmBSbcOW-31" style="edgeStyle=orthogonalEdgeStyle;rounded=0;orthogonalLoop=1;jettySize=auto;html=1;exitX=1;exitY=0.5;exitDx=0;exitDy=0;exitPerimeter=0;entryX=0;entryY=0.5;entryDx=0;entryDy=0;entryPerimeter=0;" parent="TTTKtCmcZpUqFRQQ_doG-189" source="T0kzh4fNjWvfRmBSbcOW-30" target="T0kzh4fNjWvfRmBSbcOW-29" edge="1">
          <mxGeometry relative="1" as="geometry" />
        </mxCell>
        <mxCell id="T0kzh4fNjWvfRmBSbcOW-29" value="" style="points=[[0.145,0.145,0],[0.5,0,0],[0.855,0.145,0],[1,0.5,0],[0.855,0.855,0],[0.5,1,0],[0.145,0.855,0],[0,0.5,0]];shape=mxgraph.bpmn.event;html=1;verticalLabelPosition=bottom;labelBackgroundColor=#ffffff;verticalAlign=top;align=center;perimeter=ellipsePerimeter;outlineConnect=0;aspect=fixed;outline=standard;symbol=timer;" parent="TTTKtCmcZpUqFRQQ_doG-189" vertex="1">
          <mxGeometry x="285" y="40" width="50" height="50" as="geometry" />
        </mxCell>
        <mxCell id="T0kzh4fNjWvfRmBSbcOW-46" value="Wacht op request" style="text;html=1;align=center;verticalAlign=middle;resizable=0;points=[];autosize=1;strokeColor=none;fillColor=none;" parent="TTTKtCmcZpUqFRQQ_doG-189" vertex="1">
          <mxGeometry x="250" y="90" width="120" height="30" as="geometry" />
        </mxCell>
        <mxCell id="FNvptqnKysk0QU5ZLWr6-53" style="edgeStyle=orthogonalEdgeStyle;rounded=0;orthogonalLoop=1;jettySize=auto;html=1;exitX=1;exitY=0.5;exitDx=0;exitDy=0;exitPerimeter=0;entryX=0.5;entryY=1;entryDx=0;entryDy=0;entryPerimeter=0;" parent="TTTKtCmcZpUqFRQQ_doG-188" source="T0kzh4fNjWvfRmBSbcOW-29" target="FNvptqnKysk0QU5ZLWr6-52" edge="1">
          <mxGeometry relative="1" as="geometry" />
        </mxCell>
        <mxCell id="TTTKtCmcZpUqFRQQ_doG-192" value="System steps" style="swimlane;html=1;childLayout=stackLayout;resizeParent=1;resizeParentMax=0;horizontal=0;startSize=20;horizontalStack=0;whiteSpace=wrap;" parent="1" vertex="1">
          <mxGeometry x="-4610" y="180" width="2525" height="550" as="geometry" />
        </mxCell>
        <mxCell id="TTTKtCmcZpUqFRQQ_doG-193" value="System" style="swimlane;html=1;startSize=20;horizontal=0;" parent="TTTKtCmcZpUqFRQQ_doG-192" vertex="1">
          <mxGeometry x="20" width="2505" height="140" as="geometry" />
        </mxCell>
        <mxCell id="TTTKtCmcZpUqFRQQ_doG-194" value="Website" style="swimlane;html=1;startSize=20;horizontal=0;" parent="TTTKtCmcZpUqFRQQ_doG-192" vertex="1">
          <mxGeometry x="20" y="140" width="2505" height="210" as="geometry" />
        </mxCell>
        <mxCell id="TTTKtCmcZpUqFRQQ_doG-42" value="Receive responsebody" style="text;html=1;align=center;verticalAlign=middle;resizable=0;points=[];autosize=1;strokeColor=none;fillColor=none;" parent="TTTKtCmcZpUqFRQQ_doG-194" vertex="1">
          <mxGeometry x="1120" y="160" width="150" height="30" as="geometry" />
        </mxCell>
        <mxCell id="RildzUuDJkumOQoC8f5M-105" value="Send data request" style="text;html=1;align=center;verticalAlign=middle;resizable=0;points=[];autosize=1;strokeColor=none;fillColor=none;" parent="TTTKtCmcZpUqFRQQ_doG-194" vertex="1">
          <mxGeometry x="715" y="165" width="120" height="30" as="geometry" />
        </mxCell>
        <mxCell id="TTTKtCmcZpUqFRQQ_doG-195" value="Organisational user" style="swimlane;html=1;startSize=20;horizontal=0;" parent="TTTKtCmcZpUqFRQQ_doG-192" vertex="1">
          <mxGeometry x="20" y="350" width="2505" height="200" as="geometry" />
        </mxCell>
        <mxCell id="XgZ62tmyJDKlW7uUZjZE-1" value="" style="points=[[0.25,0.25,0],[0.5,0,0],[0.75,0.25,0],[1,0.5,0],[0.75,0.75,0],[0.5,1,0],[0.25,0.75,0],[0,0.5,0]];shape=mxgraph.bpmn.gateway2;html=1;verticalLabelPosition=bottom;labelBackgroundColor=#ffffff;verticalAlign=top;align=center;perimeter=rhombusPerimeter;outlineConnect=0;outline=none;symbol=none;gwType=exclusive;" parent="1" vertex="1">
          <mxGeometry x="-3592.75" y="1410" width="50" height="50" as="geometry" />
        </mxCell>
        <mxCell id="XgZ62tmyJDKlW7uUZjZE-3" value="Is it a request for deletion?" style="points=[[0.25,0,0],[0.5,0,0],[0.75,0,0],[1,0.25,0],[1,0.5,0],[1,0.75,0],[0.75,1,0],[0.5,1,0],[0.25,1,0],[0,0.75,0],[0,0.5,0],[0,0.25,0]];shape=mxgraph.bpmn.task;whiteSpace=wrap;rectStyle=rounded;size=10;html=1;container=1;expand=0;collapsible=0;taskMarker=abstract;" parent="1" vertex="1">
          <mxGeometry x="-3790" y="1395" width="120" height="80" as="geometry" />
        </mxCell>
        <mxCell id="XgZ62tmyJDKlW7uUZjZE-4" style="edgeStyle=orthogonalEdgeStyle;rounded=0;orthogonalLoop=1;jettySize=auto;html=1;exitX=1;exitY=0.5;exitDx=0;exitDy=0;exitPerimeter=0;entryX=0;entryY=0.5;entryDx=0;entryDy=0;entryPerimeter=0;" parent="1" source="TTTKtCmcZpUqFRQQ_doG-112" target="XgZ62tmyJDKlW7uUZjZE-3" edge="1">
          <mxGeometry relative="1" as="geometry" />
        </mxCell>
        <mxCell id="XgZ62tmyJDKlW7uUZjZE-5" style="edgeStyle=orthogonalEdgeStyle;rounded=0;orthogonalLoop=1;jettySize=auto;html=1;exitX=1;exitY=0.5;exitDx=0;exitDy=0;exitPerimeter=0;entryX=0;entryY=0.5;entryDx=0;entryDy=0;entryPerimeter=0;" parent="1" source="XgZ62tmyJDKlW7uUZjZE-3" target="XgZ62tmyJDKlW7uUZjZE-1" edge="1">
          <mxGeometry relative="1" as="geometry" />
        </mxCell>
        <mxCell id="XgZ62tmyJDKlW7uUZjZE-6" style="edgeStyle=orthogonalEdgeStyle;rounded=0;orthogonalLoop=1;jettySize=auto;html=1;exitX=1;exitY=0.5;exitDx=0;exitDy=0;exitPerimeter=0;entryX=0;entryY=0.5;entryDx=0;entryDy=0;entryPerimeter=0;" parent="1" source="XgZ62tmyJDKlW7uUZjZE-1" target="TTTKtCmcZpUqFRQQ_doG-117" edge="1">
          <mxGeometry relative="1" as="geometry" />
        </mxCell>
        <mxCell id="XgZ62tmyJDKlW7uUZjZE-7" value="No" style="edgeLabel;html=1;align=center;verticalAlign=middle;resizable=0;points=[];" parent="XgZ62tmyJDKlW7uUZjZE-6" vertex="1" connectable="0">
          <mxGeometry x="-0.6416" y="-1" relative="1" as="geometry">
            <mxPoint x="20" y="-1" as="offset" />
          </mxGeometry>
        </mxCell>
        <mxCell id="XgZ62tmyJDKlW7uUZjZE-9" style="edgeStyle=orthogonalEdgeStyle;rounded=0;orthogonalLoop=1;jettySize=auto;html=1;exitX=0.5;exitY=1;exitDx=0;exitDy=0;exitPerimeter=0;entryX=0;entryY=0.5;entryDx=0;entryDy=0;entryPerimeter=0;" parent="1" source="XgZ62tmyJDKlW7uUZjZE-1" target="TTTKtCmcZpUqFRQQ_doG-171" edge="1">
          <mxGeometry relative="1" as="geometry" />
        </mxCell>
        <mxCell id="XgZ62tmyJDKlW7uUZjZE-15" value="Yes" style="edgeLabel;html=1;align=center;verticalAlign=middle;resizable=0;points=[];" parent="XgZ62tmyJDKlW7uUZjZE-9" vertex="1" connectable="0">
          <mxGeometry x="-0.8808" y="-1" relative="1" as="geometry">
            <mxPoint as="offset" />
          </mxGeometry>
        </mxCell>
        <mxCell id="XgZ62tmyJDKlW7uUZjZE-10" style="edgeStyle=orthogonalEdgeStyle;rounded=0;orthogonalLoop=1;jettySize=auto;html=1;exitX=1;exitY=0.5;exitDx=0;exitDy=0;exitPerimeter=0;entryX=0;entryY=0.5;entryDx=0;entryDy=0;entryPerimeter=0;" parent="1" source="TTTKtCmcZpUqFRQQ_doG-171" target="TTTKtCmcZpUqFRQQ_doG-177" edge="1">
          <mxGeometry relative="1" as="geometry">
            <Array as="points">
              <mxPoint x="-2910" y="1550" />
              <mxPoint x="-2910" y="1435" />
            </Array>
          </mxGeometry>
        </mxCell>
        <mxCell id="XgZ62tmyJDKlW7uUZjZE-16" value="Admin functionalities" style="swimlane;html=1;childLayout=stackLayout;resizeParent=1;resizeParentMax=0;horizontal=0;startSize=20;horizontalStack=0;whiteSpace=wrap;" parent="1" vertex="1">
          <mxGeometry x="-4610" y="900" width="1830" height="720" as="geometry" />
        </mxCell>
        <mxCell id="XgZ62tmyJDKlW7uUZjZE-17" value="Admin" style="swimlane;html=1;startSize=20;horizontal=0;" parent="XgZ62tmyJDKlW7uUZjZE-16" vertex="1">
          <mxGeometry x="20" width="1810" height="400" as="geometry" />
        </mxCell>
        <mxCell id="TTTKtCmcZpUqFRQQ_doG-176" value="" style="points=[[0.145,0.145,0],[0.5,0,0],[0.855,0.145,0],[1,0.5,0],[0.855,0.855,0],[0.5,1,0],[0.145,0.855,0],[0,0.5,0]];shape=mxgraph.bpmn.event;html=1;verticalLabelPosition=bottom;labelBackgroundColor=#ffffff;verticalAlign=top;align=center;perimeter=ellipsePerimeter;outlineConnect=0;aspect=fixed;outline=end;symbol=terminate2;" parent="XgZ62tmyJDKlW7uUZjZE-17" vertex="1">
          <mxGeometry x="1700" y="85" width="50" height="50" as="geometry" />
        </mxCell>
        <mxCell id="TTTKtCmcZpUqFRQQ_doG-111" value="" style="points=[[0.145,0.145,0],[0.5,0,0],[0.855,0.145,0],[1,0.5,0],[0.855,0.855,0],[0.5,1,0],[0.145,0.855,0],[0,0.5,0]];shape=mxgraph.bpmn.event;html=1;verticalLabelPosition=bottom;labelBackgroundColor=#ffffff;verticalAlign=top;align=center;perimeter=ellipsePerimeter;outlineConnect=0;aspect=fixed;outline=throwing;symbol=message;" parent="XgZ62tmyJDKlW7uUZjZE-17" vertex="1">
          <mxGeometry x="640" y="305" width="50" height="50" as="geometry" />
        </mxCell>
        <mxCell id="TTTKtCmcZpUqFRQQ_doG-114" value="Send data" style="text;html=1;align=center;verticalAlign=middle;resizable=0;points=[];autosize=1;strokeColor=none;fillColor=none;" parent="XgZ62tmyJDKlW7uUZjZE-17" vertex="1">
          <mxGeometry x="620" y="275" width="80" height="30" as="geometry" />
        </mxCell>
        <mxCell id="RildzUuDJkumOQoC8f5M-115" value="" style="points=[[0.25,0.25,0],[0.5,0,0],[0.75,0.25,0],[1,0.5,0],[0.75,0.75,0],[0.5,1,0],[0.25,0.75,0],[0,0.5,0]];shape=mxgraph.bpmn.gateway2;html=1;verticalLabelPosition=bottom;labelBackgroundColor=#ffffff;verticalAlign=top;align=center;perimeter=rhombusPerimeter;outlineConnect=0;outline=none;symbol=none;gwType=exclusive;" parent="XgZ62tmyJDKlW7uUZjZE-17" vertex="1">
          <mxGeometry x="1140" y="185" width="50" height="50" as="geometry" />
        </mxCell>
        <mxCell id="RildzUuDJkumOQoC8f5M-125" value="Data valid?" style="points=[[0.25,0,0],[0.5,0,0],[0.75,0,0],[1,0.25,0],[1,0.5,0],[1,0.75,0],[0.75,1,0],[0.5,1,0],[0.25,1,0],[0,0.75,0],[0,0.5,0],[0,0.25,0]];shape=mxgraph.bpmn.task;whiteSpace=wrap;rectStyle=rounded;size=10;html=1;container=1;expand=0;collapsible=0;taskMarker=abstract;" parent="XgZ62tmyJDKlW7uUZjZE-17" vertex="1">
          <mxGeometry x="1311.75" y="170" width="120" height="80" as="geometry" />
        </mxCell>
        <mxCell id="RildzUuDJkumOQoC8f5M-127" style="edgeStyle=orthogonalEdgeStyle;rounded=0;orthogonalLoop=1;jettySize=auto;html=1;exitX=0;exitY=0.5;exitDx=0;exitDy=0;exitPerimeter=0;entryX=1;entryY=0.5;entryDx=0;entryDy=0;entryPerimeter=0;" parent="XgZ62tmyJDKlW7uUZjZE-17" source="RildzUuDJkumOQoC8f5M-125" target="RildzUuDJkumOQoC8f5M-115" edge="1">
          <mxGeometry relative="1" as="geometry" />
        </mxCell>
        <mxCell id="RildzUuDJkumOQoC8f5M-133" style="edgeStyle=orthogonalEdgeStyle;rounded=0;orthogonalLoop=1;jettySize=auto;html=1;exitX=0.5;exitY=0;exitDx=0;exitDy=0;exitPerimeter=0;entryX=0;entryY=0.5;entryDx=0;entryDy=0;entryPerimeter=0;" parent="XgZ62tmyJDKlW7uUZjZE-17" source="RildzUuDJkumOQoC8f5M-115" target="TTTKtCmcZpUqFRQQ_doG-176" edge="1">
          <mxGeometry relative="1" as="geometry" />
        </mxCell>
        <mxCell id="RildzUuDJkumOQoC8f5M-134" value="Yes" style="edgeLabel;html=1;align=center;verticalAlign=middle;resizable=0;points=[];" parent="RildzUuDJkumOQoC8f5M-133" vertex="1" connectable="0">
          <mxGeometry x="-0.88" y="1" relative="1" as="geometry">
            <mxPoint as="offset" />
          </mxGeometry>
        </mxCell>
        <mxCell id="XgZ62tmyJDKlW7uUZjZE-20" value="System" style="swimlane;html=1;startSize=20;horizontal=0;" parent="XgZ62tmyJDKlW7uUZjZE-16" vertex="1">
          <mxGeometry x="20" y="400" width="1810" height="320" as="geometry" />
        </mxCell>
        <mxCell id="RildzUuDJkumOQoC8f5M-110" value="" style="points=[[0.145,0.145,0],[0.5,0,0],[0.855,0.145,0],[1,0.5,0],[0.855,0.855,0],[0.5,1,0],[0.145,0.855,0],[0,0.5,0]];shape=mxgraph.bpmn.event;html=1;verticalLabelPosition=bottom;labelBackgroundColor=#ffffff;verticalAlign=top;align=center;perimeter=ellipsePerimeter;outlineConnect=0;aspect=fixed;outline=throwing;symbol=message;" parent="XgZ62tmyJDKlW7uUZjZE-20" vertex="1">
          <mxGeometry x="1615" y="110" width="50" height="50" as="geometry" />
        </mxCell>
        <mxCell id="RildzUuDJkumOQoC8f5M-2" value="" style="points=[[0.145,0.145,0],[0.5,0,0],[0.855,0.145,0],[1,0.5,0],[0.855,0.855,0],[0.5,1,0],[0.145,0.855,0],[0,0.5,0]];shape=mxgraph.bpmn.event;html=1;verticalLabelPosition=bottom;labelBackgroundColor=#ffffff;verticalAlign=top;align=center;perimeter=ellipsePerimeter;outlineConnect=0;aspect=fixed;outline=standard;symbol=general;" parent="1" vertex="1">
          <mxGeometry y="-575" width="50" height="50" as="geometry" />
        </mxCell>
        <mxCell id="RildzUuDJkumOQoC8f5M-6" style="edgeStyle=orthogonalEdgeStyle;rounded=0;orthogonalLoop=1;jettySize=auto;html=1;exitX=1;exitY=0.5;exitDx=0;exitDy=0;exitPerimeter=0;entryX=0;entryY=0.5;entryDx=0;entryDy=0;entryPerimeter=0;" parent="1" source="RildzUuDJkumOQoC8f5M-2" target="RildzUuDJkumOQoC8f5M-1" edge="1">
          <mxGeometry relative="1" as="geometry" />
        </mxCell>
        <mxCell id="RildzUuDJkumOQoC8f5M-41" value="Burger zoekt vrije plaats op naam van organisatie" style="swimlane;html=1;childLayout=stackLayout;resizeParent=1;resizeParentMax=0;horizontal=0;startSize=20;horizontalStack=0;whiteSpace=wrap;" parent="1" vertex="1">
          <mxGeometry x="-70" y="-660" width="1130" height="320" as="geometry" />
        </mxCell>
        <mxCell id="RildzUuDJkumOQoC8f5M-43" value="Civilian" style="swimlane;html=1;startSize=20;horizontal=0;" parent="RildzUuDJkumOQoC8f5M-41" vertex="1">
          <mxGeometry x="20" width="1110" height="180" as="geometry" />
        </mxCell>
        <mxCell id="RildzUuDJkumOQoC8f5M-39" value="Naam invoeren in invoer" style="points=[[0.25,0,0],[0.5,0,0],[0.75,0,0],[1,0.25,0],[1,0.5,0],[1,0.75,0],[0.75,1,0],[0.5,1,0],[0.25,1,0],[0,0.75,0],[0,0.5,0],[0,0.25,0]];shape=mxgraph.bpmn.task;whiteSpace=wrap;rectStyle=rounded;size=10;html=1;container=1;expand=0;collapsible=0;taskMarker=abstract;" parent="RildzUuDJkumOQoC8f5M-43" vertex="1">
          <mxGeometry x="490" y="70" width="120" height="80" as="geometry" />
        </mxCell>
        <mxCell id="RildzUuDJkumOQoC8f5M-1" value="Burger zoekt organisatie met vrije plekken" style="points=[[0.25,0,0],[0.5,0,0],[0.75,0,0],[1,0.25,0],[1,0.5,0],[1,0.75,0],[0.75,1,0],[0.5,1,0],[0.25,1,0],[0,0.75,0],[0,0.5,0],[0,0.25,0]];shape=mxgraph.bpmn.task;whiteSpace=wrap;rectStyle=rounded;size=10;html=1;container=1;expand=0;collapsible=0;taskMarker=abstract;" parent="RildzUuDJkumOQoC8f5M-43" vertex="1">
          <mxGeometry x="140" y="70" width="120" height="80" as="geometry" />
        </mxCell>
        <mxCell id="RildzUuDJkumOQoC8f5M-102" value="Burger drukt op de knop “zoeken met naam" style="points=[[0.25,0,0],[0.5,0,0],[0.75,0,0],[1,0.25,0],[1,0.5,0],[1,0.75,0],[0.75,1,0],[0.5,1,0],[0.25,1,0],[0,0.75,0],[0,0.5,0],[0,0.25,0]];shape=mxgraph.bpmn.task;whiteSpace=wrap;rectStyle=rounded;size=10;html=1;container=1;expand=0;collapsible=0;taskMarker=abstract;" parent="RildzUuDJkumOQoC8f5M-43" vertex="1">
          <mxGeometry x="310" y="70" width="120" height="80" as="geometry" />
        </mxCell>
        <mxCell id="RildzUuDJkumOQoC8f5M-103" style="edgeStyle=orthogonalEdgeStyle;rounded=0;orthogonalLoop=1;jettySize=auto;html=1;exitX=1;exitY=0.5;exitDx=0;exitDy=0;exitPerimeter=0;entryX=0;entryY=0.5;entryDx=0;entryDy=0;entryPerimeter=0;" parent="RildzUuDJkumOQoC8f5M-43" source="RildzUuDJkumOQoC8f5M-1" target="RildzUuDJkumOQoC8f5M-102" edge="1">
          <mxGeometry relative="1" as="geometry" />
        </mxCell>
        <mxCell id="RildzUuDJkumOQoC8f5M-104" style="edgeStyle=orthogonalEdgeStyle;rounded=0;orthogonalLoop=1;jettySize=auto;html=1;exitX=1;exitY=0.5;exitDx=0;exitDy=0;exitPerimeter=0;entryX=0;entryY=0.5;entryDx=0;entryDy=0;entryPerimeter=0;" parent="RildzUuDJkumOQoC8f5M-43" source="RildzUuDJkumOQoC8f5M-102" target="RildzUuDJkumOQoC8f5M-39" edge="1">
          <mxGeometry relative="1" as="geometry" />
        </mxCell>
        <mxCell id="FNvptqnKysk0QU5ZLWr6-48" value="Collapsed process: vrije plaatsen aanvragen" style="points=[[0.25,0,0],[0.5,0,0],[0.75,0,0],[1,0.25,0],[1,0.5,0],[1,0.75,0],[0.75,1,0],[0.5,1,0],[0.25,1,0],[0,0.75,0],[0,0.5,0],[0,0.25,0]];shape=mxgraph.bpmn.task;whiteSpace=wrap;rectStyle=rounded;size=10;html=1;container=1;expand=0;collapsible=0;taskMarker=abstract;isLoopSub=1;" parent="RildzUuDJkumOQoC8f5M-43" vertex="1">
          <mxGeometry x="840" y="70" width="120" height="80" as="geometry" />
        </mxCell>
        <mxCell id="FNvptqnKysk0QU5ZLWr6-51" style="edgeStyle=orthogonalEdgeStyle;rounded=0;orthogonalLoop=1;jettySize=auto;html=1;exitX=1;exitY=0.5;exitDx=0;exitDy=0;exitPerimeter=0;entryX=0;entryY=0.5;entryDx=0;entryDy=0;entryPerimeter=0;" parent="RildzUuDJkumOQoC8f5M-43" source="FNvptqnKysk0QU5ZLWr6-48" edge="1">
          <mxGeometry relative="1" as="geometry">
            <mxPoint x="1010" y="110" as="targetPoint" />
          </mxGeometry>
        </mxCell>
        <mxCell id="dCtwgWDIyA5Cw9OGXB_i-1" value="Bij het invoeren van de naam ziet de burger organisaties met de letters die zijn getypt" style="points=[[0.25,0,0],[0.5,0,0],[0.75,0,0],[1,0.25,0],[1,0.5,0],[1,0.75,0],[0.75,1,0],[0.5,1,0],[0.25,1,0],[0,0.75,0],[0,0.5,0],[0,0.25,0]];shape=mxgraph.bpmn.task;whiteSpace=wrap;rectStyle=rounded;size=10;html=1;container=1;expand=0;collapsible=0;taskMarker=abstract;" parent="RildzUuDJkumOQoC8f5M-43" vertex="1">
          <mxGeometry x="670" y="70" width="120" height="80" as="geometry" />
        </mxCell>
        <mxCell id="dCtwgWDIyA5Cw9OGXB_i-2" style="edgeStyle=orthogonalEdgeStyle;rounded=0;orthogonalLoop=1;jettySize=auto;html=1;exitX=1;exitY=0.5;exitDx=0;exitDy=0;exitPerimeter=0;entryX=0;entryY=0.5;entryDx=0;entryDy=0;entryPerimeter=0;" parent="RildzUuDJkumOQoC8f5M-43" source="RildzUuDJkumOQoC8f5M-39" target="dCtwgWDIyA5Cw9OGXB_i-1" edge="1">
          <mxGeometry relative="1" as="geometry" />
        </mxCell>
        <mxCell id="dCtwgWDIyA5Cw9OGXB_i-3" style="edgeStyle=orthogonalEdgeStyle;rounded=0;orthogonalLoop=1;jettySize=auto;html=1;exitX=1;exitY=0.5;exitDx=0;exitDy=0;exitPerimeter=0;entryX=0;entryY=0.5;entryDx=0;entryDy=0;entryPerimeter=0;" parent="RildzUuDJkumOQoC8f5M-43" source="dCtwgWDIyA5Cw9OGXB_i-1" target="FNvptqnKysk0QU5ZLWr6-48" edge="1">
          <mxGeometry relative="1" as="geometry" />
        </mxCell>
        <mxCell id="RildzUuDJkumOQoC8f5M-42" value="System" style="swimlane;html=1;startSize=20;horizontal=0;" parent="RildzUuDJkumOQoC8f5M-41" vertex="1">
          <mxGeometry x="20" y="180" width="1110" height="140" as="geometry" />
        </mxCell>
        <mxCell id="RildzUuDJkumOQoC8f5M-3" value="" style="points=[[0.145,0.145,0],[0.5,0,0],[0.855,0.145,0],[1,0.5,0],[0.855,0.855,0],[0.5,1,0],[0.145,0.855,0],[0,0.5,0]];shape=mxgraph.bpmn.event;html=1;verticalLabelPosition=bottom;labelBackgroundColor=#ffffff;verticalAlign=top;align=center;perimeter=ellipsePerimeter;outlineConnect=0;aspect=fixed;outline=standard;symbol=general;" parent="RildzUuDJkumOQoC8f5M-42" vertex="1">
          <mxGeometry x="50" y="50" width="50" height="50" as="geometry" />
        </mxCell>
        <mxCell id="RildzUuDJkumOQoC8f5M-4" style="edgeStyle=orthogonalEdgeStyle;rounded=0;orthogonalLoop=1;jettySize=auto;html=1;exitX=1;exitY=0.5;exitDx=0;exitDy=0;exitPerimeter=0;entryX=0;entryY=0.5;entryDx=0;entryDy=0;entryPerimeter=0;" parent="RildzUuDJkumOQoC8f5M-42" source="RildzUuDJkumOQoC8f5M-3" target="RildzUuDJkumOQoC8f5M-5" edge="1">
          <mxGeometry relative="1" as="geometry" />
        </mxCell>
        <mxCell id="RildzUuDJkumOQoC8f5M-5" value="" style="points=[[0.145,0.145,0],[0.5,0,0],[0.855,0.145,0],[1,0.5,0],[0.855,0.855,0],[0.5,1,0],[0.145,0.855,0],[0,0.5,0]];shape=mxgraph.bpmn.event;html=1;verticalLabelPosition=bottom;labelBackgroundColor=#ffffff;verticalAlign=top;align=center;perimeter=ellipsePerimeter;outlineConnect=0;aspect=fixed;outline=standard;symbol=timer;" parent="RildzUuDJkumOQoC8f5M-42" vertex="1">
          <mxGeometry x="285" y="50" width="50" height="50" as="geometry" />
        </mxCell>
        <mxCell id="RildzUuDJkumOQoC8f5M-7" value="wacht op request" style="text;html=1;align=center;verticalAlign=middle;resizable=0;points=[];autosize=1;strokeColor=none;fillColor=none;" parent="RildzUuDJkumOQoC8f5M-42" vertex="1">
          <mxGeometry x="255" y="100" width="110" height="30" as="geometry" />
        </mxCell>
        <mxCell id="FNvptqnKysk0QU5ZLWr6-49" style="edgeStyle=orthogonalEdgeStyle;rounded=0;orthogonalLoop=1;jettySize=auto;html=1;exitX=1;exitY=0.5;exitDx=0;exitDy=0;exitPerimeter=0;entryX=0.5;entryY=1;entryDx=0;entryDy=0;entryPerimeter=0;" parent="RildzUuDJkumOQoC8f5M-41" source="RildzUuDJkumOQoC8f5M-5" target="FNvptqnKysk0QU5ZLWr6-48" edge="1">
          <mxGeometry relative="1" as="geometry" />
        </mxCell>
        <mxCell id="RildzUuDJkumOQoC8f5M-45" value="" style="points=[[0.145,0.145,0],[0.5,0,0],[0.855,0.145,0],[1,0.5,0],[0.855,0.855,0],[0.5,1,0],[0.145,0.855,0],[0,0.5,0]];shape=mxgraph.bpmn.event;html=1;verticalLabelPosition=bottom;labelBackgroundColor=#ffffff;verticalAlign=top;align=center;perimeter=ellipsePerimeter;outlineConnect=0;aspect=fixed;outline=standard;symbol=general;" parent="1" vertex="1">
          <mxGeometry y="-1125" width="50" height="50" as="geometry" />
        </mxCell>
        <mxCell id="RildzUuDJkumOQoC8f5M-49" style="edgeStyle=orthogonalEdgeStyle;rounded=0;orthogonalLoop=1;jettySize=auto;html=1;exitX=1;exitY=0.5;exitDx=0;exitDy=0;exitPerimeter=0;entryX=0;entryY=0.5;entryDx=0;entryDy=0;entryPerimeter=0;" parent="1" source="RildzUuDJkumOQoC8f5M-45" target="RildzUuDJkumOQoC8f5M-44" edge="1">
          <mxGeometry relative="1" as="geometry" />
        </mxCell>
        <mxCell id="RildzUuDJkumOQoC8f5M-84" value="Burger gebruikt kaart om vrije plaats te zoeken" style="swimlane;html=1;childLayout=stackLayout;resizeParent=1;resizeParentMax=0;horizontal=0;startSize=20;horizontalStack=0;whiteSpace=wrap;" parent="1" vertex="1">
          <mxGeometry x="-70" y="-1210" width="1170" height="370" as="geometry" />
        </mxCell>
        <mxCell id="RildzUuDJkumOQoC8f5M-85" value="Burger" style="swimlane;html=1;startSize=20;horizontal=0;" parent="RildzUuDJkumOQoC8f5M-84" vertex="1">
          <mxGeometry x="20" width="1150" height="180" as="geometry" />
        </mxCell>
        <mxCell id="RildzUuDJkumOQoC8f5M-44" value="Burger wil organisatie zoeken met vrije plekken" style="points=[[0.25,0,0],[0.5,0,0],[0.75,0,0],[1,0.25,0],[1,0.5,0],[1,0.75,0],[0.75,1,0],[0.5,1,0],[0.25,1,0],[0,0.75,0],[0,0.5,0],[0,0.25,0]];shape=mxgraph.bpmn.task;whiteSpace=wrap;rectStyle=rounded;size=10;html=1;container=1;expand=0;collapsible=0;taskMarker=abstract;" parent="RildzUuDJkumOQoC8f5M-85" vertex="1">
          <mxGeometry x="155" y="70" width="120" height="80" as="geometry" />
        </mxCell>
        <mxCell id="RildzUuDJkumOQoC8f5M-82" value="Burger klikt op zoeken met kaartknop" style="points=[[0.25,0,0],[0.5,0,0],[0.75,0,0],[1,0.25,0],[1,0.5,0],[1,0.75,0],[0.75,1,0],[0.5,1,0],[0.25,1,0],[0,0.75,0],[0,0.5,0],[0,0.25,0]];shape=mxgraph.bpmn.task;whiteSpace=wrap;rectStyle=rounded;size=10;html=1;container=1;expand=0;collapsible=0;taskMarker=abstract;" parent="RildzUuDJkumOQoC8f5M-85" vertex="1">
          <mxGeometry x="335" y="70" width="120" height="80" as="geometry" />
        </mxCell>
        <mxCell id="RildzUuDJkumOQoC8f5M-51" style="edgeStyle=orthogonalEdgeStyle;rounded=0;orthogonalLoop=1;jettySize=auto;html=1;exitX=1;exitY=0.5;exitDx=0;exitDy=0;exitPerimeter=0;entryX=0;entryY=0.5;entryDx=0;entryDy=0;entryPerimeter=0;" parent="RildzUuDJkumOQoC8f5M-85" source="RildzUuDJkumOQoC8f5M-44" target="RildzUuDJkumOQoC8f5M-82" edge="1">
          <mxGeometry relative="1" as="geometry">
            <mxPoint x="360" y="110" as="targetPoint" />
          </mxGeometry>
        </mxCell>
        <mxCell id="RildzUuDJkumOQoC8f5M-87" value="Burger klikt op zoeken met kaartknop" style="points=[[0.25,0,0],[0.5,0,0],[0.75,0,0],[1,0.25,0],[1,0.5,0],[1,0.75,0],[0.75,1,0],[0.5,1,0],[0.25,1,0],[0,0.75,0],[0,0.5,0],[0,0.25,0]];shape=mxgraph.bpmn.task;whiteSpace=wrap;rectStyle=rounded;size=10;html=1;container=1;expand=0;collapsible=0;taskMarker=abstract;" parent="RildzUuDJkumOQoC8f5M-85" vertex="1">
          <mxGeometry x="510" y="70" width="120" height="80" as="geometry" />
        </mxCell>
        <mxCell id="RildzUuDJkumOQoC8f5M-88" style="edgeStyle=orthogonalEdgeStyle;rounded=0;orthogonalLoop=1;jettySize=auto;html=1;exitX=1;exitY=0.5;exitDx=0;exitDy=0;exitPerimeter=0;entryX=0;entryY=0.5;entryDx=0;entryDy=0;entryPerimeter=0;" parent="RildzUuDJkumOQoC8f5M-85" source="RildzUuDJkumOQoC8f5M-82" target="RildzUuDJkumOQoC8f5M-87" edge="1">
          <mxGeometry relative="1" as="geometry" />
        </mxCell>
        <mxCell id="RildzUuDJkumOQoC8f5M-89" value="Burger klikt op POI op kaart" style="points=[[0.25,0,0],[0.5,0,0],[0.75,0,0],[1,0.25,0],[1,0.5,0],[1,0.75,0],[0.75,1,0],[0.5,1,0],[0.25,1,0],[0,0.75,0],[0,0.5,0],[0,0.25,0]];shape=mxgraph.bpmn.task;whiteSpace=wrap;rectStyle=rounded;size=10;html=1;container=1;expand=0;collapsible=0;taskMarker=abstract;" parent="RildzUuDJkumOQoC8f5M-85" vertex="1">
          <mxGeometry x="680" y="70" width="120" height="80" as="geometry" />
        </mxCell>
        <mxCell id="RildzUuDJkumOQoC8f5M-90" style="edgeStyle=orthogonalEdgeStyle;rounded=0;orthogonalLoop=1;jettySize=auto;html=1;exitX=1;exitY=0.5;exitDx=0;exitDy=0;exitPerimeter=0;entryX=0;entryY=0.5;entryDx=0;entryDy=0;entryPerimeter=0;" parent="RildzUuDJkumOQoC8f5M-85" source="RildzUuDJkumOQoC8f5M-87" target="RildzUuDJkumOQoC8f5M-89" edge="1">
          <mxGeometry relative="1" as="geometry" />
        </mxCell>
        <mxCell id="FNvptqnKysk0QU5ZLWr6-12" value="Collapsed process: vrije plaatsen aanvragen" style="points=[[0.25,0,0],[0.5,0,0],[0.75,0,0],[1,0.25,0],[1,0.5,0],[1,0.75,0],[0.75,1,0],[0.5,1,0],[0.25,1,0],[0,0.75,0],[0,0.5,0],[0,0.25,0]];shape=mxgraph.bpmn.task;whiteSpace=wrap;rectStyle=rounded;size=10;html=1;container=1;expand=0;collapsible=0;taskMarker=abstract;isLoopSub=1;" parent="RildzUuDJkumOQoC8f5M-85" vertex="1">
          <mxGeometry x="870" y="70" width="120" height="80" as="geometry" />
        </mxCell>
        <mxCell id="FNvptqnKysk0QU5ZLWr6-46" style="edgeStyle=orthogonalEdgeStyle;rounded=0;orthogonalLoop=1;jettySize=auto;html=1;exitX=1;exitY=0.5;exitDx=0;exitDy=0;exitPerimeter=0;entryX=0;entryY=0.5;entryDx=0;entryDy=0;entryPerimeter=0;" parent="RildzUuDJkumOQoC8f5M-85" source="RildzUuDJkumOQoC8f5M-89" target="FNvptqnKysk0QU5ZLWr6-12" edge="1">
          <mxGeometry relative="1" as="geometry" />
        </mxCell>
        <mxCell id="FNvptqnKysk0QU5ZLWr6-42" value="" style="points=[[0.145,0.145,0],[0.5,0,0],[0.855,0.145,0],[1,0.5,0],[0.855,0.855,0],[0.5,1,0],[0.145,0.855,0],[0,0.5,0]];shape=mxgraph.bpmn.event;html=1;verticalLabelPosition=bottom;labelBackgroundColor=#ffffff;verticalAlign=top;align=center;perimeter=ellipsePerimeter;outlineConnect=0;aspect=fixed;outline=end;symbol=terminate2;" parent="RildzUuDJkumOQoC8f5M-85" vertex="1">
          <mxGeometry x="1070" y="85" width="50" height="50" as="geometry" />
        </mxCell>
        <mxCell id="FNvptqnKysk0QU5ZLWr6-45" style="edgeStyle=orthogonalEdgeStyle;rounded=0;orthogonalLoop=1;jettySize=auto;html=1;exitX=1;exitY=0.5;exitDx=0;exitDy=0;exitPerimeter=0;entryX=0;entryY=0.5;entryDx=0;entryDy=0;entryPerimeter=0;" parent="RildzUuDJkumOQoC8f5M-85" source="FNvptqnKysk0QU5ZLWr6-12" target="FNvptqnKysk0QU5ZLWr6-42" edge="1">
          <mxGeometry relative="1" as="geometry" />
        </mxCell>
        <mxCell id="RildzUuDJkumOQoC8f5M-86" value="Systeem" style="swimlane;html=1;startSize=20;horizontal=0;" parent="RildzUuDJkumOQoC8f5M-84" vertex="1">
          <mxGeometry x="20" y="180" width="1150" height="190" as="geometry" />
        </mxCell>
        <mxCell id="RildzUuDJkumOQoC8f5M-46" value="" style="points=[[0.145,0.145,0],[0.5,0,0],[0.855,0.145,0],[1,0.5,0],[0.855,0.855,0],[0.5,1,0],[0.145,0.855,0],[0,0.5,0]];shape=mxgraph.bpmn.event;html=1;verticalLabelPosition=bottom;labelBackgroundColor=#ffffff;verticalAlign=top;align=center;perimeter=ellipsePerimeter;outlineConnect=0;aspect=fixed;outline=standard;symbol=general;" parent="RildzUuDJkumOQoC8f5M-86" vertex="1">
          <mxGeometry x="50" y="70" width="50" height="50" as="geometry" />
        </mxCell>
        <mxCell id="RildzUuDJkumOQoC8f5M-47" style="edgeStyle=orthogonalEdgeStyle;rounded=0;orthogonalLoop=1;jettySize=auto;html=1;exitX=1;exitY=0.5;exitDx=0;exitDy=0;exitPerimeter=0;entryX=0;entryY=0.5;entryDx=0;entryDy=0;entryPerimeter=0;" parent="RildzUuDJkumOQoC8f5M-86" source="RildzUuDJkumOQoC8f5M-46" target="RildzUuDJkumOQoC8f5M-48" edge="1">
          <mxGeometry relative="1" as="geometry" />
        </mxCell>
        <mxCell id="RildzUuDJkumOQoC8f5M-48" value="" style="points=[[0.145,0.145,0],[0.5,0,0],[0.855,0.145,0],[1,0.5,0],[0.855,0.855,0],[0.5,1,0],[0.145,0.855,0],[0,0.5,0]];shape=mxgraph.bpmn.event;html=1;verticalLabelPosition=bottom;labelBackgroundColor=#ffffff;verticalAlign=top;align=center;perimeter=ellipsePerimeter;outlineConnect=0;aspect=fixed;outline=standard;symbol=timer;" parent="RildzUuDJkumOQoC8f5M-86" vertex="1">
          <mxGeometry x="285" y="70" width="50" height="50" as="geometry" />
        </mxCell>
        <mxCell id="RildzUuDJkumOQoC8f5M-50" value="Wacht op request" style="text;html=1;align=center;verticalAlign=middle;resizable=0;points=[];autosize=1;strokeColor=none;fillColor=none;" parent="RildzUuDJkumOQoC8f5M-86" vertex="1">
          <mxGeometry x="250" y="120" width="120" height="30" as="geometry" />
        </mxCell>
        <mxCell id="FNvptqnKysk0QU5ZLWr6-47" style="edgeStyle=orthogonalEdgeStyle;rounded=0;orthogonalLoop=1;jettySize=auto;html=1;exitX=1;exitY=0.5;exitDx=0;exitDy=0;exitPerimeter=0;entryX=0.5;entryY=1;entryDx=0;entryDy=0;entryPerimeter=0;" parent="RildzUuDJkumOQoC8f5M-84" source="RildzUuDJkumOQoC8f5M-48" target="FNvptqnKysk0QU5ZLWr6-12" edge="1">
          <mxGeometry relative="1" as="geometry" />
        </mxCell>
        <mxCell id="RildzUuDJkumOQoC8f5M-114" style="edgeStyle=orthogonalEdgeStyle;rounded=0;orthogonalLoop=1;jettySize=auto;html=1;exitX=1;exitY=0.5;exitDx=0;exitDy=0;exitPerimeter=0;entryX=0;entryY=0.5;entryDx=0;entryDy=0;entryPerimeter=0;" parent="1" source="RildzUuDJkumOQoC8f5M-110" target="TTTKtCmcZpUqFRQQ_doG-177" edge="1">
          <mxGeometry relative="1" as="geometry" />
        </mxCell>
        <mxCell id="RildzUuDJkumOQoC8f5M-126" style="edgeStyle=orthogonalEdgeStyle;rounded=0;orthogonalLoop=1;jettySize=auto;html=1;exitX=0.5;exitY=0;exitDx=0;exitDy=0;exitPerimeter=0;entryX=0.5;entryY=1;entryDx=0;entryDy=0;entryPerimeter=0;" parent="1" source="TTTKtCmcZpUqFRQQ_doG-163" target="RildzUuDJkumOQoC8f5M-125" edge="1">
          <mxGeometry relative="1" as="geometry" />
        </mxCell>
        <mxCell id="RildzUuDJkumOQoC8f5M-128" style="edgeStyle=orthogonalEdgeStyle;rounded=0;orthogonalLoop=1;jettySize=auto;html=1;exitX=0;exitY=0.5;exitDx=0;exitDy=0;exitPerimeter=0;entryX=0.5;entryY=0;entryDx=0;entryDy=0;entryPerimeter=0;jumpStyle=arc;jumpSize=10;" parent="1" source="RildzUuDJkumOQoC8f5M-115" target="TTTKtCmcZpUqFRQQ_doG-105" edge="1">
          <mxGeometry relative="1" as="geometry" />
        </mxCell>
        <mxCell id="RildzUuDJkumOQoC8f5M-130" value="No" style="edgeLabel;html=1;align=center;verticalAlign=middle;resizable=0;points=[];" parent="RildzUuDJkumOQoC8f5M-128" vertex="1" connectable="0">
          <mxGeometry x="-0.8329" y="2" relative="1" as="geometry">
            <mxPoint as="offset" />
          </mxGeometry>
        </mxCell>
        <mxCell id="RildzUuDJkumOQoC8f5M-136" style="edgeStyle=orthogonalEdgeStyle;rounded=0;orthogonalLoop=1;jettySize=auto;html=1;exitX=1;exitY=0.5;exitDx=0;exitDy=0;exitPerimeter=0;entryX=0;entryY=0.5;entryDx=0;entryDy=0;entryPerimeter=0;" parent="1" source="TTTKtCmcZpUqFRQQ_doG-157" target="RildzUuDJkumOQoC8f5M-110" edge="1">
          <mxGeometry relative="1" as="geometry" />
        </mxCell>
        <mxCell id="RildzUuDJkumOQoC8f5M-137" style="edgeStyle=orthogonalEdgeStyle;rounded=0;orthogonalLoop=1;jettySize=auto;html=1;exitX=0.5;exitY=0;exitDx=0;exitDy=0;exitPerimeter=0;entryX=0.5;entryY=1;entryDx=0;entryDy=0;entryPerimeter=0;dashed=1;" parent="1" source="RildzUuDJkumOQoC8f5M-110" target="TTTKtCmcZpUqFRQQ_doG-163" edge="1">
          <mxGeometry relative="1" as="geometry">
            <Array as="points">
              <mxPoint x="-2950" y="1280" />
              <mxPoint x="-3218" y="1280" />
            </Array>
          </mxGeometry>
        </mxCell>
        <mxCell id="RildzUuDJkumOQoC8f5M-138" style="edgeStyle=orthogonalEdgeStyle;rounded=0;orthogonalLoop=1;jettySize=auto;html=1;exitX=0.5;exitY=1;exitDx=0;exitDy=0;exitPerimeter=0;entryX=0.5;entryY=0;entryDx=0;entryDy=0;entryPerimeter=0;dashed=1;" parent="1" source="TTTKtCmcZpUqFRQQ_doG-99" target="TTTKtCmcZpUqFRQQ_doG-112" edge="1">
          <mxGeometry relative="1" as="geometry" />
        </mxCell>
        <mxCell id="RildzUuDJkumOQoC8f5M-139" value="Send invalid data message" style="text;html=1;align=center;verticalAlign=middle;resizable=0;points=[];autosize=1;strokeColor=none;fillColor=none;" parent="1" vertex="1">
          <mxGeometry x="-3405" y="1328" width="170" height="30" as="geometry" />
        </mxCell>
        <mxCell id="RildzUuDJkumOQoC8f5M-140" value="Send valid data message" style="text;html=1;align=center;verticalAlign=middle;resizable=0;points=[];autosize=1;strokeColor=none;fillColor=none;" parent="1" vertex="1">
          <mxGeometry x="-3060" y="1468" width="160" height="30" as="geometry" />
        </mxCell>
        <mxCell id="DpX5dkBdOnD933k4NeAe-161" value="" style="points=[[0.145,0.145,0],[0.5,0,0],[0.855,0.145,0],[1,0.5,0],[0.855,0.855,0],[0.5,1,0],[0.145,0.855,0],[0,0.5,0]];shape=mxgraph.bpmn.event;html=1;verticalLabelPosition=bottom;labelBackgroundColor=#ffffff;verticalAlign=top;align=center;perimeter=ellipsePerimeter;outlineConnect=0;aspect=fixed;outline=standard;symbol=general;" parent="1" vertex="1">
          <mxGeometry x="-4380" y="-565" width="50" height="50" as="geometry" />
        </mxCell>
        <mxCell id="DpX5dkBdOnD933k4NeAe-198" value="Internal admin makes new filter" style="swimlane;html=1;childLayout=stackLayout;resizeParent=1;resizeParentMax=0;horizontal=0;startSize=20;horizontalStack=0;whiteSpace=wrap;" parent="1" vertex="1">
          <mxGeometry x="-4450" y="-650" width="2030" height="430" as="geometry" />
        </mxCell>
        <mxCell id="DpX5dkBdOnD933k4NeAe-199" value="Superadmin" style="swimlane;html=1;startSize=20;horizontal=0;" parent="DpX5dkBdOnD933k4NeAe-198" vertex="1">
          <mxGeometry x="20" width="2010" height="260" as="geometry" />
        </mxCell>
        <mxCell id="DpX5dkBdOnD933k4NeAe-208" value="User wants to make filter" style="points=[[0.25,0,0],[0.5,0,0],[0.75,0,0],[1,0.25,0],[1,0.5,0],[1,0.75,0],[0.75,1,0],[0.5,1,0],[0.25,1,0],[0,0.75,0],[0,0.5,0],[0,0.25,0]];shape=mxgraph.bpmn.task;whiteSpace=wrap;rectStyle=rounded;size=10;html=1;container=1;expand=0;collapsible=0;taskMarker=abstract;" parent="DpX5dkBdOnD933k4NeAe-199" vertex="1">
          <mxGeometry x="210" y="70" width="120" height="80" as="geometry" />
        </mxCell>
        <mxCell id="DpX5dkBdOnD933k4NeAe-209" value="User clicks on the &quot;add filter&quot; button" style="points=[[0.25,0,0],[0.5,0,0],[0.75,0,0],[1,0.25,0],[1,0.5,0],[1,0.75,0],[0.75,1,0],[0.5,1,0],[0.25,1,0],[0,0.75,0],[0,0.5,0],[0,0.25,0]];shape=mxgraph.bpmn.task;whiteSpace=wrap;rectStyle=rounded;size=10;html=1;container=1;expand=0;collapsible=0;taskMarker=abstract;" parent="DpX5dkBdOnD933k4NeAe-199" vertex="1">
          <mxGeometry x="390" y="70" width="120" height="80" as="geometry" />
        </mxCell>
        <mxCell id="DpX5dkBdOnD933k4NeAe-210" style="edgeStyle=orthogonalEdgeStyle;rounded=0;orthogonalLoop=1;jettySize=auto;html=1;exitX=1;exitY=0.5;exitDx=0;exitDy=0;exitPerimeter=0;entryX=0;entryY=0.5;entryDx=0;entryDy=0;entryPerimeter=0;" parent="DpX5dkBdOnD933k4NeAe-199" source="DpX5dkBdOnD933k4NeAe-208" target="DpX5dkBdOnD933k4NeAe-209" edge="1">
          <mxGeometry relative="1" as="geometry">
            <mxPoint x="415" y="110" as="targetPoint" />
          </mxGeometry>
        </mxCell>
        <mxCell id="DpX5dkBdOnD933k4NeAe-211" value="User is forwardes to the &quot;add filter page&quot;" style="points=[[0.25,0,0],[0.5,0,0],[0.75,0,0],[1,0.25,0],[1,0.5,0],[1,0.75,0],[0.75,1,0],[0.5,1,0],[0.25,1,0],[0,0.75,0],[0,0.5,0],[0,0.25,0]];shape=mxgraph.bpmn.task;whiteSpace=wrap;rectStyle=rounded;size=10;html=1;container=1;expand=0;collapsible=0;taskMarker=abstract;" parent="DpX5dkBdOnD933k4NeAe-199" vertex="1">
          <mxGeometry x="565" y="70" width="120" height="80" as="geometry" />
        </mxCell>
        <mxCell id="DpX5dkBdOnD933k4NeAe-212" style="edgeStyle=orthogonalEdgeStyle;rounded=0;orthogonalLoop=1;jettySize=auto;html=1;exitX=1;exitY=0.5;exitDx=0;exitDy=0;exitPerimeter=0;entryX=0;entryY=0.5;entryDx=0;entryDy=0;entryPerimeter=0;" parent="DpX5dkBdOnD933k4NeAe-199" source="DpX5dkBdOnD933k4NeAe-209" target="DpX5dkBdOnD933k4NeAe-211" edge="1">
          <mxGeometry relative="1" as="geometry" />
        </mxCell>
        <mxCell id="DpX5dkBdOnD933k4NeAe-213" value="User names the filter" style="points=[[0.25,0,0],[0.5,0,0],[0.75,0,0],[1,0.25,0],[1,0.5,0],[1,0.75,0],[0.75,1,0],[0.5,1,0],[0.25,1,0],[0,0.75,0],[0,0.5,0],[0,0.25,0]];shape=mxgraph.bpmn.task;whiteSpace=wrap;rectStyle=rounded;size=10;html=1;container=1;expand=0;collapsible=0;taskMarker=abstract;" parent="DpX5dkBdOnD933k4NeAe-199" vertex="1">
          <mxGeometry x="735" y="70" width="120" height="80" as="geometry" />
        </mxCell>
        <mxCell id="DpX5dkBdOnD933k4NeAe-214" style="edgeStyle=orthogonalEdgeStyle;rounded=0;orthogonalLoop=1;jettySize=auto;html=1;exitX=1;exitY=0.5;exitDx=0;exitDy=0;exitPerimeter=0;entryX=0;entryY=0.5;entryDx=0;entryDy=0;entryPerimeter=0;" parent="DpX5dkBdOnD933k4NeAe-199" source="DpX5dkBdOnD933k4NeAe-211" target="DpX5dkBdOnD933k4NeAe-213" edge="1">
          <mxGeometry relative="1" as="geometry" />
        </mxCell>
        <mxCell id="DpX5dkBdOnD933k4NeAe-215" value="User Selects the filter options" style="points=[[0.25,0,0],[0.5,0,0],[0.75,0,0],[1,0.25,0],[1,0.5,0],[1,0.75,0],[0.75,1,0],[0.5,1,0],[0.25,1,0],[0,0.75,0],[0,0.5,0],[0,0.25,0]];shape=mxgraph.bpmn.task;whiteSpace=wrap;rectStyle=rounded;size=10;html=1;container=1;expand=0;collapsible=0;taskMarker=abstract;" parent="DpX5dkBdOnD933k4NeAe-199" vertex="1">
          <mxGeometry x="925" y="70" width="120" height="80" as="geometry" />
        </mxCell>
        <mxCell id="DpX5dkBdOnD933k4NeAe-216" style="edgeStyle=orthogonalEdgeStyle;rounded=0;orthogonalLoop=1;jettySize=auto;html=1;exitX=1;exitY=0.5;exitDx=0;exitDy=0;exitPerimeter=0;entryX=0;entryY=0.5;entryDx=0;entryDy=0;entryPerimeter=0;" parent="DpX5dkBdOnD933k4NeAe-199" source="DpX5dkBdOnD933k4NeAe-213" target="DpX5dkBdOnD933k4NeAe-215" edge="1">
          <mxGeometry relative="1" as="geometry" />
        </mxCell>
        <mxCell id="DpX5dkBdOnD933k4NeAe-218" value="User presses the add filter button" style="points=[[0.25,0,0],[0.5,0,0],[0.75,0,0],[1,0.25,0],[1,0.5,0],[1,0.75,0],[0.75,1,0],[0.5,1,0],[0.25,1,0],[0,0.75,0],[0,0.5,0],[0,0.25,0]];shape=mxgraph.bpmn.task;whiteSpace=wrap;rectStyle=rounded;size=10;html=1;container=1;expand=0;collapsible=0;taskMarker=abstract;" parent="DpX5dkBdOnD933k4NeAe-199" vertex="1">
          <mxGeometry x="1130" y="70" width="120" height="80" as="geometry" />
        </mxCell>
        <mxCell id="DpX5dkBdOnD933k4NeAe-219" style="edgeStyle=orthogonalEdgeStyle;rounded=0;orthogonalLoop=1;jettySize=auto;html=1;exitX=1;exitY=0.5;exitDx=0;exitDy=0;exitPerimeter=0;entryX=0;entryY=0.5;entryDx=0;entryDy=0;entryPerimeter=0;" parent="DpX5dkBdOnD933k4NeAe-199" source="DpX5dkBdOnD933k4NeAe-215" target="DpX5dkBdOnD933k4NeAe-218" edge="1">
          <mxGeometry relative="1" as="geometry" />
        </mxCell>
        <mxCell id="DpX5dkBdOnD933k4NeAe-194" value="" style="points=[[0.145,0.145,0],[0.5,0,0],[0.855,0.145,0],[1,0.5,0],[0.855,0.855,0],[0.5,1,0],[0.145,0.855,0],[0,0.5,0]];shape=mxgraph.bpmn.event;html=1;verticalLabelPosition=bottom;labelBackgroundColor=#ffffff;verticalAlign=top;align=center;perimeter=ellipsePerimeter;outlineConnect=0;aspect=fixed;outline=end;symbol=terminate2;" parent="DpX5dkBdOnD933k4NeAe-199" vertex="1">
          <mxGeometry x="1930" y="85" width="50" height="50" as="geometry" />
        </mxCell>
        <mxCell id="DpX5dkBdOnD933k4NeAe-220" value="" style="points=[[0.145,0.145,0],[0.5,0,0],[0.855,0.145,0],[1,0.5,0],[0.855,0.855,0],[0.5,1,0],[0.145,0.855,0],[0,0.5,0]];shape=mxgraph.bpmn.event;html=1;verticalLabelPosition=bottom;labelBackgroundColor=#ffffff;verticalAlign=top;align=center;perimeter=ellipsePerimeter;outlineConnect=0;aspect=fixed;outline=throwing;symbol=message;" parent="DpX5dkBdOnD933k4NeAe-199" vertex="1">
          <mxGeometry x="1340" y="85" width="50" height="50" as="geometry" />
        </mxCell>
        <mxCell id="DpX5dkBdOnD933k4NeAe-221" style="edgeStyle=orthogonalEdgeStyle;rounded=0;orthogonalLoop=1;jettySize=auto;html=1;exitX=1;exitY=0.5;exitDx=0;exitDy=0;exitPerimeter=0;entryX=0;entryY=0.5;entryDx=0;entryDy=0;entryPerimeter=0;" parent="DpX5dkBdOnD933k4NeAe-199" source="DpX5dkBdOnD933k4NeAe-218" target="DpX5dkBdOnD933k4NeAe-220" edge="1">
          <mxGeometry relative="1" as="geometry" />
        </mxCell>
        <mxCell id="DpX5dkBdOnD933k4NeAe-224" value="Send filter information" style="text;html=1;align=center;verticalAlign=middle;resizable=0;points=[];autosize=1;strokeColor=none;fillColor=none;" parent="DpX5dkBdOnD933k4NeAe-199" vertex="1">
          <mxGeometry x="1295" y="55" width="140" height="30" as="geometry" />
        </mxCell>
        <mxCell id="DpX5dkBdOnD933k4NeAe-235" value="" style="points=[[0.145,0.145,0],[0.5,0,0],[0.855,0.145,0],[1,0.5,0],[0.855,0.855,0],[0.5,1,0],[0.145,0.855,0],[0,0.5,0]];shape=mxgraph.bpmn.event;html=1;verticalLabelPosition=bottom;labelBackgroundColor=#ffffff;verticalAlign=top;align=center;perimeter=ellipsePerimeter;outlineConnect=0;aspect=fixed;outline=standard;symbol=timer;" parent="DpX5dkBdOnD933k4NeAe-199" vertex="1">
          <mxGeometry x="1520" y="85" width="50" height="50" as="geometry" />
        </mxCell>
        <mxCell id="DpX5dkBdOnD933k4NeAe-236" style="edgeStyle=orthogonalEdgeStyle;rounded=0;orthogonalLoop=1;jettySize=auto;html=1;exitX=1;exitY=0.5;exitDx=0;exitDy=0;exitPerimeter=0;entryX=0;entryY=0.5;entryDx=0;entryDy=0;entryPerimeter=0;" parent="DpX5dkBdOnD933k4NeAe-199" source="DpX5dkBdOnD933k4NeAe-220" target="DpX5dkBdOnD933k4NeAe-235" edge="1">
          <mxGeometry relative="1" as="geometry" />
        </mxCell>
        <mxCell id="DpX5dkBdOnD933k4NeAe-241" value="" style="points=[[0.145,0.145,0],[0.5,0,0],[0.855,0.145,0],[1,0.5,0],[0.855,0.855,0],[0.5,1,0],[0.145,0.855,0],[0,0.5,0]];shape=mxgraph.bpmn.event;html=1;verticalLabelPosition=bottom;labelBackgroundColor=#ffffff;verticalAlign=top;align=center;perimeter=ellipsePerimeter;outlineConnect=0;aspect=fixed;outline=catching;symbol=message;" parent="DpX5dkBdOnD933k4NeAe-199" vertex="1">
          <mxGeometry x="1710" y="85" width="50" height="50" as="geometry" />
        </mxCell>
        <mxCell id="DpX5dkBdOnD933k4NeAe-242" style="edgeStyle=orthogonalEdgeStyle;rounded=0;orthogonalLoop=1;jettySize=auto;html=1;exitX=1;exitY=0.5;exitDx=0;exitDy=0;exitPerimeter=0;entryX=0;entryY=0.5;entryDx=0;entryDy=0;entryPerimeter=0;" parent="DpX5dkBdOnD933k4NeAe-199" source="DpX5dkBdOnD933k4NeAe-235" target="DpX5dkBdOnD933k4NeAe-241" edge="1">
          <mxGeometry relative="1" as="geometry" />
        </mxCell>
        <mxCell id="DpX5dkBdOnD933k4NeAe-243" value="Receive affirmation" style="text;html=1;align=center;verticalAlign=middle;resizable=0;points=[];autosize=1;strokeColor=none;fillColor=none;" parent="DpX5dkBdOnD933k4NeAe-199" vertex="1">
          <mxGeometry x="1670" y="55" width="130" height="30" as="geometry" />
        </mxCell>
        <mxCell id="DpX5dkBdOnD933k4NeAe-244" style="edgeStyle=orthogonalEdgeStyle;rounded=0;orthogonalLoop=1;jettySize=auto;html=1;exitX=1;exitY=0.5;exitDx=0;exitDy=0;exitPerimeter=0;entryX=0;entryY=0.5;entryDx=0;entryDy=0;entryPerimeter=0;" parent="DpX5dkBdOnD933k4NeAe-199" source="DpX5dkBdOnD933k4NeAe-241" target="DpX5dkBdOnD933k4NeAe-194" edge="1">
          <mxGeometry relative="1" as="geometry" />
        </mxCell>
        <mxCell id="DpX5dkBdOnD933k4NeAe-246" value="Wait for affirmation" style="text;html=1;align=center;verticalAlign=middle;resizable=0;points=[];autosize=1;strokeColor=none;fillColor=none;" parent="DpX5dkBdOnD933k4NeAe-199" vertex="1">
          <mxGeometry x="1485" y="55" width="120" height="30" as="geometry" />
        </mxCell>
        <mxCell id="DpX5dkBdOnD933k4NeAe-205" value="System" style="swimlane;html=1;startSize=20;horizontal=0;" parent="DpX5dkBdOnD933k4NeAe-198" vertex="1">
          <mxGeometry x="20" y="260" width="2010" height="170" as="geometry" />
        </mxCell>
        <mxCell id="DpX5dkBdOnD933k4NeAe-193" value="" style="points=[[0.145,0.145,0],[0.5,0,0],[0.855,0.145,0],[1,0.5,0],[0.855,0.855,0],[0.5,1,0],[0.145,0.855,0],[0,0.5,0]];shape=mxgraph.bpmn.event;html=1;verticalLabelPosition=bottom;labelBackgroundColor=#ffffff;verticalAlign=top;align=center;perimeter=ellipsePerimeter;outlineConnect=0;aspect=fixed;outline=end;symbol=terminate2;" parent="DpX5dkBdOnD933k4NeAe-205" vertex="1">
          <mxGeometry x="1940" y="40" width="50" height="50" as="geometry" />
        </mxCell>
        <mxCell id="DpX5dkBdOnD933k4NeAe-222" value="" style="points=[[0.145,0.145,0],[0.5,0,0],[0.855,0.145,0],[1,0.5,0],[0.855,0.855,0],[0.5,1,0],[0.145,0.855,0],[0,0.5,0]];shape=mxgraph.bpmn.event;html=1;verticalLabelPosition=bottom;labelBackgroundColor=#ffffff;verticalAlign=top;align=center;perimeter=ellipsePerimeter;outlineConnect=0;aspect=fixed;outline=catching;symbol=message;" parent="DpX5dkBdOnD933k4NeAe-205" vertex="1">
          <mxGeometry x="1340" y="40" width="50" height="50" as="geometry" />
        </mxCell>
        <mxCell id="DpX5dkBdOnD933k4NeAe-225" value="Receive filter information" style="text;html=1;align=center;verticalAlign=middle;resizable=0;points=[];autosize=1;strokeColor=none;fillColor=none;" parent="DpX5dkBdOnD933k4NeAe-205" vertex="1">
          <mxGeometry x="1290" y="98" width="160" height="30" as="geometry" />
        </mxCell>
        <mxCell id="DpX5dkBdOnD933k4NeAe-227" value="Add filter to list of filters and as an option to add to free places" style="points=[[0.25,0,0],[0.5,0,0],[0.75,0,0],[1,0.25,0],[1,0.5,0],[1,0.75,0],[0.75,1,0],[0.5,1,0],[0.25,1,0],[0,0.75,0],[0,0.5,0],[0,0.25,0]];shape=mxgraph.bpmn.task;whiteSpace=wrap;rectStyle=rounded;size=10;html=1;container=1;expand=0;collapsible=0;taskMarker=abstract;" parent="DpX5dkBdOnD933k4NeAe-205" vertex="1">
          <mxGeometry x="1480" y="25" width="120" height="80" as="geometry" />
        </mxCell>
        <mxCell id="DpX5dkBdOnD933k4NeAe-228" style="edgeStyle=orthogonalEdgeStyle;rounded=0;orthogonalLoop=1;jettySize=auto;html=1;exitX=1;exitY=0.5;exitDx=0;exitDy=0;exitPerimeter=0;entryX=0;entryY=0.5;entryDx=0;entryDy=0;entryPerimeter=0;" parent="DpX5dkBdOnD933k4NeAe-205" source="DpX5dkBdOnD933k4NeAe-222" target="DpX5dkBdOnD933k4NeAe-227" edge="1">
          <mxGeometry relative="1" as="geometry" />
        </mxCell>
        <mxCell id="DpX5dkBdOnD933k4NeAe-162" value="" style="points=[[0.145,0.145,0],[0.5,0,0],[0.855,0.145,0],[1,0.5,0],[0.855,0.855,0],[0.5,1,0],[0.145,0.855,0],[0,0.5,0]];shape=mxgraph.bpmn.event;html=1;verticalLabelPosition=bottom;labelBackgroundColor=#ffffff;verticalAlign=top;align=center;perimeter=ellipsePerimeter;outlineConnect=0;aspect=fixed;outline=standard;symbol=general;" parent="DpX5dkBdOnD933k4NeAe-205" vertex="1">
          <mxGeometry x="50" y="40" width="50" height="50" as="geometry" />
        </mxCell>
        <mxCell id="DpX5dkBdOnD933k4NeAe-163" style="edgeStyle=orthogonalEdgeStyle;rounded=0;orthogonalLoop=1;jettySize=auto;html=1;exitX=1;exitY=0.5;exitDx=0;exitDy=0;exitPerimeter=0;entryX=0;entryY=0.5;entryDx=0;entryDy=0;entryPerimeter=0;" parent="DpX5dkBdOnD933k4NeAe-205" source="DpX5dkBdOnD933k4NeAe-162" target="DpX5dkBdOnD933k4NeAe-164" edge="1">
          <mxGeometry relative="1" as="geometry" />
        </mxCell>
        <mxCell id="DpX5dkBdOnD933k4NeAe-164" value="" style="points=[[0.145,0.145,0],[0.5,0,0],[0.855,0.145,0],[1,0.5,0],[0.855,0.855,0],[0.5,1,0],[0.145,0.855,0],[0,0.5,0]];shape=mxgraph.bpmn.event;html=1;verticalLabelPosition=bottom;labelBackgroundColor=#ffffff;verticalAlign=top;align=center;perimeter=ellipsePerimeter;outlineConnect=0;aspect=fixed;outline=standard;symbol=timer;" parent="DpX5dkBdOnD933k4NeAe-205" vertex="1">
          <mxGeometry x="285" y="40" width="50" height="50" as="geometry" />
        </mxCell>
        <mxCell id="DpX5dkBdOnD933k4NeAe-166" value="Wait for request" style="text;html=1;align=center;verticalAlign=middle;resizable=0;points=[];autosize=1;strokeColor=none;fillColor=none;" parent="DpX5dkBdOnD933k4NeAe-205" vertex="1">
          <mxGeometry x="255" y="90" width="110" height="30" as="geometry" />
        </mxCell>
        <mxCell id="DpX5dkBdOnD933k4NeAe-226" style="edgeStyle=orthogonalEdgeStyle;rounded=0;orthogonalLoop=1;jettySize=auto;html=1;exitX=1;exitY=0.5;exitDx=0;exitDy=0;exitPerimeter=0;entryX=0;entryY=0.5;entryDx=0;entryDy=0;entryPerimeter=0;" parent="DpX5dkBdOnD933k4NeAe-205" source="DpX5dkBdOnD933k4NeAe-164" target="DpX5dkBdOnD933k4NeAe-222" edge="1">
          <mxGeometry relative="1" as="geometry" />
        </mxCell>
        <mxCell id="DpX5dkBdOnD933k4NeAe-237" value="" style="points=[[0.145,0.145,0],[0.5,0,0],[0.855,0.145,0],[1,0.5,0],[0.855,0.855,0],[0.5,1,0],[0.145,0.855,0],[0,0.5,0]];shape=mxgraph.bpmn.event;html=1;verticalLabelPosition=bottom;labelBackgroundColor=#ffffff;verticalAlign=top;align=center;perimeter=ellipsePerimeter;outlineConnect=0;aspect=fixed;outline=throwing;symbol=message;" parent="DpX5dkBdOnD933k4NeAe-205" vertex="1">
          <mxGeometry x="1710" y="40" width="50" height="50" as="geometry" />
        </mxCell>
        <mxCell id="DpX5dkBdOnD933k4NeAe-238" value="Send affirmation that the filter is made" style="text;html=1;align=center;verticalAlign=middle;resizable=0;points=[];autosize=1;strokeColor=none;fillColor=none;" parent="DpX5dkBdOnD933k4NeAe-205" vertex="1">
          <mxGeometry x="1620" y="90" width="230" height="30" as="geometry" />
        </mxCell>
        <mxCell id="DpX5dkBdOnD933k4NeAe-240" style="edgeStyle=orthogonalEdgeStyle;rounded=0;orthogonalLoop=1;jettySize=auto;html=1;exitX=1;exitY=0.5;exitDx=0;exitDy=0;exitPerimeter=0;entryX=0;entryY=0.5;entryDx=0;entryDy=0;entryPerimeter=0;" parent="DpX5dkBdOnD933k4NeAe-205" source="DpX5dkBdOnD933k4NeAe-227" target="DpX5dkBdOnD933k4NeAe-237" edge="1">
          <mxGeometry relative="1" as="geometry" />
        </mxCell>
        <mxCell id="DpX5dkBdOnD933k4NeAe-245" style="edgeStyle=orthogonalEdgeStyle;rounded=0;orthogonalLoop=1;jettySize=auto;html=1;exitX=1;exitY=0.5;exitDx=0;exitDy=0;exitPerimeter=0;entryX=0;entryY=0.5;entryDx=0;entryDy=0;entryPerimeter=0;" parent="DpX5dkBdOnD933k4NeAe-205" source="DpX5dkBdOnD933k4NeAe-237" target="DpX5dkBdOnD933k4NeAe-193" edge="1">
          <mxGeometry relative="1" as="geometry" />
        </mxCell>
        <mxCell id="DpX5dkBdOnD933k4NeAe-223" value="" style="dashed=1;dashPattern=8 4;endArrow=blockThin;endFill=1;startArrow=oval;startFill=0;endSize=6;startSize=4;html=1;rounded=0;exitX=0.5;exitY=1;exitDx=0;exitDy=0;exitPerimeter=0;entryX=0.5;entryY=0;entryDx=0;entryDy=0;entryPerimeter=0;" parent="DpX5dkBdOnD933k4NeAe-198" source="DpX5dkBdOnD933k4NeAe-220" target="DpX5dkBdOnD933k4NeAe-222" edge="1">
          <mxGeometry width="160" relative="1" as="geometry">
            <mxPoint x="1160" y="240" as="sourcePoint" />
            <mxPoint x="1320" y="240" as="targetPoint" />
          </mxGeometry>
        </mxCell>
        <mxCell id="DpX5dkBdOnD933k4NeAe-217" style="edgeStyle=orthogonalEdgeStyle;rounded=0;orthogonalLoop=1;jettySize=auto;html=1;exitX=1;exitY=0.5;exitDx=0;exitDy=0;exitPerimeter=0;entryX=0;entryY=0.5;entryDx=0;entryDy=0;entryPerimeter=0;" parent="1" source="DpX5dkBdOnD933k4NeAe-161" target="DpX5dkBdOnD933k4NeAe-208" edge="1">
          <mxGeometry relative="1" as="geometry" />
        </mxCell>
        <mxCell id="DpX5dkBdOnD933k4NeAe-248" value="Change rights" style="swimlane;html=1;childLayout=stackLayout;resizeParent=1;resizeParentMax=0;horizontal=0;startSize=20;horizontalStack=0;whiteSpace=wrap;" parent="1" vertex="1">
          <mxGeometry x="-4442.75" y="-1460" width="2390" height="510" as="geometry" />
        </mxCell>
        <mxCell id="DpX5dkBdOnD933k4NeAe-249" value="Superadmin" style="swimlane;html=1;startSize=20;horizontal=0;" parent="DpX5dkBdOnD933k4NeAe-248" vertex="1">
          <mxGeometry x="20" width="2370" height="340" as="geometry" />
        </mxCell>
        <mxCell id="DpX5dkBdOnD933k4NeAe-247" value="" style="points=[[0.145,0.145,0],[0.5,0,0],[0.855,0.145,0],[1,0.5,0],[0.855,0.855,0],[0.5,1,0],[0.145,0.855,0],[0,0.5,0]];shape=mxgraph.bpmn.event;html=1;verticalLabelPosition=bottom;labelBackgroundColor=#ffffff;verticalAlign=top;align=center;perimeter=ellipsePerimeter;outlineConnect=0;aspect=fixed;outline=standard;symbol=general;" parent="DpX5dkBdOnD933k4NeAe-249" vertex="1">
          <mxGeometry x="42.75" y="215" width="50" height="50" as="geometry" />
        </mxCell>
        <mxCell id="DpX5dkBdOnD933k4NeAe-250" value="User wants to change the rights of a location" style="points=[[0.25,0,0],[0.5,0,0],[0.75,0,0],[1,0.25,0],[1,0.5,0],[1,0.75,0],[0.75,1,0],[0.5,1,0],[0.25,1,0],[0,0.75,0],[0,0.5,0],[0,0.25,0]];shape=mxgraph.bpmn.task;whiteSpace=wrap;rectStyle=rounded;size=10;html=1;container=1;expand=0;collapsible=0;taskMarker=abstract;" parent="DpX5dkBdOnD933k4NeAe-249" vertex="1">
          <mxGeometry x="190" y="200" width="120" height="80" as="geometry" />
        </mxCell>
        <mxCell id="DpX5dkBdOnD933k4NeAe-251" value="User clicks on the &quot;Edit rights&quot; button" style="points=[[0.25,0,0],[0.5,0,0],[0.75,0,0],[1,0.25,0],[1,0.5,0],[1,0.75,0],[0.75,1,0],[0.5,1,0],[0.25,1,0],[0,0.75,0],[0,0.5,0],[0,0.25,0]];shape=mxgraph.bpmn.task;whiteSpace=wrap;rectStyle=rounded;size=10;html=1;container=1;expand=0;collapsible=0;taskMarker=abstract;" parent="DpX5dkBdOnD933k4NeAe-249" vertex="1">
          <mxGeometry x="380" y="200" width="120" height="80" as="geometry" />
        </mxCell>
        <mxCell id="DpX5dkBdOnD933k4NeAe-252" style="edgeStyle=orthogonalEdgeStyle;rounded=0;orthogonalLoop=1;jettySize=auto;html=1;exitX=1;exitY=0.5;exitDx=0;exitDy=0;exitPerimeter=0;entryX=0;entryY=0.5;entryDx=0;entryDy=0;entryPerimeter=0;" parent="DpX5dkBdOnD933k4NeAe-249" source="DpX5dkBdOnD933k4NeAe-250" target="DpX5dkBdOnD933k4NeAe-251" edge="1">
          <mxGeometry relative="1" as="geometry">
            <mxPoint x="405" y="240" as="targetPoint" />
          </mxGeometry>
        </mxCell>
        <mxCell id="DpX5dkBdOnD933k4NeAe-253" value="User is forwardes to the &quot;Edit rights&quot; page" style="points=[[0.25,0,0],[0.5,0,0],[0.75,0,0],[1,0.25,0],[1,0.5,0],[1,0.75,0],[0.75,1,0],[0.5,1,0],[0.25,1,0],[0,0.75,0],[0,0.5,0],[0,0.25,0]];shape=mxgraph.bpmn.task;whiteSpace=wrap;rectStyle=rounded;size=10;html=1;container=1;expand=0;collapsible=0;taskMarker=abstract;" parent="DpX5dkBdOnD933k4NeAe-249" vertex="1">
          <mxGeometry x="555" y="200" width="120" height="80" as="geometry" />
        </mxCell>
        <mxCell id="DpX5dkBdOnD933k4NeAe-254" style="edgeStyle=orthogonalEdgeStyle;rounded=0;orthogonalLoop=1;jettySize=auto;html=1;exitX=1;exitY=0.5;exitDx=0;exitDy=0;exitPerimeter=0;entryX=0;entryY=0.5;entryDx=0;entryDy=0;entryPerimeter=0;" parent="DpX5dkBdOnD933k4NeAe-249" source="DpX5dkBdOnD933k4NeAe-251" target="DpX5dkBdOnD933k4NeAe-253" edge="1">
          <mxGeometry relative="1" as="geometry" />
        </mxCell>
        <mxCell id="DpX5dkBdOnD933k4NeAe-255" value="User clicks on location to edit rights for" style="points=[[0.25,0,0],[0.5,0,0],[0.75,0,0],[1,0.25,0],[1,0.5,0],[1,0.75,0],[0.75,1,0],[0.5,1,0],[0.25,1,0],[0,0.75,0],[0,0.5,0],[0,0.25,0]];shape=mxgraph.bpmn.task;whiteSpace=wrap;rectStyle=rounded;size=10;html=1;container=1;expand=0;collapsible=0;taskMarker=abstract;" parent="DpX5dkBdOnD933k4NeAe-249" vertex="1">
          <mxGeometry x="725" y="200" width="120" height="80" as="geometry" />
        </mxCell>
        <mxCell id="DpX5dkBdOnD933k4NeAe-256" style="edgeStyle=orthogonalEdgeStyle;rounded=0;orthogonalLoop=1;jettySize=auto;html=1;exitX=1;exitY=0.5;exitDx=0;exitDy=0;exitPerimeter=0;entryX=0;entryY=0.5;entryDx=0;entryDy=0;entryPerimeter=0;" parent="DpX5dkBdOnD933k4NeAe-249" source="DpX5dkBdOnD933k4NeAe-253" target="DpX5dkBdOnD933k4NeAe-255" edge="1">
          <mxGeometry relative="1" as="geometry" />
        </mxCell>
        <mxCell id="DpX5dkBdOnD933k4NeAe-291" style="edgeStyle=orthogonalEdgeStyle;rounded=0;orthogonalLoop=1;jettySize=auto;html=1;exitX=1;exitY=0.5;exitDx=0;exitDy=0;exitPerimeter=0;entryX=0;entryY=0.5;entryDx=0;entryDy=0;entryPerimeter=0;" parent="DpX5dkBdOnD933k4NeAe-249" source="DpX5dkBdOnD933k4NeAe-255" target="DpX5dkBdOnD933k4NeAe-294" edge="1">
          <mxGeometry relative="1" as="geometry">
            <mxPoint x="912.75" y="240" as="targetPoint" />
          </mxGeometry>
        </mxCell>
        <mxCell id="DpX5dkBdOnD933k4NeAe-288" style="edgeStyle=orthogonalEdgeStyle;rounded=0;orthogonalLoop=1;jettySize=auto;html=1;exitX=1;exitY=0.5;exitDx=0;exitDy=0;exitPerimeter=0;entryX=0;entryY=0.5;entryDx=0;entryDy=0;entryPerimeter=0;" parent="DpX5dkBdOnD933k4NeAe-249" source="DpX5dkBdOnD933k4NeAe-247" target="DpX5dkBdOnD933k4NeAe-250" edge="1">
          <mxGeometry relative="1" as="geometry" />
        </mxCell>
        <mxCell id="DpX5dkBdOnD933k4NeAe-294" value="Location has admin" style="points=[[0.25,0,0],[0.5,0,0],[0.75,0,0],[1,0.25,0],[1,0.5,0],[1,0.75,0],[0.75,1,0],[0.5,1,0],[0.25,1,0],[0,0.75,0],[0,0.5,0],[0,0.25,0]];shape=mxgraph.bpmn.task;whiteSpace=wrap;rectStyle=rounded;size=10;html=1;container=1;expand=0;collapsible=0;taskMarker=abstract;" parent="DpX5dkBdOnD933k4NeAe-249" vertex="1">
          <mxGeometry x="945" y="200" width="120" height="80" as="geometry" />
        </mxCell>
        <mxCell id="DpX5dkBdOnD933k4NeAe-298" value="" style="points=[[0.25,0.25,0],[0.5,0,0],[0.75,0.25,0],[1,0.5,0],[0.75,0.75,0],[0.5,1,0],[0.25,0.75,0],[0,0.5,0]];shape=mxgraph.bpmn.gateway2;html=1;verticalLabelPosition=bottom;labelBackgroundColor=#ffffff;verticalAlign=top;align=center;perimeter=rhombusPerimeter;outlineConnect=0;outline=none;symbol=none;gwType=exclusive;" parent="DpX5dkBdOnD933k4NeAe-249" vertex="1">
          <mxGeometry x="1152.75" y="215" width="50" height="50" as="geometry" />
        </mxCell>
        <mxCell id="DpX5dkBdOnD933k4NeAe-299" style="edgeStyle=orthogonalEdgeStyle;rounded=0;orthogonalLoop=1;jettySize=auto;html=1;exitX=1;exitY=0.5;exitDx=0;exitDy=0;exitPerimeter=0;entryX=0;entryY=0.5;entryDx=0;entryDy=0;entryPerimeter=0;" parent="DpX5dkBdOnD933k4NeAe-249" source="DpX5dkBdOnD933k4NeAe-294" target="DpX5dkBdOnD933k4NeAe-298" edge="1">
          <mxGeometry relative="1" as="geometry" />
        </mxCell>
        <mxCell id="DpX5dkBdOnD933k4NeAe-300" style="edgeStyle=orthogonalEdgeStyle;rounded=0;orthogonalLoop=1;jettySize=auto;html=1;exitX=0.5;exitY=0;exitDx=0;exitDy=0;exitPerimeter=0;entryX=0.5;entryY=0;entryDx=0;entryDy=0;entryPerimeter=0;" parent="DpX5dkBdOnD933k4NeAe-249" source="DpX5dkBdOnD933k4NeAe-298" target="DpX5dkBdOnD933k4NeAe-250" edge="1">
          <mxGeometry relative="1" as="geometry">
            <Array as="points">
              <mxPoint x="1178" y="100" />
              <mxPoint x="250" y="100" />
            </Array>
          </mxGeometry>
        </mxCell>
        <mxCell id="DpX5dkBdOnD933k4NeAe-301" value="No" style="edgeLabel;html=1;align=center;verticalAlign=middle;resizable=0;points=[];" parent="DpX5dkBdOnD933k4NeAe-300" vertex="1" connectable="0">
          <mxGeometry x="-0.9383" y="-2" relative="1" as="geometry">
            <mxPoint y="-1" as="offset" />
          </mxGeometry>
        </mxCell>
        <mxCell id="DpX5dkBdOnD933k4NeAe-302" value="Location has admin" style="points=[[0.25,0,0],[0.5,0,0],[0.75,0,0],[1,0.25,0],[1,0.5,0],[1,0.75,0],[0.75,1,0],[0.5,1,0],[0.25,1,0],[0,0.75,0],[0,0.5,0],[0,0.25,0]];shape=mxgraph.bpmn.task;whiteSpace=wrap;rectStyle=rounded;size=10;html=1;container=1;expand=0;collapsible=0;taskMarker=abstract;" parent="DpX5dkBdOnD933k4NeAe-249" vertex="1">
          <mxGeometry x="1302.75" y="200" width="120" height="80" as="geometry" />
        </mxCell>
        <mxCell id="DpX5dkBdOnD933k4NeAe-303" style="edgeStyle=orthogonalEdgeStyle;rounded=0;orthogonalLoop=1;jettySize=auto;html=1;exitX=1;exitY=0.5;exitDx=0;exitDy=0;exitPerimeter=0;entryX=0;entryY=0.5;entryDx=0;entryDy=0;entryPerimeter=0;" parent="DpX5dkBdOnD933k4NeAe-249" source="DpX5dkBdOnD933k4NeAe-298" target="DpX5dkBdOnD933k4NeAe-302" edge="1">
          <mxGeometry relative="1" as="geometry" />
        </mxCell>
        <mxCell id="DpX5dkBdOnD933k4NeAe-304" value="Yes" style="edgeLabel;html=1;align=center;verticalAlign=middle;resizable=0;points=[];" parent="DpX5dkBdOnD933k4NeAe-303" vertex="1" connectable="0">
          <mxGeometry x="-0.2435" y="-1" relative="1" as="geometry">
            <mxPoint as="offset" />
          </mxGeometry>
        </mxCell>
        <mxCell id="DpX5dkBdOnD933k4NeAe-305" value="User changes rights" style="points=[[0.25,0,0],[0.5,0,0],[0.75,0,0],[1,0.25,0],[1,0.5,0],[1,0.75,0],[0.75,1,0],[0.5,1,0],[0.25,1,0],[0,0.75,0],[0,0.5,0],[0,0.25,0]];shape=mxgraph.bpmn.task;whiteSpace=wrap;rectStyle=rounded;size=10;html=1;container=1;expand=0;collapsible=0;taskMarker=abstract;" parent="DpX5dkBdOnD933k4NeAe-249" vertex="1">
          <mxGeometry x="1522.75" y="200" width="120" height="80" as="geometry" />
        </mxCell>
        <mxCell id="DpX5dkBdOnD933k4NeAe-306" style="edgeStyle=orthogonalEdgeStyle;rounded=0;orthogonalLoop=1;jettySize=auto;html=1;exitX=1;exitY=0.5;exitDx=0;exitDy=0;exitPerimeter=0;entryX=0;entryY=0.5;entryDx=0;entryDy=0;entryPerimeter=0;" parent="DpX5dkBdOnD933k4NeAe-249" source="DpX5dkBdOnD933k4NeAe-302" target="DpX5dkBdOnD933k4NeAe-305" edge="1">
          <mxGeometry relative="1" as="geometry" />
        </mxCell>
        <mxCell id="DpX5dkBdOnD933k4NeAe-307" value="" style="points=[[0.145,0.145,0],[0.5,0,0],[0.855,0.145,0],[1,0.5,0],[0.855,0.855,0],[0.5,1,0],[0.145,0.855,0],[0,0.5,0]];shape=mxgraph.bpmn.event;html=1;verticalLabelPosition=bottom;labelBackgroundColor=#ffffff;verticalAlign=top;align=center;perimeter=ellipsePerimeter;outlineConnect=0;aspect=fixed;outline=throwing;symbol=message;" parent="DpX5dkBdOnD933k4NeAe-249" vertex="1">
          <mxGeometry x="1742.75" y="215" width="50" height="50" as="geometry" />
        </mxCell>
        <mxCell id="DpX5dkBdOnD933k4NeAe-308" style="edgeStyle=orthogonalEdgeStyle;rounded=0;orthogonalLoop=1;jettySize=auto;html=1;exitX=1;exitY=0.5;exitDx=0;exitDy=0;exitPerimeter=0;entryX=0;entryY=0.5;entryDx=0;entryDy=0;entryPerimeter=0;" parent="DpX5dkBdOnD933k4NeAe-249" source="DpX5dkBdOnD933k4NeAe-305" target="DpX5dkBdOnD933k4NeAe-307" edge="1">
          <mxGeometry relative="1" as="geometry" />
        </mxCell>
        <mxCell id="DpX5dkBdOnD933k4NeAe-309" value="Send changed rights" style="text;html=1;align=center;verticalAlign=middle;resizable=0;points=[];autosize=1;strokeColor=none;fillColor=none;" parent="DpX5dkBdOnD933k4NeAe-249" vertex="1">
          <mxGeometry x="1702.75" y="180" width="130" height="30" as="geometry" />
        </mxCell>
        <mxCell id="DpX5dkBdOnD933k4NeAe-317" value="" style="points=[[0.145,0.145,0],[0.5,0,0],[0.855,0.145,0],[1,0.5,0],[0.855,0.855,0],[0.5,1,0],[0.145,0.855,0],[0,0.5,0]];shape=mxgraph.bpmn.event;html=1;verticalLabelPosition=bottom;labelBackgroundColor=#ffffff;verticalAlign=top;align=center;perimeter=ellipsePerimeter;outlineConnect=0;aspect=fixed;outline=catching;symbol=message;" parent="DpX5dkBdOnD933k4NeAe-249" vertex="1">
          <mxGeometry x="2122.75" y="215" width="50" height="50" as="geometry" />
        </mxCell>
        <mxCell id="DpX5dkBdOnD933k4NeAe-318" value="" style="points=[[0.145,0.145,0],[0.5,0,0],[0.855,0.145,0],[1,0.5,0],[0.855,0.855,0],[0.5,1,0],[0.145,0.855,0],[0,0.5,0]];shape=mxgraph.bpmn.event;html=1;verticalLabelPosition=bottom;labelBackgroundColor=#ffffff;verticalAlign=top;align=center;perimeter=ellipsePerimeter;outlineConnect=0;aspect=fixed;outline=standard;symbol=timer;" parent="DpX5dkBdOnD933k4NeAe-249" vertex="1">
          <mxGeometry x="1942.75" y="215" width="50" height="50" as="geometry" />
        </mxCell>
        <mxCell id="DpX5dkBdOnD933k4NeAe-319" style="edgeStyle=orthogonalEdgeStyle;rounded=0;orthogonalLoop=1;jettySize=auto;html=1;exitX=1;exitY=0.5;exitDx=0;exitDy=0;exitPerimeter=0;entryX=0;entryY=0.5;entryDx=0;entryDy=0;entryPerimeter=0;" parent="DpX5dkBdOnD933k4NeAe-249" source="DpX5dkBdOnD933k4NeAe-307" target="DpX5dkBdOnD933k4NeAe-318" edge="1">
          <mxGeometry relative="1" as="geometry" />
        </mxCell>
        <mxCell id="DpX5dkBdOnD933k4NeAe-320" style="edgeStyle=orthogonalEdgeStyle;rounded=0;orthogonalLoop=1;jettySize=auto;html=1;entryX=0;entryY=0.5;entryDx=0;entryDy=0;entryPerimeter=0;" parent="DpX5dkBdOnD933k4NeAe-249" source="DpX5dkBdOnD933k4NeAe-318" target="DpX5dkBdOnD933k4NeAe-317" edge="1">
          <mxGeometry relative="1" as="geometry" />
        </mxCell>
        <mxCell id="DpX5dkBdOnD933k4NeAe-322" value="Wait for confirmation" style="text;html=1;align=center;verticalAlign=middle;resizable=0;points=[];autosize=1;strokeColor=none;fillColor=none;" parent="DpX5dkBdOnD933k4NeAe-249" vertex="1">
          <mxGeometry x="1902.75" y="180" width="130" height="30" as="geometry" />
        </mxCell>
        <mxCell id="DpX5dkBdOnD933k4NeAe-324" value="Receive confirmation" style="text;html=1;align=center;verticalAlign=middle;resizable=0;points=[];autosize=1;strokeColor=none;fillColor=none;" parent="DpX5dkBdOnD933k4NeAe-249" vertex="1">
          <mxGeometry x="2077.75" y="180" width="140" height="30" as="geometry" />
        </mxCell>
        <mxCell id="DpX5dkBdOnD933k4NeAe-325" value="" style="points=[[0.145,0.145,0],[0.5,0,0],[0.855,0.145,0],[1,0.5,0],[0.855,0.855,0],[0.5,1,0],[0.145,0.855,0],[0,0.5,0]];shape=mxgraph.bpmn.event;html=1;verticalLabelPosition=bottom;labelBackgroundColor=#ffffff;verticalAlign=top;align=center;perimeter=ellipsePerimeter;outlineConnect=0;aspect=fixed;outline=end;symbol=terminate2;" parent="DpX5dkBdOnD933k4NeAe-249" vertex="1">
          <mxGeometry x="2282.75" y="215" width="50" height="50" as="geometry" />
        </mxCell>
        <mxCell id="DpX5dkBdOnD933k4NeAe-327" style="edgeStyle=orthogonalEdgeStyle;rounded=0;orthogonalLoop=1;jettySize=auto;html=1;exitX=1;exitY=0.5;exitDx=0;exitDy=0;exitPerimeter=0;entryX=0;entryY=0.5;entryDx=0;entryDy=0;entryPerimeter=0;" parent="DpX5dkBdOnD933k4NeAe-249" source="DpX5dkBdOnD933k4NeAe-317" target="DpX5dkBdOnD933k4NeAe-325" edge="1">
          <mxGeometry relative="1" as="geometry" />
        </mxCell>
        <mxCell id="DpX5dkBdOnD933k4NeAe-272" value="System" style="swimlane;html=1;startSize=20;horizontal=0;" parent="DpX5dkBdOnD933k4NeAe-248" vertex="1">
          <mxGeometry x="20" y="340" width="2370" height="170" as="geometry" />
        </mxCell>
        <mxCell id="DpX5dkBdOnD933k4NeAe-273" value="" style="points=[[0.145,0.145,0],[0.5,0,0],[0.855,0.145,0],[1,0.5,0],[0.855,0.855,0],[0.5,1,0],[0.145,0.855,0],[0,0.5,0]];shape=mxgraph.bpmn.event;html=1;verticalLabelPosition=bottom;labelBackgroundColor=#ffffff;verticalAlign=top;align=center;perimeter=ellipsePerimeter;outlineConnect=0;aspect=fixed;outline=end;symbol=terminate2;" parent="DpX5dkBdOnD933k4NeAe-272" vertex="1">
          <mxGeometry x="2282.75" y="40" width="50" height="50" as="geometry" />
        </mxCell>
        <mxCell id="DpX5dkBdOnD933k4NeAe-278" value="" style="points=[[0.145,0.145,0],[0.5,0,0],[0.855,0.145,0],[1,0.5,0],[0.855,0.855,0],[0.5,1,0],[0.145,0.855,0],[0,0.5,0]];shape=mxgraph.bpmn.event;html=1;verticalLabelPosition=bottom;labelBackgroundColor=#ffffff;verticalAlign=top;align=center;perimeter=ellipsePerimeter;outlineConnect=0;aspect=fixed;outline=standard;symbol=general;" parent="DpX5dkBdOnD933k4NeAe-272" vertex="1">
          <mxGeometry x="50" y="40" width="50" height="50" as="geometry" />
        </mxCell>
        <mxCell id="DpX5dkBdOnD933k4NeAe-279" style="edgeStyle=orthogonalEdgeStyle;rounded=0;orthogonalLoop=1;jettySize=auto;html=1;exitX=1;exitY=0.5;exitDx=0;exitDy=0;exitPerimeter=0;entryX=0;entryY=0.5;entryDx=0;entryDy=0;entryPerimeter=0;" parent="DpX5dkBdOnD933k4NeAe-272" source="DpX5dkBdOnD933k4NeAe-278" target="DpX5dkBdOnD933k4NeAe-280" edge="1">
          <mxGeometry relative="1" as="geometry" />
        </mxCell>
        <mxCell id="DpX5dkBdOnD933k4NeAe-280" value="" style="points=[[0.145,0.145,0],[0.5,0,0],[0.855,0.145,0],[1,0.5,0],[0.855,0.855,0],[0.5,1,0],[0.145,0.855,0],[0,0.5,0]];shape=mxgraph.bpmn.event;html=1;verticalLabelPosition=bottom;labelBackgroundColor=#ffffff;verticalAlign=top;align=center;perimeter=ellipsePerimeter;outlineConnect=0;aspect=fixed;outline=standard;symbol=timer;" parent="DpX5dkBdOnD933k4NeAe-272" vertex="1">
          <mxGeometry x="285" y="40" width="50" height="50" as="geometry" />
        </mxCell>
        <mxCell id="DpX5dkBdOnD933k4NeAe-281" value="Wait for request" style="text;html=1;align=center;verticalAlign=middle;resizable=0;points=[];autosize=1;strokeColor=none;fillColor=none;" parent="DpX5dkBdOnD933k4NeAe-272" vertex="1">
          <mxGeometry x="255" y="90" width="110" height="30" as="geometry" />
        </mxCell>
        <mxCell id="DpX5dkBdOnD933k4NeAe-282" style="edgeStyle=orthogonalEdgeStyle;rounded=0;orthogonalLoop=1;jettySize=auto;html=1;exitX=1;exitY=0.5;exitDx=0;exitDy=0;exitPerimeter=0;entryX=0;entryY=0.5;entryDx=0;entryDy=0;entryPerimeter=0;" parent="DpX5dkBdOnD933k4NeAe-272" source="DpX5dkBdOnD933k4NeAe-280" target="DpX5dkBdOnD933k4NeAe-310" edge="1">
          <mxGeometry relative="1" as="geometry">
            <mxPoint x="1339.75" y="65" as="targetPoint" />
          </mxGeometry>
        </mxCell>
        <mxCell id="DpX5dkBdOnD933k4NeAe-310" value="" style="points=[[0.145,0.145,0],[0.5,0,0],[0.855,0.145,0],[1,0.5,0],[0.855,0.855,0],[0.5,1,0],[0.145,0.855,0],[0,0.5,0]];shape=mxgraph.bpmn.event;html=1;verticalLabelPosition=bottom;labelBackgroundColor=#ffffff;verticalAlign=top;align=center;perimeter=ellipsePerimeter;outlineConnect=0;aspect=fixed;outline=catching;symbol=message;" parent="DpX5dkBdOnD933k4NeAe-272" vertex="1">
          <mxGeometry x="1742.75" y="40" width="50" height="50" as="geometry" />
        </mxCell>
        <mxCell id="DpX5dkBdOnD933k4NeAe-312" value="Receive changed rights" style="text;html=1;align=center;verticalAlign=middle;resizable=0;points=[];autosize=1;strokeColor=none;fillColor=none;" parent="DpX5dkBdOnD933k4NeAe-272" vertex="1">
          <mxGeometry x="1692.75" y="90" width="150" height="30" as="geometry" />
        </mxCell>
        <mxCell id="DpX5dkBdOnD933k4NeAe-313" value="Change admins&#39; rights" style="points=[[0.25,0,0],[0.5,0,0],[0.75,0,0],[1,0.25,0],[1,0.5,0],[1,0.75,0],[0.75,1,0],[0.5,1,0],[0.25,1,0],[0,0.75,0],[0,0.5,0],[0,0.25,0]];shape=mxgraph.bpmn.task;whiteSpace=wrap;rectStyle=rounded;size=10;html=1;container=1;expand=0;collapsible=0;taskMarker=abstract;" parent="DpX5dkBdOnD933k4NeAe-272" vertex="1">
          <mxGeometry x="1912.75" y="25" width="120" height="80" as="geometry" />
        </mxCell>
        <mxCell id="DpX5dkBdOnD933k4NeAe-314" style="edgeStyle=orthogonalEdgeStyle;rounded=0;orthogonalLoop=1;jettySize=auto;html=1;exitX=1;exitY=0.5;exitDx=0;exitDy=0;exitPerimeter=0;entryX=0;entryY=0.5;entryDx=0;entryDy=0;entryPerimeter=0;" parent="DpX5dkBdOnD933k4NeAe-272" source="DpX5dkBdOnD933k4NeAe-310" target="DpX5dkBdOnD933k4NeAe-313" edge="1">
          <mxGeometry relative="1" as="geometry" />
        </mxCell>
        <mxCell id="DpX5dkBdOnD933k4NeAe-315" value="" style="points=[[0.145,0.145,0],[0.5,0,0],[0.855,0.145,0],[1,0.5,0],[0.855,0.855,0],[0.5,1,0],[0.145,0.855,0],[0,0.5,0]];shape=mxgraph.bpmn.event;html=1;verticalLabelPosition=bottom;labelBackgroundColor=#ffffff;verticalAlign=top;align=center;perimeter=ellipsePerimeter;outlineConnect=0;aspect=fixed;outline=throwing;symbol=message;" parent="DpX5dkBdOnD933k4NeAe-272" vertex="1">
          <mxGeometry x="2122.75" y="40" width="50" height="50" as="geometry" />
        </mxCell>
        <mxCell id="DpX5dkBdOnD933k4NeAe-316" style="edgeStyle=orthogonalEdgeStyle;rounded=0;orthogonalLoop=1;jettySize=auto;html=1;exitX=1;exitY=0.5;exitDx=0;exitDy=0;exitPerimeter=0;entryX=0;entryY=0.5;entryDx=0;entryDy=0;entryPerimeter=0;" parent="DpX5dkBdOnD933k4NeAe-272" source="DpX5dkBdOnD933k4NeAe-313" target="DpX5dkBdOnD933k4NeAe-315" edge="1">
          <mxGeometry relative="1" as="geometry" />
        </mxCell>
        <mxCell id="DpX5dkBdOnD933k4NeAe-323" value="Send confirmation" style="text;html=1;align=center;verticalAlign=middle;resizable=0;points=[];autosize=1;strokeColor=none;fillColor=none;" parent="DpX5dkBdOnD933k4NeAe-272" vertex="1">
          <mxGeometry x="2087.75" y="90" width="120" height="30" as="geometry" />
        </mxCell>
        <mxCell id="DpX5dkBdOnD933k4NeAe-326" style="edgeStyle=orthogonalEdgeStyle;rounded=0;orthogonalLoop=1;jettySize=auto;html=1;exitX=1;exitY=0.5;exitDx=0;exitDy=0;exitPerimeter=0;entryX=0;entryY=0.5;entryDx=0;entryDy=0;entryPerimeter=0;" parent="DpX5dkBdOnD933k4NeAe-272" source="DpX5dkBdOnD933k4NeAe-315" target="DpX5dkBdOnD933k4NeAe-273" edge="1">
          <mxGeometry relative="1" as="geometry" />
        </mxCell>
        <mxCell id="DpX5dkBdOnD933k4NeAe-311" value="" style="dashed=1;dashPattern=8 4;endArrow=blockThin;endFill=1;startArrow=oval;startFill=0;endSize=6;startSize=4;html=1;rounded=0;exitX=0.5;exitY=1;exitDx=0;exitDy=0;exitPerimeter=0;entryX=0.5;entryY=0;entryDx=0;entryDy=0;entryPerimeter=0;" parent="DpX5dkBdOnD933k4NeAe-248" source="DpX5dkBdOnD933k4NeAe-307" target="DpX5dkBdOnD933k4NeAe-310" edge="1">
          <mxGeometry width="160" relative="1" as="geometry">
            <mxPoint x="1492.75" y="430" as="sourcePoint" />
            <mxPoint x="1652.75" y="430" as="targetPoint" />
          </mxGeometry>
        </mxCell>
        <mxCell id="DpX5dkBdOnD933k4NeAe-321" value="" style="dashed=1;dashPattern=8 4;endArrow=blockThin;endFill=1;startArrow=oval;startFill=0;endSize=6;startSize=4;html=1;rounded=0;exitX=0.5;exitY=0;exitDx=0;exitDy=0;exitPerimeter=0;entryX=0.5;entryY=1;entryDx=0;entryDy=0;entryPerimeter=0;" parent="DpX5dkBdOnD933k4NeAe-248" source="DpX5dkBdOnD933k4NeAe-315" target="DpX5dkBdOnD933k4NeAe-317" edge="1">
          <mxGeometry width="160" relative="1" as="geometry">
            <mxPoint x="1692.75" y="420" as="sourcePoint" />
            <mxPoint x="1852.75" y="420" as="targetPoint" />
          </mxGeometry>
        </mxCell>
        <mxCell id="FNvptqnKysk0QU5ZLWr6-8" value="" style="points=[[0.25,0,0],[0.5,0,0],[0.75,0,0],[1,0.25,0],[1,0.5,0],[1,0.75,0],[0.75,1,0],[0.5,1,0],[0.25,1,0],[0,0.75,0],[0,0.5,0],[0,0.25,0]];shape=mxgraph.bpmn.task;arcSize=10;taskMarker=abstract;outline=none;symbol=general;bpmnShapeType=subprocess;isLoopSub=0;verticalAlign=top;align=left;spacingLeft=5;html=1;whiteSpace=wrap;" parent="1" vertex="1">
          <mxGeometry x="1227.25" y="-270" width="1040" height="510" as="geometry" />
        </mxCell>
        <mxCell id="FNvptqnKysk0QU5ZLWr6-9" value="Send Request" style="text;html=1;align=center;verticalAlign=middle;resizable=0;points=[];autosize=1;strokeColor=none;fillColor=none;" parent="1" vertex="1">
          <mxGeometry x="1247.25" y="-205" width="100" height="30" as="geometry" />
        </mxCell>
        <mxCell id="FNvptqnKysk0QU5ZLWr6-10" value="An organisation and its free spots is shown in a pop-up" style="points=[[0.25,0,0],[0.5,0,0],[0.75,0,0],[1,0.25,0],[1,0.5,0],[1,0.75,0],[0.75,1,0],[0.5,1,0],[0.25,1,0],[0,0.75,0],[0,0.5,0],[0,0.25,0]];shape=mxgraph.bpmn.task;whiteSpace=wrap;rectStyle=rounded;size=10;html=1;container=1;expand=0;collapsible=0;taskMarker=abstract;" parent="1" vertex="1">
          <mxGeometry x="2117.25" y="-190" width="120" height="80" as="geometry" />
        </mxCell>
        <mxCell id="FNvptqnKysk0QU5ZLWr6-11" value="Wait for list of free places" style="text;html=1;align=center;verticalAlign=middle;resizable=0;points=[];autosize=1;strokeColor=none;fillColor=none;" parent="1" vertex="1">
          <mxGeometry x="1417.25" y="-205" width="160" height="30" as="geometry" />
        </mxCell>
        <mxCell id="FNvptqnKysk0QU5ZLWr6-13" value="" style="points=[[0.145,0.145,0],[0.5,0,0],[0.855,0.145,0],[1,0.5,0],[0.855,0.855,0],[0.5,1,0],[0.145,0.855,0],[0,0.5,0]];shape=mxgraph.bpmn.event;html=1;verticalLabelPosition=bottom;labelBackgroundColor=#ffffff;verticalAlign=top;align=center;perimeter=ellipsePerimeter;outlineConnect=0;aspect=fixed;outline=throwing;symbol=message;" parent="1" vertex="1">
          <mxGeometry x="1267.25" y="-175" width="50" height="50" as="geometry" />
        </mxCell>
        <mxCell id="FNvptqnKysk0QU5ZLWr6-14" value="" style="dashed=1;dashPattern=8 4;endArrow=blockThin;endFill=1;startArrow=oval;startFill=0;endSize=6;startSize=4;html=1;rounded=0;exitX=0.5;exitY=1;exitDx=0;exitDy=0;exitPerimeter=0;entryX=0.5;entryY=0;entryDx=0;entryDy=0;entryPerimeter=0;" parent="1" source="FNvptqnKysk0QU5ZLWr6-13" target="FNvptqnKysk0QU5ZLWr6-15" edge="1">
          <mxGeometry width="160" relative="1" as="geometry">
            <mxPoint x="1707.25" y="-10" as="sourcePoint" />
            <mxPoint x="1702.25" y="-50" as="targetPoint" />
          </mxGeometry>
        </mxCell>
        <mxCell id="FNvptqnKysk0QU5ZLWr6-15" value="" style="points=[[0.145,0.145,0],[0.5,0,0],[0.855,0.145,0],[1,0.5,0],[0.855,0.855,0],[0.5,1,0],[0.145,0.855,0],[0,0.5,0]];shape=mxgraph.bpmn.event;html=1;verticalLabelPosition=bottom;labelBackgroundColor=#ffffff;verticalAlign=top;align=center;perimeter=ellipsePerimeter;outlineConnect=0;aspect=fixed;outline=catching;symbol=message;" parent="1" vertex="1">
          <mxGeometry x="1267.25" y="20" width="50" height="50" as="geometry" />
        </mxCell>
        <mxCell id="FNvptqnKysk0QU5ZLWr6-16" value="Check number of available places&amp;nbsp;" style="points=[[0.25,0,0],[0.5,0,0],[0.75,0,0],[1,0.25,0],[1,0.5,0],[1,0.75,0],[0.75,1,0],[0.5,1,0],[0.25,1,0],[0,0.75,0],[0,0.5,0],[0,0.25,0]];shape=mxgraph.bpmn.task;whiteSpace=wrap;rectStyle=rounded;size=10;html=1;container=1;expand=0;collapsible=0;taskMarker=abstract;" parent="1" vertex="1">
          <mxGeometry x="1359.9964074406093" y="5" width="104.49989690721648" height="80" as="geometry" />
        </mxCell>
        <mxCell id="FNvptqnKysk0QU5ZLWr6-17" style="edgeStyle=orthogonalEdgeStyle;rounded=0;orthogonalLoop=1;jettySize=auto;html=1;exitX=1;exitY=0.5;exitDx=0;exitDy=0;exitPerimeter=0;entryX=0;entryY=0.5;entryDx=0;entryDy=0;entryPerimeter=0;" parent="1" source="FNvptqnKysk0QU5ZLWr6-15" target="FNvptqnKysk0QU5ZLWr6-16" edge="1">
          <mxGeometry relative="1" as="geometry" />
        </mxCell>
        <mxCell id="FNvptqnKysk0QU5ZLWr6-18" value="" style="points=[[0.25,0.25,0],[0.5,0,0],[0.75,0.25,0],[1,0.5,0],[0.75,0.75,0],[0.5,1,0],[0.25,0.75,0],[0,0.5,0]];shape=mxgraph.bpmn.gateway2;html=1;verticalLabelPosition=bottom;labelBackgroundColor=#ffffff;verticalAlign=top;align=center;perimeter=rhombusPerimeter;outlineConnect=0;outline=none;symbol=none;gwType=exclusive;" parent="1" vertex="1">
          <mxGeometry x="1644.5" y="20" width="50" height="50" as="geometry" />
        </mxCell>
        <mxCell id="FNvptqnKysk0QU5ZLWr6-19" value="Make box in which numbers are shown green" style="points=[[0.25,0,0],[0.5,0,0],[0.75,0,0],[1,0.25,0],[1,0.5,0],[1,0.75,0],[0.75,1,0],[0.5,1,0],[0.25,1,0],[0,0.75,0],[0,0.5,0],[0,0.25,0]];shape=mxgraph.bpmn.task;whiteSpace=wrap;rectStyle=rounded;size=10;html=1;container=1;expand=0;collapsible=0;taskMarker=abstract;" parent="1" vertex="1">
          <mxGeometry x="1764.4964074406093" y="5" width="104.49989690721648" height="80" as="geometry" />
        </mxCell>
        <mxCell id="FNvptqnKysk0QU5ZLWr6-20" style="edgeStyle=orthogonalEdgeStyle;rounded=0;orthogonalLoop=1;jettySize=auto;html=1;exitX=1;exitY=0.5;exitDx=0;exitDy=0;exitPerimeter=0;entryX=0;entryY=0.5;entryDx=0;entryDy=0;entryPerimeter=0;" parent="1" source="FNvptqnKysk0QU5ZLWr6-21" target="FNvptqnKysk0QU5ZLWr6-26" edge="1">
          <mxGeometry relative="1" as="geometry">
            <mxPoint x="1902.25" y="40" as="targetPoint" />
            <Array as="points">
              <mxPoint x="1892.25" y="180" />
              <mxPoint x="1892.25" y="45" />
            </Array>
          </mxGeometry>
        </mxCell>
        <mxCell id="FNvptqnKysk0QU5ZLWr6-21" value="Make box in which numbers are shown red" style="points=[[0.25,0,0],[0.5,0,0],[0.75,0,0],[1,0.25,0],[1,0.5,0],[1,0.75,0],[0.75,1,0],[0.5,1,0],[0.25,1,0],[0,0.75,0],[0,0.5,0],[0,0.25,0]];shape=mxgraph.bpmn.task;whiteSpace=wrap;rectStyle=rounded;size=10;html=1;container=1;expand=0;collapsible=0;taskMarker=abstract;" parent="1" vertex="1">
          <mxGeometry x="1617.2464074406093" y="140" width="104.49989690721648" height="80" as="geometry" />
        </mxCell>
        <mxCell id="FNvptqnKysk0QU5ZLWr6-22" style="edgeStyle=orthogonalEdgeStyle;rounded=0;orthogonalLoop=1;jettySize=auto;html=1;exitX=0.5;exitY=1;exitDx=0;exitDy=0;exitPerimeter=0;entryX=0.5;entryY=0;entryDx=0;entryDy=0;entryPerimeter=0;" parent="1" source="FNvptqnKysk0QU5ZLWr6-18" target="FNvptqnKysk0QU5ZLWr6-21" edge="1">
          <mxGeometry relative="1" as="geometry" />
        </mxCell>
        <mxCell id="FNvptqnKysk0QU5ZLWr6-23" value="No" style="edgeLabel;html=1;align=center;verticalAlign=middle;resizable=0;points=[];" parent="FNvptqnKysk0QU5ZLWr6-22" vertex="1" connectable="0">
          <mxGeometry x="-0.1238" relative="1" as="geometry">
            <mxPoint as="offset" />
          </mxGeometry>
        </mxCell>
        <mxCell id="FNvptqnKysk0QU5ZLWr6-24" style="edgeStyle=orthogonalEdgeStyle;rounded=0;orthogonalLoop=1;jettySize=auto;html=1;exitX=1;exitY=0.5;exitDx=0;exitDy=0;exitPerimeter=0;entryX=0;entryY=0.5;entryDx=0;entryDy=0;entryPerimeter=0;" parent="1" source="FNvptqnKysk0QU5ZLWr6-18" target="FNvptqnKysk0QU5ZLWr6-19" edge="1">
          <mxGeometry relative="1" as="geometry" />
        </mxCell>
        <mxCell id="FNvptqnKysk0QU5ZLWr6-25" value="Yes" style="edgeLabel;html=1;align=center;verticalAlign=middle;resizable=0;points=[];" parent="FNvptqnKysk0QU5ZLWr6-24" vertex="1" connectable="0">
          <mxGeometry x="-0.3714" relative="1" as="geometry">
            <mxPoint as="offset" />
          </mxGeometry>
        </mxCell>
        <mxCell id="FNvptqnKysk0QU5ZLWr6-26" value="" style="points=[[0.145,0.145,0],[0.5,0,0],[0.855,0.145,0],[1,0.5,0],[0.855,0.855,0],[0.5,1,0],[0.145,0.855,0],[0,0.5,0]];shape=mxgraph.bpmn.event;html=1;verticalLabelPosition=bottom;labelBackgroundColor=#ffffff;verticalAlign=top;align=center;perimeter=ellipsePerimeter;outlineConnect=0;aspect=fixed;outline=throwing;symbol=message;" parent="1" vertex="1">
          <mxGeometry x="1934.5" y="20" width="50" height="50" as="geometry" />
        </mxCell>
        <mxCell id="FNvptqnKysk0QU5ZLWr6-27" style="edgeStyle=orthogonalEdgeStyle;rounded=0;orthogonalLoop=1;jettySize=auto;html=1;exitX=1;exitY=0.5;exitDx=0;exitDy=0;exitPerimeter=0;entryX=0;entryY=0.5;entryDx=0;entryDy=0;entryPerimeter=0;" parent="1" source="FNvptqnKysk0QU5ZLWr6-19" target="FNvptqnKysk0QU5ZLWr6-26" edge="1">
          <mxGeometry relative="1" as="geometry" />
        </mxCell>
        <mxCell id="FNvptqnKysk0QU5ZLWr6-28" value="" style="points=[[0.145,0.145,0],[0.5,0,0],[0.855,0.145,0],[1,0.5,0],[0.855,0.855,0],[0.5,1,0],[0.145,0.855,0],[0,0.5,0]];shape=mxgraph.bpmn.event;html=1;verticalLabelPosition=bottom;labelBackgroundColor=#ffffff;verticalAlign=top;align=center;perimeter=ellipsePerimeter;outlineConnect=0;aspect=fixed;outline=standard;symbol=timer;" parent="1" vertex="1">
          <mxGeometry x="1464.5" y="-175" width="50" height="50" as="geometry" />
        </mxCell>
        <mxCell id="FNvptqnKysk0QU5ZLWr6-29" style="edgeStyle=orthogonalEdgeStyle;rounded=0;orthogonalLoop=1;jettySize=auto;html=1;exitX=1;exitY=0.5;exitDx=0;exitDy=0;exitPerimeter=0;entryX=0;entryY=0.5;entryDx=0;entryDy=0;entryPerimeter=0;" parent="1" source="FNvptqnKysk0QU5ZLWr6-13" target="FNvptqnKysk0QU5ZLWr6-28" edge="1">
          <mxGeometry relative="1" as="geometry" />
        </mxCell>
        <mxCell id="FNvptqnKysk0QU5ZLWr6-30" value="" style="points=[[0.145,0.145,0],[0.5,0,0],[0.855,0.145,0],[1,0.5,0],[0.855,0.855,0],[0.5,1,0],[0.145,0.855,0],[0,0.5,0]];shape=mxgraph.bpmn.event;html=1;verticalLabelPosition=bottom;labelBackgroundColor=#ffffff;verticalAlign=top;align=center;perimeter=ellipsePerimeter;outlineConnect=0;aspect=fixed;outline=catching;symbol=message;" parent="1" vertex="1">
          <mxGeometry x="1934.5" y="-175" width="50" height="50" as="geometry" />
        </mxCell>
        <mxCell id="FNvptqnKysk0QU5ZLWr6-31" style="edgeStyle=orthogonalEdgeStyle;rounded=0;orthogonalLoop=1;jettySize=auto;html=1;exitX=1;exitY=0.5;exitDx=0;exitDy=0;exitPerimeter=0;entryX=0;entryY=0.5;entryDx=0;entryDy=0;entryPerimeter=0;" parent="1" source="FNvptqnKysk0QU5ZLWr6-28" target="FNvptqnKysk0QU5ZLWr6-30" edge="1">
          <mxGeometry relative="1" as="geometry" />
        </mxCell>
        <mxCell id="FNvptqnKysk0QU5ZLWr6-32" value="Send responsebody" style="text;html=1;align=center;verticalAlign=middle;resizable=0;points=[];autosize=1;strokeColor=none;fillColor=none;" parent="1" vertex="1">
          <mxGeometry x="1894.5" y="70" width="130" height="30" as="geometry" />
        </mxCell>
        <mxCell id="FNvptqnKysk0QU5ZLWr6-33" value="Receive responsebody" style="text;html=1;align=center;verticalAlign=middle;resizable=0;points=[];autosize=1;strokeColor=none;fillColor=none;" parent="1" vertex="1">
          <mxGeometry x="1884.5" y="-215" width="150" height="30" as="geometry" />
        </mxCell>
        <mxCell id="FNvptqnKysk0QU5ZLWr6-34" value="" style="dashed=1;dashPattern=8 4;endArrow=blockThin;endFill=1;startArrow=oval;startFill=0;endSize=6;startSize=4;html=1;rounded=0;exitX=0.5;exitY=0;exitDx=0;exitDy=0;exitPerimeter=0;entryX=0.5;entryY=1;entryDx=0;entryDy=0;entryPerimeter=0;" parent="1" source="FNvptqnKysk0QU5ZLWr6-26" target="FNvptqnKysk0QU5ZLWr6-30" edge="1">
          <mxGeometry width="160" relative="1" as="geometry">
            <mxPoint x="2024.5" y="-60" as="sourcePoint" />
            <mxPoint x="2184.5" y="-60" as="targetPoint" />
          </mxGeometry>
        </mxCell>
        <mxCell id="FNvptqnKysk0QU5ZLWr6-37" value="Receive request" style="text;html=1;align=center;verticalAlign=middle;resizable=0;points=[];autosize=1;strokeColor=none;fillColor=none;" parent="1" vertex="1">
          <mxGeometry x="1237.25" y="70" width="110" height="30" as="geometry" />
        </mxCell>
        <mxCell id="FNvptqnKysk0QU5ZLWr6-38" value="Number of places &amp;gt;0?" style="points=[[0.25,0,0],[0.5,0,0],[0.75,0,0],[1,0.25,0],[1,0.5,0],[1,0.75,0],[0.75,1,0],[0.5,1,0],[0.25,1,0],[0,0.75,0],[0,0.5,0],[0,0.25,0]];shape=mxgraph.bpmn.task;whiteSpace=wrap;rectStyle=rounded;size=10;html=1;container=1;expand=0;collapsible=0;taskMarker=abstract;" parent="1" vertex="1">
          <mxGeometry x="1514.4964074406093" y="5" width="104.49989690721648" height="80" as="geometry" />
        </mxCell>
        <mxCell id="FNvptqnKysk0QU5ZLWr6-39" style="edgeStyle=orthogonalEdgeStyle;rounded=0;orthogonalLoop=1;jettySize=auto;html=1;exitX=1;exitY=0.5;exitDx=0;exitDy=0;exitPerimeter=0;entryX=0;entryY=0.5;entryDx=0;entryDy=0;entryPerimeter=0;" parent="1" source="FNvptqnKysk0QU5ZLWr6-16" target="FNvptqnKysk0QU5ZLWr6-38" edge="1">
          <mxGeometry relative="1" as="geometry" />
        </mxCell>
        <mxCell id="FNvptqnKysk0QU5ZLWr6-40" style="edgeStyle=orthogonalEdgeStyle;rounded=0;orthogonalLoop=1;jettySize=auto;html=1;exitX=1;exitY=0.5;exitDx=0;exitDy=0;exitPerimeter=0;entryX=0;entryY=0.5;entryDx=0;entryDy=0;entryPerimeter=0;" parent="1" source="FNvptqnKysk0QU5ZLWr6-38" target="FNvptqnKysk0QU5ZLWr6-18" edge="1">
          <mxGeometry relative="1" as="geometry" />
        </mxCell>
        <mxCell id="FNvptqnKysk0QU5ZLWr6-41" style="edgeStyle=orthogonalEdgeStyle;rounded=0;orthogonalLoop=1;jettySize=auto;html=1;exitX=1;exitY=0.5;exitDx=0;exitDy=0;exitPerimeter=0;entryX=0;entryY=0.5;entryDx=0;entryDy=0;entryPerimeter=0;" parent="1" source="FNvptqnKysk0QU5ZLWr6-30" target="FNvptqnKysk0QU5ZLWr6-10" edge="1">
          <mxGeometry relative="1" as="geometry" />
        </mxCell>
        <mxCell id="FNvptqnKysk0QU5ZLWr6-54" value="" style="points=[[0.145,0.145,0],[0.5,0,0],[0.855,0.145,0],[1,0.5,0],[0.855,0.855,0],[0.5,1,0],[0.145,0.855,0],[0,0.5,0]];shape=mxgraph.bpmn.event;html=1;verticalLabelPosition=bottom;labelBackgroundColor=#ffffff;verticalAlign=top;align=center;perimeter=ellipsePerimeter;outlineConnect=0;aspect=fixed;outline=end;symbol=terminate2;" parent="1" vertex="1">
          <mxGeometry x="960" y="-575" width="50" height="50" as="geometry" />
        </mxCell>
        <mxCell id="FNvptqnKysk0QU5ZLWr6-57" value="&lt;font style=&quot;font-size: 21px;&quot;&gt;Collapsed process: vrije plaatsen aanvragen&lt;/font&gt;" style="text;html=1;align=center;verticalAlign=middle;resizable=0;points=[];autosize=1;strokeColor=none;fillColor=none;" parent="1" vertex="1">
          <mxGeometry x="1527.25" y="-270" width="440" height="40" as="geometry" />
        </mxCell>
        <mxCell id="uLPFIteWyu_h71zymSEi-1" value="" style="points=[[0.145,0.145,0],[0.5,0,0],[0.855,0.145,0],[1,0.5,0],[0.855,0.855,0],[0.5,1,0],[0.145,0.855,0],[0,0.5,0]];shape=mxgraph.bpmn.event;html=1;verticalLabelPosition=bottom;labelBackgroundColor=#ffffff;verticalAlign=top;align=center;perimeter=ellipsePerimeter;outlineConnect=0;aspect=fixed;outline=standard;symbol=general;" parent="1" vertex="1">
          <mxGeometry x="190" y="435" width="50" height="50" as="geometry" />
        </mxCell>
        <mxCell id="uLPFIteWyu_h71zymSEi-2" style="edgeStyle=orthogonalEdgeStyle;rounded=0;orthogonalLoop=1;jettySize=auto;html=1;exitX=1;exitY=0.5;exitDx=0;exitDy=0;exitPerimeter=0;entryX=0;entryY=0.5;entryDx=0;entryDy=0;entryPerimeter=0;" parent="1" source="uLPFIteWyu_h71zymSEi-1" target="uLPFIteWyu_h71zymSEi-8" edge="1">
          <mxGeometry relative="1" as="geometry" />
        </mxCell>
        <mxCell id="uLPFIteWyu_h71zymSEi-3" value="Capaciteitsmanager beheert capaciteit op capaciteitsdashboard" style="swimlane;html=1;childLayout=stackLayout;resizeParent=1;resizeParentMax=0;horizontal=0;startSize=20;horizontalStack=0;whiteSpace=wrap;" parent="1" vertex="1">
          <mxGeometry x="110" y="350" width="1780" height="300" as="geometry" />
        </mxCell>
        <mxCell id="uLPFIteWyu_h71zymSEi-4" value="Capaciteitsmanager" style="swimlane;html=1;startSize=20;horizontal=0;" parent="uLPFIteWyu_h71zymSEi-3" vertex="1">
          <mxGeometry x="20" width="1760" height="170" as="geometry" />
        </mxCell>
        <mxCell id="uLPFIteWyu_h71zymSEi-6" value="Capaciteitsmanager gaat naar het capaciteitsdashboard" style="points=[[0.25,0,0],[0.5,0,0],[0.75,0,0],[1,0.25,0],[1,0.5,0],[1,0.75,0],[0.75,1,0],[0.5,1,0],[0.25,1,0],[0,0.75,0],[0,0.5,0],[0,0.25,0]];shape=mxgraph.bpmn.task;whiteSpace=wrap;rectStyle=rounded;size=10;html=1;container=1;expand=0;collapsible=0;taskMarker=abstract;" parent="uLPFIteWyu_h71zymSEi-4" vertex="1">
          <mxGeometry x="351" y="70" width="129" height="80" as="geometry" />
        </mxCell>
        <mxCell id="uLPFIteWyu_h71zymSEi-7" style="edgeStyle=orthogonalEdgeStyle;rounded=0;orthogonalLoop=1;jettySize=auto;html=1;exitX=1;exitY=0.5;exitDx=0;exitDy=0;exitPerimeter=0;entryX=0;entryY=0.5;entryDx=0;entryDy=0;entryPerimeter=0;" parent="uLPFIteWyu_h71zymSEi-4" source="uLPFIteWyu_h71zymSEi-6" edge="1">
          <mxGeometry relative="1" as="geometry">
            <mxPoint x="540" y="110" as="targetPoint" />
          </mxGeometry>
        </mxCell>
        <mxCell id="uLPFIteWyu_h71zymSEi-8" value="Capaciteitsmanager wil vrije plaatsen beheren" style="points=[[0.25,0,0],[0.5,0,0],[0.75,0,0],[1,0.25,0],[1,0.5,0],[1,0.75,0],[0.75,1,0],[0.5,1,0],[0.25,1,0],[0,0.75,0],[0,0.5,0],[0,0.25,0]];shape=mxgraph.bpmn.task;whiteSpace=wrap;rectStyle=rounded;size=10;html=1;container=1;expand=0;collapsible=0;taskMarker=abstract;" parent="uLPFIteWyu_h71zymSEi-4" vertex="1">
          <mxGeometry x="170" y="70" width="120" height="80" as="geometry" />
        </mxCell>
        <mxCell id="uLPFIteWyu_h71zymSEi-9" style="edgeStyle=orthogonalEdgeStyle;rounded=0;orthogonalLoop=1;jettySize=auto;html=1;exitX=1;exitY=0.5;exitDx=0;exitDy=0;exitPerimeter=0;entryX=0;entryY=0.5;entryDx=0;entryDy=0;entryPerimeter=0;" parent="uLPFIteWyu_h71zymSEi-4" source="uLPFIteWyu_h71zymSEi-8" target="uLPFIteWyu_h71zymSEi-6" edge="1">
          <mxGeometry relative="1" as="geometry">
            <mxPoint x="360" y="110" as="targetPoint" />
          </mxGeometry>
        </mxCell>
        <mxCell id="uLPFIteWyu_h71zymSEi-10" value="" style="points=[[0.145,0.145,0],[0.5,0,0],[0.855,0.145,0],[1,0.5,0],[0.855,0.855,0],[0.5,1,0],[0.145,0.855,0],[0,0.5,0]];shape=mxgraph.bpmn.event;html=1;verticalLabelPosition=bottom;labelBackgroundColor=#ffffff;verticalAlign=top;align=center;perimeter=ellipsePerimeter;outlineConnect=0;aspect=fixed;outline=end;symbol=terminate2;" parent="uLPFIteWyu_h71zymSEi-4" vertex="1">
          <mxGeometry x="1690" y="85" width="50" height="50" as="geometry" />
        </mxCell>
        <mxCell id="uLPFIteWyu_h71zymSEi-18" value="Capaciteitsmanager add/edit/delete een vrije plaats" style="points=[[0.25,0,0],[0.5,0,0],[0.75,0,0],[1,0.25,0],[1,0.5,0],[1,0.75,0],[0.75,1,0],[0.5,1,0],[0.25,1,0],[0,0.75,0],[0,0.5,0],[0,0.25,0]];shape=mxgraph.bpmn.task;whiteSpace=wrap;rectStyle=rounded;size=10;html=1;container=1;expand=0;collapsible=0;taskMarker=abstract;" parent="uLPFIteWyu_h71zymSEi-4" vertex="1">
          <mxGeometry x="540" y="70" width="120" height="80" as="geometry" />
        </mxCell>
        <mxCell id="uLPFIteWyu_h71zymSEi-19" value="" style="points=[[0.145,0.145,0],[0.5,0,0],[0.855,0.145,0],[1,0.5,0],[0.855,0.855,0],[0.5,1,0],[0.145,0.855,0],[0,0.5,0]];shape=mxgraph.bpmn.event;html=1;verticalLabelPosition=bottom;labelBackgroundColor=#ffffff;verticalAlign=top;align=center;perimeter=ellipsePerimeter;outlineConnect=0;aspect=fixed;outline=throwing;symbol=message;" parent="uLPFIteWyu_h71zymSEi-4" vertex="1">
          <mxGeometry x="730" y="85" width="50" height="50" as="geometry" />
        </mxCell>
        <mxCell id="uLPFIteWyu_h71zymSEi-21" style="edgeStyle=orthogonalEdgeStyle;rounded=0;orthogonalLoop=1;jettySize=auto;html=1;exitX=1;exitY=0.5;exitDx=0;exitDy=0;exitPerimeter=0;entryX=0;entryY=0.5;entryDx=0;entryDy=0;entryPerimeter=0;" parent="uLPFIteWyu_h71zymSEi-4" source="uLPFIteWyu_h71zymSEi-18" target="uLPFIteWyu_h71zymSEi-19" edge="1">
          <mxGeometry relative="1" as="geometry" />
        </mxCell>
        <mxCell id="uLPFIteWyu_h71zymSEi-22" value="Zend request voor pop-up&amp;nbsp;" style="text;html=1;align=center;verticalAlign=middle;resizable=0;points=[];autosize=1;strokeColor=none;fillColor=none;" parent="uLPFIteWyu_h71zymSEi-4" vertex="1">
          <mxGeometry x="675" y="55" width="160" height="30" as="geometry" />
        </mxCell>
        <mxCell id="uLPFIteWyu_h71zymSEi-32" value="" style="points=[[0.145,0.145,0],[0.5,0,0],[0.855,0.145,0],[1,0.5,0],[0.855,0.855,0],[0.5,1,0],[0.145,0.855,0],[0,0.5,0]];shape=mxgraph.bpmn.event;html=1;verticalLabelPosition=bottom;labelBackgroundColor=#ffffff;verticalAlign=top;align=center;perimeter=ellipsePerimeter;outlineConnect=0;aspect=fixed;outline=catching;symbol=message;" parent="uLPFIteWyu_h71zymSEi-4" vertex="1">
          <mxGeometry x="1030" y="85" width="50" height="50" as="geometry" />
        </mxCell>
        <mxCell id="uLPFIteWyu_h71zymSEi-33" value="Ontvang pop-up met correcte data" style="text;html=1;align=center;verticalAlign=middle;resizable=0;points=[];autosize=1;strokeColor=none;fillColor=none;" parent="uLPFIteWyu_h71zymSEi-4" vertex="1">
          <mxGeometry x="950" y="55" width="210" height="30" as="geometry" />
        </mxCell>
        <mxCell id="uLPFIteWyu_h71zymSEi-34" value="" style="points=[[0.145,0.145,0],[0.5,0,0],[0.855,0.145,0],[1,0.5,0],[0.855,0.855,0],[0.5,1,0],[0.145,0.855,0],[0,0.5,0]];shape=mxgraph.bpmn.event;html=1;verticalLabelPosition=bottom;labelBackgroundColor=#ffffff;verticalAlign=top;align=center;perimeter=ellipsePerimeter;outlineConnect=0;aspect=fixed;outline=standard;symbol=timer;" parent="uLPFIteWyu_h71zymSEi-4" vertex="1">
          <mxGeometry x="880" y="85" width="50" height="50" as="geometry" />
        </mxCell>
        <mxCell id="uLPFIteWyu_h71zymSEi-35" style="edgeStyle=orthogonalEdgeStyle;rounded=0;orthogonalLoop=1;jettySize=auto;html=1;exitX=1;exitY=0.5;exitDx=0;exitDy=0;exitPerimeter=0;entryX=0;entryY=0.5;entryDx=0;entryDy=0;entryPerimeter=0;" parent="uLPFIteWyu_h71zymSEi-4" source="uLPFIteWyu_h71zymSEi-19" target="uLPFIteWyu_h71zymSEi-34" edge="1">
          <mxGeometry relative="1" as="geometry" />
        </mxCell>
        <mxCell id="uLPFIteWyu_h71zymSEi-36" style="edgeStyle=orthogonalEdgeStyle;rounded=0;orthogonalLoop=1;jettySize=auto;html=1;exitX=1;exitY=0.5;exitDx=0;exitDy=0;exitPerimeter=0;entryX=0;entryY=0.5;entryDx=0;entryDy=0;entryPerimeter=0;" parent="uLPFIteWyu_h71zymSEi-4" source="uLPFIteWyu_h71zymSEi-34" target="uLPFIteWyu_h71zymSEi-32" edge="1">
          <mxGeometry relative="1" as="geometry" />
        </mxCell>
        <mxCell id="uLPFIteWyu_h71zymSEi-37" value="Voer CRUD-operatie uit op de vrije plaats in de pop-up" style="points=[[0.25,0,0],[0.5,0,0],[0.75,0,0],[1,0.25,0],[1,0.5,0],[1,0.75,0],[0.75,1,0],[0.5,1,0],[0.25,1,0],[0,0.75,0],[0,0.5,0],[0,0.25,0]];shape=mxgraph.bpmn.task;whiteSpace=wrap;rectStyle=rounded;size=10;html=1;container=1;expand=0;collapsible=0;taskMarker=abstract;" parent="uLPFIteWyu_h71zymSEi-4" vertex="1">
          <mxGeometry x="1170" y="70" width="120" height="80" as="geometry" />
        </mxCell>
        <mxCell id="uLPFIteWyu_h71zymSEi-38" style="edgeStyle=orthogonalEdgeStyle;rounded=0;orthogonalLoop=1;jettySize=auto;html=1;exitX=1;exitY=0.5;exitDx=0;exitDy=0;exitPerimeter=0;entryX=0;entryY=0.5;entryDx=0;entryDy=0;entryPerimeter=0;" parent="uLPFIteWyu_h71zymSEi-4" source="uLPFIteWyu_h71zymSEi-32" target="uLPFIteWyu_h71zymSEi-37" edge="1">
          <mxGeometry relative="1" as="geometry" />
        </mxCell>
        <mxCell id="uLPFIteWyu_h71zymSEi-39" value="" style="points=[[0.145,0.145,0],[0.5,0,0],[0.855,0.145,0],[1,0.5,0],[0.855,0.855,0],[0.5,1,0],[0.145,0.855,0],[0,0.5,0]];shape=mxgraph.bpmn.event;html=1;verticalLabelPosition=bottom;labelBackgroundColor=#ffffff;verticalAlign=top;align=center;perimeter=ellipsePerimeter;outlineConnect=0;aspect=fixed;outline=throwing;symbol=message;" parent="uLPFIteWyu_h71zymSEi-4" vertex="1">
          <mxGeometry x="1380" y="85" width="50" height="50" as="geometry" />
        </mxCell>
        <mxCell id="uLPFIteWyu_h71zymSEi-40" style="edgeStyle=orthogonalEdgeStyle;rounded=0;orthogonalLoop=1;jettySize=auto;html=1;exitX=1;exitY=0.5;exitDx=0;exitDy=0;exitPerimeter=0;entryX=0;entryY=0.5;entryDx=0;entryDy=0;entryPerimeter=0;" parent="uLPFIteWyu_h71zymSEi-4" source="uLPFIteWyu_h71zymSEi-37" target="uLPFIteWyu_h71zymSEi-39" edge="1">
          <mxGeometry relative="1" as="geometry" />
        </mxCell>
        <mxCell id="uLPFIteWyu_h71zymSEi-41" value="Zend data CRUD-operatie naar backend" style="text;html=1;align=center;verticalAlign=middle;resizable=0;points=[];autosize=1;strokeColor=none;fillColor=none;" parent="uLPFIteWyu_h71zymSEi-4" vertex="1">
          <mxGeometry x="1285" y="55" width="240" height="30" as="geometry" />
        </mxCell>
        <mxCell id="uLPFIteWyu_h71zymSEi-49" style="edgeStyle=orthogonalEdgeStyle;rounded=0;orthogonalLoop=1;jettySize=auto;html=1;exitX=1;exitY=0.5;exitDx=0;exitDy=0;exitPerimeter=0;entryX=0;entryY=0.5;entryDx=0;entryDy=0;entryPerimeter=0;" parent="uLPFIteWyu_h71zymSEi-4" source="uLPFIteWyu_h71zymSEi-39" target="uLPFIteWyu_h71zymSEi-10" edge="1">
          <mxGeometry relative="1" as="geometry" />
        </mxCell>
        <mxCell id="uLPFIteWyu_h71zymSEi-12" value="System" style="swimlane;html=1;startSize=20;horizontal=0;" parent="uLPFIteWyu_h71zymSEi-3" vertex="1">
          <mxGeometry x="20" y="170" width="1760" height="130" as="geometry" />
        </mxCell>
        <mxCell id="uLPFIteWyu_h71zymSEi-13" value="" style="points=[[0.145,0.145,0],[0.5,0,0],[0.855,0.145,0],[1,0.5,0],[0.855,0.855,0],[0.5,1,0],[0.145,0.855,0],[0,0.5,0]];shape=mxgraph.bpmn.event;html=1;verticalLabelPosition=bottom;labelBackgroundColor=#ffffff;verticalAlign=top;align=center;perimeter=ellipsePerimeter;outlineConnect=0;aspect=fixed;outline=standard;symbol=general;" parent="uLPFIteWyu_h71zymSEi-12" vertex="1">
          <mxGeometry x="50" y="40" width="50" height="50" as="geometry" />
        </mxCell>
        <mxCell id="uLPFIteWyu_h71zymSEi-14" style="edgeStyle=orthogonalEdgeStyle;rounded=0;orthogonalLoop=1;jettySize=auto;html=1;exitX=1;exitY=0.5;exitDx=0;exitDy=0;exitPerimeter=0;entryX=0;entryY=0.5;entryDx=0;entryDy=0;entryPerimeter=0;" parent="uLPFIteWyu_h71zymSEi-12" source="uLPFIteWyu_h71zymSEi-13" target="uLPFIteWyu_h71zymSEi-15" edge="1">
          <mxGeometry relative="1" as="geometry" />
        </mxCell>
        <mxCell id="uLPFIteWyu_h71zymSEi-15" value="" style="points=[[0.145,0.145,0],[0.5,0,0],[0.855,0.145,0],[1,0.5,0],[0.855,0.855,0],[0.5,1,0],[0.145,0.855,0],[0,0.5,0]];shape=mxgraph.bpmn.event;html=1;verticalLabelPosition=bottom;labelBackgroundColor=#ffffff;verticalAlign=top;align=center;perimeter=ellipsePerimeter;outlineConnect=0;aspect=fixed;outline=standard;symbol=timer;" parent="uLPFIteWyu_h71zymSEi-12" vertex="1">
          <mxGeometry x="285" y="40" width="50" height="50" as="geometry" />
        </mxCell>
        <mxCell id="uLPFIteWyu_h71zymSEi-16" value="Wait for request" style="text;html=1;align=center;verticalAlign=middle;resizable=0;points=[];autosize=1;strokeColor=none;fillColor=none;" parent="uLPFIteWyu_h71zymSEi-12" vertex="1">
          <mxGeometry x="255" y="90" width="110" height="30" as="geometry" />
        </mxCell>
        <mxCell id="uLPFIteWyu_h71zymSEi-20" value="" style="points=[[0.145,0.145,0],[0.5,0,0],[0.855,0.145,0],[1,0.5,0],[0.855,0.855,0],[0.5,1,0],[0.145,0.855,0],[0,0.5,0]];shape=mxgraph.bpmn.event;html=1;verticalLabelPosition=bottom;labelBackgroundColor=#ffffff;verticalAlign=top;align=center;perimeter=ellipsePerimeter;outlineConnect=0;aspect=fixed;outline=catching;symbol=message;" parent="uLPFIteWyu_h71zymSEi-12" vertex="1">
          <mxGeometry x="730" y="40" width="50" height="50" as="geometry" />
        </mxCell>
        <mxCell id="uLPFIteWyu_h71zymSEi-24" style="edgeStyle=orthogonalEdgeStyle;rounded=0;orthogonalLoop=1;jettySize=auto;html=1;exitX=1;exitY=0.5;exitDx=0;exitDy=0;exitPerimeter=0;entryX=0;entryY=0.5;entryDx=0;entryDy=0;entryPerimeter=0;" parent="uLPFIteWyu_h71zymSEi-12" source="uLPFIteWyu_h71zymSEi-15" target="uLPFIteWyu_h71zymSEi-20" edge="1">
          <mxGeometry relative="1" as="geometry" />
        </mxCell>
        <mxCell id="uLPFIteWyu_h71zymSEi-25" value="Vraag vrije plaats en data hiervan op aan database" style="points=[[0.25,0,0],[0.5,0,0],[0.75,0,0],[1,0.25,0],[1,0.5,0],[1,0.75,0],[0.75,1,0],[0.5,1,0],[0.25,1,0],[0,0.75,0],[0,0.5,0],[0,0.25,0]];shape=mxgraph.bpmn.task;whiteSpace=wrap;rectStyle=rounded;size=10;html=1;container=1;expand=0;collapsible=0;taskMarker=abstract;" parent="uLPFIteWyu_h71zymSEi-12" vertex="1">
          <mxGeometry x="850" y="25" width="120" height="80" as="geometry" />
        </mxCell>
        <mxCell id="uLPFIteWyu_h71zymSEi-26" style="edgeStyle=orthogonalEdgeStyle;rounded=0;orthogonalLoop=1;jettySize=auto;html=1;exitX=1;exitY=0.5;exitDx=0;exitDy=0;exitPerimeter=0;entryX=0;entryY=0.5;entryDx=0;entryDy=0;entryPerimeter=0;" parent="uLPFIteWyu_h71zymSEi-12" source="uLPFIteWyu_h71zymSEi-20" target="uLPFIteWyu_h71zymSEi-25" edge="1">
          <mxGeometry relative="1" as="geometry" />
        </mxCell>
        <mxCell id="uLPFIteWyu_h71zymSEi-29" value="" style="points=[[0.145,0.145,0],[0.5,0,0],[0.855,0.145,0],[1,0.5,0],[0.855,0.855,0],[0.5,1,0],[0.145,0.855,0],[0,0.5,0]];shape=mxgraph.bpmn.event;html=1;verticalLabelPosition=bottom;labelBackgroundColor=#ffffff;verticalAlign=top;align=center;perimeter=ellipsePerimeter;outlineConnect=0;aspect=fixed;outline=throwing;symbol=message;" parent="uLPFIteWyu_h71zymSEi-12" vertex="1">
          <mxGeometry x="1030" y="40" width="50" height="50" as="geometry" />
        </mxCell>
        <mxCell id="uLPFIteWyu_h71zymSEi-30" style="edgeStyle=orthogonalEdgeStyle;rounded=0;orthogonalLoop=1;jettySize=auto;html=1;exitX=1;exitY=0.5;exitDx=0;exitDy=0;exitPerimeter=0;entryX=0;entryY=0.5;entryDx=0;entryDy=0;entryPerimeter=0;" parent="uLPFIteWyu_h71zymSEi-12" source="uLPFIteWyu_h71zymSEi-25" target="uLPFIteWyu_h71zymSEi-29" edge="1">
          <mxGeometry relative="1" as="geometry" />
        </mxCell>
        <mxCell id="uLPFIteWyu_h71zymSEi-31" value="Toon pop-up met correcte data" style="text;html=1;align=center;verticalAlign=middle;resizable=0;points=[];autosize=1;strokeColor=none;fillColor=none;" parent="uLPFIteWyu_h71zymSEi-12" vertex="1">
          <mxGeometry x="960" y="100" width="190" height="30" as="geometry" />
        </mxCell>
        <mxCell id="uLPFIteWyu_h71zymSEi-42" value="" style="points=[[0.145,0.145,0],[0.5,0,0],[0.855,0.145,0],[1,0.5,0],[0.855,0.855,0],[0.5,1,0],[0.145,0.855,0],[0,0.5,0]];shape=mxgraph.bpmn.event;html=1;verticalLabelPosition=bottom;labelBackgroundColor=#ffffff;verticalAlign=top;align=center;perimeter=ellipsePerimeter;outlineConnect=0;aspect=fixed;outline=catching;symbol=message;" parent="uLPFIteWyu_h71zymSEi-12" vertex="1">
          <mxGeometry x="1380" y="40" width="50" height="50" as="geometry" />
        </mxCell>
        <mxCell id="uLPFIteWyu_h71zymSEi-43" value="" style="points=[[0.145,0.145,0],[0.5,0,0],[0.855,0.145,0],[1,0.5,0],[0.855,0.855,0],[0.5,1,0],[0.145,0.855,0],[0,0.5,0]];shape=mxgraph.bpmn.event;html=1;verticalLabelPosition=bottom;labelBackgroundColor=#ffffff;verticalAlign=top;align=center;perimeter=ellipsePerimeter;outlineConnect=0;aspect=fixed;outline=standard;symbol=timer;" parent="uLPFIteWyu_h71zymSEi-12" vertex="1">
          <mxGeometry x="1190" y="40" width="50" height="50" as="geometry" />
        </mxCell>
        <mxCell id="uLPFIteWyu_h71zymSEi-44" style="edgeStyle=orthogonalEdgeStyle;rounded=0;orthogonalLoop=1;jettySize=auto;html=1;exitX=1;exitY=0.5;exitDx=0;exitDy=0;exitPerimeter=0;entryX=0;entryY=0.5;entryDx=0;entryDy=0;entryPerimeter=0;" parent="uLPFIteWyu_h71zymSEi-12" source="uLPFIteWyu_h71zymSEi-29" target="uLPFIteWyu_h71zymSEi-43" edge="1">
          <mxGeometry relative="1" as="geometry" />
        </mxCell>
        <mxCell id="uLPFIteWyu_h71zymSEi-45" style="edgeStyle=orthogonalEdgeStyle;rounded=0;orthogonalLoop=1;jettySize=auto;html=1;exitX=1;exitY=0.5;exitDx=0;exitDy=0;exitPerimeter=0;entryX=0;entryY=0.5;entryDx=0;entryDy=0;entryPerimeter=0;" parent="uLPFIteWyu_h71zymSEi-12" source="uLPFIteWyu_h71zymSEi-43" target="uLPFIteWyu_h71zymSEi-42" edge="1">
          <mxGeometry relative="1" as="geometry" />
        </mxCell>
        <mxCell id="uLPFIteWyu_h71zymSEi-46" value="Ontvang CRUD-operatie" style="text;html=1;align=center;verticalAlign=middle;resizable=0;points=[];autosize=1;strokeColor=none;fillColor=none;" parent="uLPFIteWyu_h71zymSEi-12" vertex="1">
          <mxGeometry x="1330" y="90" width="150" height="30" as="geometry" />
        </mxCell>
        <mxCell id="uLPFIteWyu_h71zymSEi-47" value="Voer verandering uit op database" style="points=[[0.25,0,0],[0.5,0,0],[0.75,0,0],[1,0.25,0],[1,0.5,0],[1,0.75,0],[0.75,1,0],[0.5,1,0],[0.25,1,0],[0,0.75,0],[0,0.5,0],[0,0.25,0]];shape=mxgraph.bpmn.task;whiteSpace=wrap;rectStyle=rounded;size=10;html=1;container=1;expand=0;collapsible=0;taskMarker=abstract;" parent="uLPFIteWyu_h71zymSEi-12" vertex="1">
          <mxGeometry x="1520" y="25" width="120" height="80" as="geometry" />
        </mxCell>
        <mxCell id="uLPFIteWyu_h71zymSEi-48" style="edgeStyle=orthogonalEdgeStyle;rounded=0;orthogonalLoop=1;jettySize=auto;html=1;exitX=1;exitY=0.5;exitDx=0;exitDy=0;exitPerimeter=0;entryX=0;entryY=0.5;entryDx=0;entryDy=0;entryPerimeter=0;" parent="uLPFIteWyu_h71zymSEi-12" source="uLPFIteWyu_h71zymSEi-42" target="uLPFIteWyu_h71zymSEi-47" edge="1">
          <mxGeometry relative="1" as="geometry" />
        </mxCell>
        <mxCell id="uLPFIteWyu_h71zymSEi-50" value="" style="points=[[0.145,0.145,0],[0.5,0,0],[0.855,0.145,0],[1,0.5,0],[0.855,0.855,0],[0.5,1,0],[0.145,0.855,0],[0,0.5,0]];shape=mxgraph.bpmn.event;html=1;verticalLabelPosition=bottom;labelBackgroundColor=#ffffff;verticalAlign=top;align=center;perimeter=ellipsePerimeter;outlineConnect=0;aspect=fixed;outline=end;symbol=terminate2;" parent="uLPFIteWyu_h71zymSEi-12" vertex="1">
          <mxGeometry x="1690" y="40" width="50" height="50" as="geometry" />
        </mxCell>
        <mxCell id="uLPFIteWyu_h71zymSEi-51" style="edgeStyle=orthogonalEdgeStyle;rounded=0;orthogonalLoop=1;jettySize=auto;html=1;exitX=1;exitY=0.5;exitDx=0;exitDy=0;exitPerimeter=0;entryX=0;entryY=0.5;entryDx=0;entryDy=0;entryPerimeter=0;" parent="uLPFIteWyu_h71zymSEi-12" source="uLPFIteWyu_h71zymSEi-47" target="uLPFIteWyu_h71zymSEi-50" edge="1">
          <mxGeometry relative="1" as="geometry" />
        </mxCell>
        <mxCell id="uLPFIteWyu_h71zymSEi-52" value="" style="dashed=1;dashPattern=8 4;endArrow=blockThin;endFill=1;startArrow=oval;startFill=0;endSize=6;startSize=4;html=1;rounded=0;exitX=0.5;exitY=1;exitDx=0;exitDy=0;exitPerimeter=0;entryX=0.5;entryY=0;entryDx=0;entryDy=0;entryPerimeter=0;" parent="uLPFIteWyu_h71zymSEi-3" source="uLPFIteWyu_h71zymSEi-19" target="uLPFIteWyu_h71zymSEi-20" edge="1">
          <mxGeometry width="160" relative="1" as="geometry">
            <mxPoint x="760" y="430" as="sourcePoint" />
            <mxPoint x="920" y="430" as="targetPoint" />
          </mxGeometry>
        </mxCell>
        <mxCell id="uLPFIteWyu_h71zymSEi-53" value="" style="dashed=1;dashPattern=8 4;endArrow=blockThin;endFill=1;startArrow=oval;startFill=0;endSize=6;startSize=4;html=1;rounded=0;entryX=0.5;entryY=1;entryDx=0;entryDy=0;entryPerimeter=0;exitX=0.5;exitY=0;exitDx=0;exitDy=0;exitPerimeter=0;" parent="uLPFIteWyu_h71zymSEi-3" source="uLPFIteWyu_h71zymSEi-29" target="uLPFIteWyu_h71zymSEi-32" edge="1">
          <mxGeometry width="160" relative="1" as="geometry">
            <mxPoint x="910" y="310" as="sourcePoint" />
            <mxPoint x="1070" y="310" as="targetPoint" />
          </mxGeometry>
        </mxCell>
        <mxCell id="uLPFIteWyu_h71zymSEi-54" value="" style="dashed=1;dashPattern=8 4;endArrow=blockThin;endFill=1;startArrow=oval;startFill=0;endSize=6;startSize=4;html=1;rounded=0;exitX=0.5;exitY=1;exitDx=0;exitDy=0;exitPerimeter=0;entryX=0.5;entryY=0;entryDx=0;entryDy=0;entryPerimeter=0;" parent="uLPFIteWyu_h71zymSEi-3" source="uLPFIteWyu_h71zymSEi-39" target="uLPFIteWyu_h71zymSEi-42" edge="1">
          <mxGeometry width="160" relative="1" as="geometry">
            <mxPoint x="1260" y="310" as="sourcePoint" />
            <mxPoint x="1420" y="310" as="targetPoint" />
          </mxGeometry>
        </mxCell>
        <mxCell id="uLPFIteWyu_h71zymSEi-23" value="Ontvang request voor pop-up" style="text;html=1;align=center;verticalAlign=middle;resizable=0;points=[];autosize=1;strokeColor=none;fillColor=none;" parent="1" vertex="1">
          <mxGeometry x="800" y="618" width="180" height="30" as="geometry" />
        </mxCell>
        <mxCell id="uLPFIteWyu_h71zymSEi-55" value="" style="points=[[0.145,0.145,0],[0.5,0,0],[0.855,0.145,0],[1,0.5,0],[0.855,0.855,0],[0.5,1,0],[0.145,0.855,0],[0,0.5,0]];shape=mxgraph.bpmn.event;html=1;verticalLabelPosition=bottom;labelBackgroundColor=#ffffff;verticalAlign=top;align=center;perimeter=ellipsePerimeter;outlineConnect=0;aspect=fixed;outline=standard;symbol=general;" parent="1" vertex="1">
          <mxGeometry x="30" y="825" width="50" height="50" as="geometry" />
        </mxCell>
        <mxCell id="uLPFIteWyu_h71zymSEi-56" style="edgeStyle=orthogonalEdgeStyle;rounded=0;orthogonalLoop=1;jettySize=auto;html=1;exitX=1;exitY=0.5;exitDx=0;exitDy=0;exitPerimeter=0;entryX=0;entryY=0.5;entryDx=0;entryDy=0;entryPerimeter=0;" parent="1" source="uLPFIteWyu_h71zymSEi-55" target="uLPFIteWyu_h71zymSEi-62" edge="1">
          <mxGeometry relative="1" as="geometry" />
        </mxCell>
        <mxCell id="uLPFIteWyu_h71zymSEi-57" value="Filter manager kiest filters op filterdashboard" style="swimlane;html=1;childLayout=stackLayout;resizeParent=1;resizeParentMax=0;horizontal=0;startSize=20;horizontalStack=0;whiteSpace=wrap;" parent="1" vertex="1">
          <mxGeometry x="-40" y="740" width="1580" height="300" as="geometry" />
        </mxCell>
        <mxCell id="uLPFIteWyu_h71zymSEi-58" value="Filtermanager" style="swimlane;html=1;startSize=20;horizontal=0;" parent="uLPFIteWyu_h71zymSEi-57" vertex="1">
          <mxGeometry x="20" width="1560" height="170" as="geometry" />
        </mxCell>
        <mxCell id="uLPFIteWyu_h71zymSEi-60" value="Filtermanager gaat naar het filterdashboard" style="points=[[0.25,0,0],[0.5,0,0],[0.75,0,0],[1,0.25,0],[1,0.5,0],[1,0.75,0],[0.75,1,0],[0.5,1,0],[0.25,1,0],[0,0.75,0],[0,0.5,0],[0,0.25,0]];shape=mxgraph.bpmn.task;whiteSpace=wrap;rectStyle=rounded;size=10;html=1;container=1;expand=0;collapsible=0;taskMarker=abstract;" parent="uLPFIteWyu_h71zymSEi-58" vertex="1">
          <mxGeometry x="350" y="70" width="120" height="80" as="geometry" />
        </mxCell>
        <mxCell id="uLPFIteWyu_h71zymSEi-61" style="edgeStyle=orthogonalEdgeStyle;rounded=0;orthogonalLoop=1;jettySize=auto;html=1;exitX=1;exitY=0.5;exitDx=0;exitDy=0;exitPerimeter=0;entryX=0;entryY=0.5;entryDx=0;entryDy=0;entryPerimeter=0;" parent="uLPFIteWyu_h71zymSEi-58" source="uLPFIteWyu_h71zymSEi-60" edge="1">
          <mxGeometry relative="1" as="geometry">
            <mxPoint x="540" y="109.99999999999955" as="targetPoint" />
          </mxGeometry>
        </mxCell>
        <mxCell id="uLPFIteWyu_h71zymSEi-62" value="Filtermanager wilt filters beheren" style="points=[[0.25,0,0],[0.5,0,0],[0.75,0,0],[1,0.25,0],[1,0.5,0],[1,0.75,0],[0.75,1,0],[0.5,1,0],[0.25,1,0],[0,0.75,0],[0,0.5,0],[0,0.25,0]];shape=mxgraph.bpmn.task;whiteSpace=wrap;rectStyle=rounded;size=10;html=1;container=1;expand=0;collapsible=0;taskMarker=abstract;" parent="uLPFIteWyu_h71zymSEi-58" vertex="1">
          <mxGeometry x="170" y="70" width="120" height="80" as="geometry" />
        </mxCell>
        <mxCell id="uLPFIteWyu_h71zymSEi-63" style="edgeStyle=orthogonalEdgeStyle;rounded=0;orthogonalLoop=1;jettySize=auto;html=1;exitX=1;exitY=0.5;exitDx=0;exitDy=0;exitPerimeter=0;entryX=0;entryY=0.5;entryDx=0;entryDy=0;entryPerimeter=0;" parent="uLPFIteWyu_h71zymSEi-58" source="uLPFIteWyu_h71zymSEi-62" target="uLPFIteWyu_h71zymSEi-60" edge="1">
          <mxGeometry relative="1" as="geometry">
            <mxPoint x="360" y="110" as="targetPoint" />
          </mxGeometry>
        </mxCell>
        <mxCell id="uLPFIteWyu_h71zymSEi-64" value="" style="points=[[0.145,0.145,0],[0.5,0,0],[0.855,0.145,0],[1,0.5,0],[0.855,0.855,0],[0.5,1,0],[0.145,0.855,0],[0,0.5,0]];shape=mxgraph.bpmn.event;html=1;verticalLabelPosition=bottom;labelBackgroundColor=#ffffff;verticalAlign=top;align=center;perimeter=ellipsePerimeter;outlineConnect=0;aspect=fixed;outline=end;symbol=terminate2;" parent="uLPFIteWyu_h71zymSEi-58" vertex="1">
          <mxGeometry x="1470" y="85" width="50" height="50" as="geometry" />
        </mxCell>
        <mxCell id="uLPFIteWyu_h71zymSEi-72" value="Filtermanager gaat naar het filterdashboard" style="points=[[0.25,0,0],[0.5,0,0],[0.75,0,0],[1,0.25,0],[1,0.5,0],[1,0.75,0],[0.75,1,0],[0.5,1,0],[0.25,1,0],[0,0.75,0],[0,0.5,0],[0,0.25,0]];shape=mxgraph.bpmn.task;whiteSpace=wrap;rectStyle=rounded;size=10;html=1;container=1;expand=0;collapsible=0;taskMarker=abstract;" parent="uLPFIteWyu_h71zymSEi-58" vertex="1">
          <mxGeometry x="540" y="70" width="120" height="80" as="geometry" />
        </mxCell>
        <mxCell id="uLPFIteWyu_h71zymSEi-73" value="Filtermanager zet filter aan/uit" style="points=[[0.25,0,0],[0.5,0,0],[0.75,0,0],[1,0.25,0],[1,0.5,0],[1,0.75,0],[0.75,1,0],[0.5,1,0],[0.25,1,0],[0,0.75,0],[0,0.5,0],[0,0.25,0]];shape=mxgraph.bpmn.task;whiteSpace=wrap;rectStyle=rounded;size=10;html=1;container=1;expand=0;collapsible=0;taskMarker=abstract;" parent="uLPFIteWyu_h71zymSEi-58" vertex="1">
          <mxGeometry x="730" y="70" width="120" height="80" as="geometry" />
        </mxCell>
        <mxCell id="uLPFIteWyu_h71zymSEi-74" style="edgeStyle=orthogonalEdgeStyle;rounded=0;orthogonalLoop=1;jettySize=auto;html=1;exitX=1;exitY=0.5;exitDx=0;exitDy=0;exitPerimeter=0;entryX=0;entryY=0.5;entryDx=0;entryDy=0;entryPerimeter=0;" parent="uLPFIteWyu_h71zymSEi-58" source="uLPFIteWyu_h71zymSEi-72" target="uLPFIteWyu_h71zymSEi-73" edge="1">
          <mxGeometry relative="1" as="geometry" />
        </mxCell>
        <mxCell id="uLPFIteWyu_h71zymSEi-75" value="" style="points=[[0.145,0.145,0],[0.5,0,0],[0.855,0.145,0],[1,0.5,0],[0.855,0.855,0],[0.5,1,0],[0.145,0.855,0],[0,0.5,0]];shape=mxgraph.bpmn.event;html=1;verticalLabelPosition=bottom;labelBackgroundColor=#ffffff;verticalAlign=top;align=center;perimeter=ellipsePerimeter;outlineConnect=0;aspect=fixed;outline=throwing;symbol=message;" parent="uLPFIteWyu_h71zymSEi-58" vertex="1">
          <mxGeometry x="920" y="85" width="50" height="50" as="geometry" />
        </mxCell>
        <mxCell id="uLPFIteWyu_h71zymSEi-76" style="edgeStyle=orthogonalEdgeStyle;rounded=0;orthogonalLoop=1;jettySize=auto;html=1;exitX=1;exitY=0.5;exitDx=0;exitDy=0;exitPerimeter=0;entryX=0;entryY=0.5;entryDx=0;entryDy=0;entryPerimeter=0;" parent="uLPFIteWyu_h71zymSEi-58" source="uLPFIteWyu_h71zymSEi-73" target="uLPFIteWyu_h71zymSEi-75" edge="1">
          <mxGeometry relative="1" as="geometry" />
        </mxCell>
        <mxCell id="uLPFIteWyu_h71zymSEi-77" value="Zend request naar backend voor uitzetten filter" style="text;html=1;align=center;verticalAlign=middle;resizable=0;points=[];autosize=1;strokeColor=none;fillColor=none;" parent="uLPFIteWyu_h71zymSEi-58" vertex="1">
          <mxGeometry x="810" y="48" width="270" height="30" as="geometry" />
        </mxCell>
        <mxCell id="uLPFIteWyu_h71zymSEi-84" style="edgeStyle=orthogonalEdgeStyle;rounded=0;orthogonalLoop=1;jettySize=auto;html=1;exitX=1;exitY=0.5;exitDx=0;exitDy=0;exitPerimeter=0;entryX=0;entryY=0.5;entryDx=0;entryDy=0;entryPerimeter=0;" parent="uLPFIteWyu_h71zymSEi-58" source="uLPFIteWyu_h71zymSEi-75" target="uLPFIteWyu_h71zymSEi-64" edge="1">
          <mxGeometry relative="1" as="geometry" />
        </mxCell>
        <mxCell id="uLPFIteWyu_h71zymSEi-66" value="Systeem" style="swimlane;html=1;startSize=20;horizontal=0;" parent="uLPFIteWyu_h71zymSEi-57" vertex="1">
          <mxGeometry x="20" y="170" width="1560" height="130" as="geometry" />
        </mxCell>
        <mxCell id="uLPFIteWyu_h71zymSEi-67" value="" style="points=[[0.145,0.145,0],[0.5,0,0],[0.855,0.145,0],[1,0.5,0],[0.855,0.855,0],[0.5,1,0],[0.145,0.855,0],[0,0.5,0]];shape=mxgraph.bpmn.event;html=1;verticalLabelPosition=bottom;labelBackgroundColor=#ffffff;verticalAlign=top;align=center;perimeter=ellipsePerimeter;outlineConnect=0;aspect=fixed;outline=standard;symbol=general;" parent="uLPFIteWyu_h71zymSEi-66" vertex="1">
          <mxGeometry x="50" y="40" width="50" height="50" as="geometry" />
        </mxCell>
        <mxCell id="uLPFIteWyu_h71zymSEi-68" style="edgeStyle=orthogonalEdgeStyle;rounded=0;orthogonalLoop=1;jettySize=auto;html=1;exitX=1;exitY=0.5;exitDx=0;exitDy=0;exitPerimeter=0;entryX=0;entryY=0.5;entryDx=0;entryDy=0;entryPerimeter=0;" parent="uLPFIteWyu_h71zymSEi-66" source="uLPFIteWyu_h71zymSEi-67" target="uLPFIteWyu_h71zymSEi-69" edge="1">
          <mxGeometry relative="1" as="geometry" />
        </mxCell>
        <mxCell id="uLPFIteWyu_h71zymSEi-69" value="" style="points=[[0.145,0.145,0],[0.5,0,0],[0.855,0.145,0],[1,0.5,0],[0.855,0.855,0],[0.5,1,0],[0.145,0.855,0],[0,0.5,0]];shape=mxgraph.bpmn.event;html=1;verticalLabelPosition=bottom;labelBackgroundColor=#ffffff;verticalAlign=top;align=center;perimeter=ellipsePerimeter;outlineConnect=0;aspect=fixed;outline=standard;symbol=timer;" parent="uLPFIteWyu_h71zymSEi-66" vertex="1">
          <mxGeometry x="285" y="40" width="50" height="50" as="geometry" />
        </mxCell>
        <mxCell id="uLPFIteWyu_h71zymSEi-70" value="Wacht op request" style="text;html=1;align=center;verticalAlign=middle;resizable=0;points=[];autosize=1;strokeColor=none;fillColor=none;" parent="uLPFIteWyu_h71zymSEi-66" vertex="1">
          <mxGeometry x="250" y="90" width="120" height="30" as="geometry" />
        </mxCell>
        <mxCell id="uLPFIteWyu_h71zymSEi-78" value="" style="points=[[0.145,0.145,0],[0.5,0,0],[0.855,0.145,0],[1,0.5,0],[0.855,0.855,0],[0.5,1,0],[0.145,0.855,0],[0,0.5,0]];shape=mxgraph.bpmn.event;html=1;verticalLabelPosition=bottom;labelBackgroundColor=#ffffff;verticalAlign=top;align=center;perimeter=ellipsePerimeter;outlineConnect=0;aspect=fixed;outline=catching;symbol=message;" parent="uLPFIteWyu_h71zymSEi-66" vertex="1">
          <mxGeometry x="920" y="40" width="50" height="50" as="geometry" />
        </mxCell>
        <mxCell id="uLPFIteWyu_h71zymSEi-79" style="edgeStyle=orthogonalEdgeStyle;rounded=0;orthogonalLoop=1;jettySize=auto;html=1;exitX=1;exitY=0.5;exitDx=0;exitDy=0;exitPerimeter=0;entryX=0;entryY=0.5;entryDx=0;entryDy=0;entryPerimeter=0;" parent="uLPFIteWyu_h71zymSEi-66" source="uLPFIteWyu_h71zymSEi-69" target="uLPFIteWyu_h71zymSEi-78" edge="1">
          <mxGeometry relative="1" as="geometry" />
        </mxCell>
        <mxCell id="uLPFIteWyu_h71zymSEi-80" value="Ontvang request" style="text;html=1;align=center;verticalAlign=middle;resizable=0;points=[];autosize=1;strokeColor=none;fillColor=none;" parent="uLPFIteWyu_h71zymSEi-66" vertex="1">
          <mxGeometry x="890" y="90" width="110" height="30" as="geometry" />
        </mxCell>
        <mxCell id="uLPFIteWyu_h71zymSEi-82" value="Zet filter in database aan/uit" style="points=[[0.25,0,0],[0.5,0,0],[0.75,0,0],[1,0.25,0],[1,0.5,0],[1,0.75,0],[0.75,1,0],[0.5,1,0],[0.25,1,0],[0,0.75,0],[0,0.5,0],[0,0.25,0]];shape=mxgraph.bpmn.task;whiteSpace=wrap;rectStyle=rounded;size=10;html=1;container=1;expand=0;collapsible=0;taskMarker=abstract;" parent="uLPFIteWyu_h71zymSEi-66" vertex="1">
          <mxGeometry x="1060" y="25" width="120" height="80" as="geometry" />
        </mxCell>
        <mxCell id="uLPFIteWyu_h71zymSEi-83" style="edgeStyle=orthogonalEdgeStyle;rounded=0;orthogonalLoop=1;jettySize=auto;html=1;exitX=1;exitY=0.5;exitDx=0;exitDy=0;exitPerimeter=0;entryX=0;entryY=0.5;entryDx=0;entryDy=0;entryPerimeter=0;" parent="uLPFIteWyu_h71zymSEi-66" source="uLPFIteWyu_h71zymSEi-78" target="uLPFIteWyu_h71zymSEi-82" edge="1">
          <mxGeometry relative="1" as="geometry" />
        </mxCell>
        <mxCell id="uLPFIteWyu_h71zymSEi-86" value="Verander UI zodat het de filter niet meer bevat" style="points=[[0.25,0,0],[0.5,0,0],[0.75,0,0],[1,0.25,0],[1,0.5,0],[1,0.75,0],[0.75,1,0],[0.5,1,0],[0.25,1,0],[0,0.75,0],[0,0.5,0],[0,0.25,0]];shape=mxgraph.bpmn.task;whiteSpace=wrap;rectStyle=rounded;size=10;html=1;container=1;expand=0;collapsible=0;taskMarker=abstract;" parent="uLPFIteWyu_h71zymSEi-66" vertex="1">
          <mxGeometry x="1235" y="25" width="120" height="80" as="geometry" />
        </mxCell>
        <mxCell id="uLPFIteWyu_h71zymSEi-87" style="edgeStyle=orthogonalEdgeStyle;rounded=0;orthogonalLoop=1;jettySize=auto;html=1;exitX=1;exitY=0.5;exitDx=0;exitDy=0;exitPerimeter=0;entryX=0;entryY=0.5;entryDx=0;entryDy=0;entryPerimeter=0;" parent="uLPFIteWyu_h71zymSEi-66" source="uLPFIteWyu_h71zymSEi-82" target="uLPFIteWyu_h71zymSEi-86" edge="1">
          <mxGeometry relative="1" as="geometry" />
        </mxCell>
        <mxCell id="uLPFIteWyu_h71zymSEi-88" value="" style="points=[[0.145,0.145,0],[0.5,0,0],[0.855,0.145,0],[1,0.5,0],[0.855,0.855,0],[0.5,1,0],[0.145,0.855,0],[0,0.5,0]];shape=mxgraph.bpmn.event;html=1;verticalLabelPosition=bottom;labelBackgroundColor=#ffffff;verticalAlign=top;align=center;perimeter=ellipsePerimeter;outlineConnect=0;aspect=fixed;outline=end;symbol=terminate2;" parent="uLPFIteWyu_h71zymSEi-66" vertex="1">
          <mxGeometry x="1470" y="40" width="50" height="50" as="geometry" />
        </mxCell>
        <mxCell id="uLPFIteWyu_h71zymSEi-89" style="edgeStyle=orthogonalEdgeStyle;rounded=0;orthogonalLoop=1;jettySize=auto;html=1;exitX=1;exitY=0.5;exitDx=0;exitDy=0;exitPerimeter=0;entryX=0;entryY=0.5;entryDx=0;entryDy=0;entryPerimeter=0;" parent="uLPFIteWyu_h71zymSEi-66" source="uLPFIteWyu_h71zymSEi-86" target="uLPFIteWyu_h71zymSEi-88" edge="1">
          <mxGeometry relative="1" as="geometry" />
        </mxCell>
        <mxCell id="uLPFIteWyu_h71zymSEi-81" value="" style="dashed=1;dashPattern=8 4;endArrow=blockThin;endFill=1;startArrow=oval;startFill=0;endSize=6;startSize=4;html=1;rounded=0;entryX=0.5;entryY=0;entryDx=0;entryDy=0;entryPerimeter=0;exitX=0.5;exitY=1;exitDx=0;exitDy=0;exitPerimeter=0;" parent="uLPFIteWyu_h71zymSEi-57" source="uLPFIteWyu_h71zymSEi-75" target="uLPFIteWyu_h71zymSEi-78" edge="1">
          <mxGeometry width="160" relative="1" as="geometry">
            <mxPoint x="600" y="20" as="sourcePoint" />
            <mxPoint x="760" y="20" as="targetPoint" />
          </mxGeometry>
        </mxCell>
        <mxCell id="uLPFIteWyu_h71zymSEi-90" value="" style="points=[[0.145,0.145,0],[0.5,0,0],[0.855,0.145,0],[1,0.5,0],[0.855,0.855,0],[0.5,1,0],[0.145,0.855,0],[0,0.5,0]];shape=mxgraph.bpmn.event;html=1;verticalLabelPosition=bottom;labelBackgroundColor=#ffffff;verticalAlign=top;align=center;perimeter=ellipsePerimeter;outlineConnect=0;aspect=fixed;outline=standard;symbol=general;" parent="1" vertex="1">
          <mxGeometry x="30" y="1225" width="50" height="50" as="geometry" />
        </mxCell>
        <mxCell id="uLPFIteWyu_h71zymSEi-91" style="edgeStyle=orthogonalEdgeStyle;rounded=0;orthogonalLoop=1;jettySize=auto;html=1;exitX=1;exitY=0.5;exitDx=0;exitDy=0;exitPerimeter=0;entryX=0;entryY=0.5;entryDx=0;entryDy=0;entryPerimeter=0;" parent="1" source="uLPFIteWyu_h71zymSEi-90" target="uLPFIteWyu_h71zymSEi-96" edge="1">
          <mxGeometry relative="1" as="geometry" />
        </mxCell>
        <mxCell id="uLPFIteWyu_h71zymSEi-92" value="Superadmin beheert gebruikers" style="swimlane;html=1;childLayout=stackLayout;resizeParent=1;resizeParentMax=0;horizontal=0;startSize=20;horizontalStack=0;whiteSpace=wrap;" parent="1" vertex="1">
          <mxGeometry x="-40" y="1140" width="1580" height="300" as="geometry" />
        </mxCell>
        <mxCell id="uLPFIteWyu_h71zymSEi-93" value="Filtermanager" style="swimlane;html=1;startSize=20;horizontal=0;" parent="uLPFIteWyu_h71zymSEi-92" vertex="1">
          <mxGeometry x="20" width="1560" height="170" as="geometry" />
        </mxCell>
        <mxCell id="uLPFIteWyu_h71zymSEi-94" value="Filtermanager gaat naar het filterdashboard" style="points=[[0.25,0,0],[0.5,0,0],[0.75,0,0],[1,0.25,0],[1,0.5,0],[1,0.75,0],[0.75,1,0],[0.5,1,0],[0.25,1,0],[0,0.75,0],[0,0.5,0],[0,0.25,0]];shape=mxgraph.bpmn.task;whiteSpace=wrap;rectStyle=rounded;size=10;html=1;container=1;expand=0;collapsible=0;taskMarker=abstract;" parent="uLPFIteWyu_h71zymSEi-93" vertex="1">
          <mxGeometry x="350" y="70" width="120" height="80" as="geometry" />
        </mxCell>
        <mxCell id="uLPFIteWyu_h71zymSEi-95" style="edgeStyle=orthogonalEdgeStyle;rounded=0;orthogonalLoop=1;jettySize=auto;html=1;exitX=1;exitY=0.5;exitDx=0;exitDy=0;exitPerimeter=0;entryX=0;entryY=0.5;entryDx=0;entryDy=0;entryPerimeter=0;" parent="uLPFIteWyu_h71zymSEi-93" source="uLPFIteWyu_h71zymSEi-94" edge="1">
          <mxGeometry relative="1" as="geometry">
            <mxPoint x="540" y="109.99999999999955" as="targetPoint" />
          </mxGeometry>
        </mxCell>
        <mxCell id="uLPFIteWyu_h71zymSEi-96" value="Filtermanager wilt filters beheren" style="points=[[0.25,0,0],[0.5,0,0],[0.75,0,0],[1,0.25,0],[1,0.5,0],[1,0.75,0],[0.75,1,0],[0.5,1,0],[0.25,1,0],[0,0.75,0],[0,0.5,0],[0,0.25,0]];shape=mxgraph.bpmn.task;whiteSpace=wrap;rectStyle=rounded;size=10;html=1;container=1;expand=0;collapsible=0;taskMarker=abstract;" parent="uLPFIteWyu_h71zymSEi-93" vertex="1">
          <mxGeometry x="170" y="70" width="120" height="80" as="geometry" />
        </mxCell>
        <mxCell id="uLPFIteWyu_h71zymSEi-97" style="edgeStyle=orthogonalEdgeStyle;rounded=0;orthogonalLoop=1;jettySize=auto;html=1;exitX=1;exitY=0.5;exitDx=0;exitDy=0;exitPerimeter=0;entryX=0;entryY=0.5;entryDx=0;entryDy=0;entryPerimeter=0;" parent="uLPFIteWyu_h71zymSEi-93" source="uLPFIteWyu_h71zymSEi-96" target="uLPFIteWyu_h71zymSEi-94" edge="1">
          <mxGeometry relative="1" as="geometry">
            <mxPoint x="360" y="110" as="targetPoint" />
          </mxGeometry>
        </mxCell>
        <mxCell id="uLPFIteWyu_h71zymSEi-98" value="" style="points=[[0.145,0.145,0],[0.5,0,0],[0.855,0.145,0],[1,0.5,0],[0.855,0.855,0],[0.5,1,0],[0.145,0.855,0],[0,0.5,0]];shape=mxgraph.bpmn.event;html=1;verticalLabelPosition=bottom;labelBackgroundColor=#ffffff;verticalAlign=top;align=center;perimeter=ellipsePerimeter;outlineConnect=0;aspect=fixed;outline=end;symbol=terminate2;" parent="uLPFIteWyu_h71zymSEi-93" vertex="1">
          <mxGeometry x="1470" y="85" width="50" height="50" as="geometry" />
        </mxCell>
        <mxCell id="uLPFIteWyu_h71zymSEi-99" value="Filtermanager gaat naar het filterdashboard" style="points=[[0.25,0,0],[0.5,0,0],[0.75,0,0],[1,0.25,0],[1,0.5,0],[1,0.75,0],[0.75,1,0],[0.5,1,0],[0.25,1,0],[0,0.75,0],[0,0.5,0],[0,0.25,0]];shape=mxgraph.bpmn.task;whiteSpace=wrap;rectStyle=rounded;size=10;html=1;container=1;expand=0;collapsible=0;taskMarker=abstract;" parent="uLPFIteWyu_h71zymSEi-93" vertex="1">
          <mxGeometry x="540" y="70" width="120" height="80" as="geometry" />
        </mxCell>
        <mxCell id="uLPFIteWyu_h71zymSEi-100" value="Filtermanager zet filter aan/uit" style="points=[[0.25,0,0],[0.5,0,0],[0.75,0,0],[1,0.25,0],[1,0.5,0],[1,0.75,0],[0.75,1,0],[0.5,1,0],[0.25,1,0],[0,0.75,0],[0,0.5,0],[0,0.25,0]];shape=mxgraph.bpmn.task;whiteSpace=wrap;rectStyle=rounded;size=10;html=1;container=1;expand=0;collapsible=0;taskMarker=abstract;" parent="uLPFIteWyu_h71zymSEi-93" vertex="1">
          <mxGeometry x="730" y="70" width="120" height="80" as="geometry" />
        </mxCell>
        <mxCell id="uLPFIteWyu_h71zymSEi-101" style="edgeStyle=orthogonalEdgeStyle;rounded=0;orthogonalLoop=1;jettySize=auto;html=1;exitX=1;exitY=0.5;exitDx=0;exitDy=0;exitPerimeter=0;entryX=0;entryY=0.5;entryDx=0;entryDy=0;entryPerimeter=0;" parent="uLPFIteWyu_h71zymSEi-93" source="uLPFIteWyu_h71zymSEi-99" target="uLPFIteWyu_h71zymSEi-100" edge="1">
          <mxGeometry relative="1" as="geometry" />
        </mxCell>
        <mxCell id="uLPFIteWyu_h71zymSEi-102" value="" style="points=[[0.145,0.145,0],[0.5,0,0],[0.855,0.145,0],[1,0.5,0],[0.855,0.855,0],[0.5,1,0],[0.145,0.855,0],[0,0.5,0]];shape=mxgraph.bpmn.event;html=1;verticalLabelPosition=bottom;labelBackgroundColor=#ffffff;verticalAlign=top;align=center;perimeter=ellipsePerimeter;outlineConnect=0;aspect=fixed;outline=throwing;symbol=message;" parent="uLPFIteWyu_h71zymSEi-93" vertex="1">
          <mxGeometry x="920" y="85" width="50" height="50" as="geometry" />
        </mxCell>
        <mxCell id="uLPFIteWyu_h71zymSEi-103" style="edgeStyle=orthogonalEdgeStyle;rounded=0;orthogonalLoop=1;jettySize=auto;html=1;exitX=1;exitY=0.5;exitDx=0;exitDy=0;exitPerimeter=0;entryX=0;entryY=0.5;entryDx=0;entryDy=0;entryPerimeter=0;" parent="uLPFIteWyu_h71zymSEi-93" source="uLPFIteWyu_h71zymSEi-100" target="uLPFIteWyu_h71zymSEi-102" edge="1">
          <mxGeometry relative="1" as="geometry" />
        </mxCell>
        <mxCell id="uLPFIteWyu_h71zymSEi-104" value="Zend request naar backend voor uitzetten filter" style="text;html=1;align=center;verticalAlign=middle;resizable=0;points=[];autosize=1;strokeColor=none;fillColor=none;" parent="uLPFIteWyu_h71zymSEi-93" vertex="1">
          <mxGeometry x="810" y="48" width="270" height="30" as="geometry" />
        </mxCell>
        <mxCell id="uLPFIteWyu_h71zymSEi-105" style="edgeStyle=orthogonalEdgeStyle;rounded=0;orthogonalLoop=1;jettySize=auto;html=1;exitX=1;exitY=0.5;exitDx=0;exitDy=0;exitPerimeter=0;entryX=0;entryY=0.5;entryDx=0;entryDy=0;entryPerimeter=0;" parent="uLPFIteWyu_h71zymSEi-93" source="uLPFIteWyu_h71zymSEi-102" target="uLPFIteWyu_h71zymSEi-98" edge="1">
          <mxGeometry relative="1" as="geometry" />
        </mxCell>
        <mxCell id="uLPFIteWyu_h71zymSEi-106" value="Systeem" style="swimlane;html=1;startSize=20;horizontal=0;" parent="uLPFIteWyu_h71zymSEi-92" vertex="1">
          <mxGeometry x="20" y="170" width="1560" height="130" as="geometry" />
        </mxCell>
        <mxCell id="uLPFIteWyu_h71zymSEi-107" value="" style="points=[[0.145,0.145,0],[0.5,0,0],[0.855,0.145,0],[1,0.5,0],[0.855,0.855,0],[0.5,1,0],[0.145,0.855,0],[0,0.5,0]];shape=mxgraph.bpmn.event;html=1;verticalLabelPosition=bottom;labelBackgroundColor=#ffffff;verticalAlign=top;align=center;perimeter=ellipsePerimeter;outlineConnect=0;aspect=fixed;outline=standard;symbol=general;" parent="uLPFIteWyu_h71zymSEi-106" vertex="1">
          <mxGeometry x="50" y="40" width="50" height="50" as="geometry" />
        </mxCell>
        <mxCell id="uLPFIteWyu_h71zymSEi-108" style="edgeStyle=orthogonalEdgeStyle;rounded=0;orthogonalLoop=1;jettySize=auto;html=1;exitX=1;exitY=0.5;exitDx=0;exitDy=0;exitPerimeter=0;entryX=0;entryY=0.5;entryDx=0;entryDy=0;entryPerimeter=0;" parent="uLPFIteWyu_h71zymSEi-106" source="uLPFIteWyu_h71zymSEi-107" target="uLPFIteWyu_h71zymSEi-109" edge="1">
          <mxGeometry relative="1" as="geometry" />
        </mxCell>
        <mxCell id="uLPFIteWyu_h71zymSEi-109" value="" style="points=[[0.145,0.145,0],[0.5,0,0],[0.855,0.145,0],[1,0.5,0],[0.855,0.855,0],[0.5,1,0],[0.145,0.855,0],[0,0.5,0]];shape=mxgraph.bpmn.event;html=1;verticalLabelPosition=bottom;labelBackgroundColor=#ffffff;verticalAlign=top;align=center;perimeter=ellipsePerimeter;outlineConnect=0;aspect=fixed;outline=standard;symbol=timer;" parent="uLPFIteWyu_h71zymSEi-106" vertex="1">
          <mxGeometry x="285" y="40" width="50" height="50" as="geometry" />
        </mxCell>
        <mxCell id="uLPFIteWyu_h71zymSEi-110" value="Wacht op request" style="text;html=1;align=center;verticalAlign=middle;resizable=0;points=[];autosize=1;strokeColor=none;fillColor=none;" parent="uLPFIteWyu_h71zymSEi-106" vertex="1">
          <mxGeometry x="250" y="90" width="120" height="30" as="geometry" />
        </mxCell>
        <mxCell id="uLPFIteWyu_h71zymSEi-111" value="" style="points=[[0.145,0.145,0],[0.5,0,0],[0.855,0.145,0],[1,0.5,0],[0.855,0.855,0],[0.5,1,0],[0.145,0.855,0],[0,0.5,0]];shape=mxgraph.bpmn.event;html=1;verticalLabelPosition=bottom;labelBackgroundColor=#ffffff;verticalAlign=top;align=center;perimeter=ellipsePerimeter;outlineConnect=0;aspect=fixed;outline=catching;symbol=message;" parent="uLPFIteWyu_h71zymSEi-106" vertex="1">
          <mxGeometry x="920" y="40" width="50" height="50" as="geometry" />
        </mxCell>
        <mxCell id="uLPFIteWyu_h71zymSEi-112" style="edgeStyle=orthogonalEdgeStyle;rounded=0;orthogonalLoop=1;jettySize=auto;html=1;exitX=1;exitY=0.5;exitDx=0;exitDy=0;exitPerimeter=0;entryX=0;entryY=0.5;entryDx=0;entryDy=0;entryPerimeter=0;" parent="uLPFIteWyu_h71zymSEi-106" source="uLPFIteWyu_h71zymSEi-109" target="uLPFIteWyu_h71zymSEi-111" edge="1">
          <mxGeometry relative="1" as="geometry" />
        </mxCell>
        <mxCell id="uLPFIteWyu_h71zymSEi-113" value="Ontvang request" style="text;html=1;align=center;verticalAlign=middle;resizable=0;points=[];autosize=1;strokeColor=none;fillColor=none;" parent="uLPFIteWyu_h71zymSEi-106" vertex="1">
          <mxGeometry x="890" y="90" width="110" height="30" as="geometry" />
        </mxCell>
        <mxCell id="uLPFIteWyu_h71zymSEi-114" value="Zet filter in database aan/uit" style="points=[[0.25,0,0],[0.5,0,0],[0.75,0,0],[1,0.25,0],[1,0.5,0],[1,0.75,0],[0.75,1,0],[0.5,1,0],[0.25,1,0],[0,0.75,0],[0,0.5,0],[0,0.25,0]];shape=mxgraph.bpmn.task;whiteSpace=wrap;rectStyle=rounded;size=10;html=1;container=1;expand=0;collapsible=0;taskMarker=abstract;" parent="uLPFIteWyu_h71zymSEi-106" vertex="1">
          <mxGeometry x="1060" y="25" width="120" height="80" as="geometry" />
        </mxCell>
        <mxCell id="uLPFIteWyu_h71zymSEi-115" style="edgeStyle=orthogonalEdgeStyle;rounded=0;orthogonalLoop=1;jettySize=auto;html=1;exitX=1;exitY=0.5;exitDx=0;exitDy=0;exitPerimeter=0;entryX=0;entryY=0.5;entryDx=0;entryDy=0;entryPerimeter=0;" parent="uLPFIteWyu_h71zymSEi-106" source="uLPFIteWyu_h71zymSEi-111" target="uLPFIteWyu_h71zymSEi-114" edge="1">
          <mxGeometry relative="1" as="geometry" />
        </mxCell>
        <mxCell id="uLPFIteWyu_h71zymSEi-116" value="Verander UI zodat het de filter niet meer bevat" style="points=[[0.25,0,0],[0.5,0,0],[0.75,0,0],[1,0.25,0],[1,0.5,0],[1,0.75,0],[0.75,1,0],[0.5,1,0],[0.25,1,0],[0,0.75,0],[0,0.5,0],[0,0.25,0]];shape=mxgraph.bpmn.task;whiteSpace=wrap;rectStyle=rounded;size=10;html=1;container=1;expand=0;collapsible=0;taskMarker=abstract;" parent="uLPFIteWyu_h71zymSEi-106" vertex="1">
          <mxGeometry x="1235" y="25" width="120" height="80" as="geometry" />
        </mxCell>
        <mxCell id="uLPFIteWyu_h71zymSEi-117" style="edgeStyle=orthogonalEdgeStyle;rounded=0;orthogonalLoop=1;jettySize=auto;html=1;exitX=1;exitY=0.5;exitDx=0;exitDy=0;exitPerimeter=0;entryX=0;entryY=0.5;entryDx=0;entryDy=0;entryPerimeter=0;" parent="uLPFIteWyu_h71zymSEi-106" source="uLPFIteWyu_h71zymSEi-114" target="uLPFIteWyu_h71zymSEi-116" edge="1">
          <mxGeometry relative="1" as="geometry" />
        </mxCell>
        <mxCell id="uLPFIteWyu_h71zymSEi-118" value="" style="points=[[0.145,0.145,0],[0.5,0,0],[0.855,0.145,0],[1,0.5,0],[0.855,0.855,0],[0.5,1,0],[0.145,0.855,0],[0,0.5,0]];shape=mxgraph.bpmn.event;html=1;verticalLabelPosition=bottom;labelBackgroundColor=#ffffff;verticalAlign=top;align=center;perimeter=ellipsePerimeter;outlineConnect=0;aspect=fixed;outline=end;symbol=terminate2;" parent="uLPFIteWyu_h71zymSEi-106" vertex="1">
          <mxGeometry x="1470" y="40" width="50" height="50" as="geometry" />
        </mxCell>
        <mxCell id="uLPFIteWyu_h71zymSEi-119" style="edgeStyle=orthogonalEdgeStyle;rounded=0;orthogonalLoop=1;jettySize=auto;html=1;exitX=1;exitY=0.5;exitDx=0;exitDy=0;exitPerimeter=0;entryX=0;entryY=0.5;entryDx=0;entryDy=0;entryPerimeter=0;" parent="uLPFIteWyu_h71zymSEi-106" source="uLPFIteWyu_h71zymSEi-116" target="uLPFIteWyu_h71zymSEi-118" edge="1">
          <mxGeometry relative="1" as="geometry" />
        </mxCell>
        <mxCell id="uLPFIteWyu_h71zymSEi-120" value="" style="dashed=1;dashPattern=8 4;endArrow=blockThin;endFill=1;startArrow=oval;startFill=0;endSize=6;startSize=4;html=1;rounded=0;entryX=0.5;entryY=0;entryDx=0;entryDy=0;entryPerimeter=0;exitX=0.5;exitY=1;exitDx=0;exitDy=0;exitPerimeter=0;" parent="uLPFIteWyu_h71zymSEi-92" source="uLPFIteWyu_h71zymSEi-102" target="uLPFIteWyu_h71zymSEi-111" edge="1">
          <mxGeometry width="160" relative="1" as="geometry">
            <mxPoint x="600" y="20" as="sourcePoint" />
            <mxPoint x="760" y="20" as="targetPoint" />
          </mxGeometry>
        </mxCell>
      </root>
    </mxGraphModel>
  </diagram>
</mxfile>
